<svg width="57" height="57" viewBox="0 0 57 57" fill="none" xmlns="http://www.w3.org/2000/svg">
<g clip-path="url(#clip0_56680_5422)">
<path fill-rule="evenodd" clip-rule="evenodd" d="M44.3337 52.1969C39.6469 55.3285 34.1368 57 28.5 57C20.9413 57 13.6922 53.9973 8.34746 48.6525C3.00267 43.3078 0 36.0587 0 28.5C0 22.8632 1.6715 17.3531 4.80311 12.6663C7.93473 7.97946 12.3858 4.32654 17.5935 2.16945C22.8012 0.0123486 28.5316 -0.552046 34.0601 0.547632C39.5885 1.64731 44.6667 4.36167 48.6525 8.34747C52.6383 12.3333 55.3527 17.4115 56.4524 22.9399C57.552 28.4684 56.9877 34.1988 54.8306 39.4065C52.6735 44.6142 49.0205 49.0653 44.3337 52.1969ZM43.9975 39.301C45.673 37.6255 46.6142 35.3531 46.6142 32.9836L46.6188 14.4512H40.2348V33.288C40.2348 33.9649 39.9659 34.6142 39.4872 35.0928C39.0085 35.5715 38.3593 35.8404 37.6824 35.8404C37.0054 35.8404 36.3562 35.5715 35.8775 35.0928C35.3988 34.6142 35.1299 33.9649 35.1299 33.288V14.4512H28.7459V32.9836C28.7459 35.3531 29.6872 37.6255 31.3626 39.301C33.0381 40.9765 35.3106 41.9178 37.6801 41.9178C40.0496 41.9178 42.322 40.9765 43.9975 39.301ZM28.1576 35.6387C28.2836 36.0793 28.4345 36.5125 28.6097 36.936C29.1104 38.1112 29.8359 39.1774 30.7454 40.0744C31.5226 40.8537 32.4141 41.51 33.3891 42.0204H14.4537C13.257 42.009 12.1133 41.5251 11.2718 40.6742C10.4303 39.8232 9.95911 38.6742 9.96097 37.4775C9.93463 36.3227 10.3671 35.2046 11.1637 34.3681C15.6045 30.0361 20.7003 25.1016 20.7003 25.1016C20.9382 24.8653 21.1268 24.5842 21.2555 24.2746C21.3841 23.9649 21.4501 23.6329 21.4497 23.2976C21.4494 22.9623 21.3826 22.6304 21.2533 22.321C21.1239 22.0117 20.9346 21.731 20.6963 21.4952C20.4579 21.2594 20.1752 21.0731 19.8645 20.9471C19.5537 20.8211 19.2211 20.7579 18.8859 20.7612C18.5506 20.7644 18.2193 20.834 17.911 20.966C17.6028 21.098 17.3237 21.2897 17.09 21.53C16.6076 22.027 16.3393 22.6933 16.3427 23.3859H9.95869C9.95096 22.2063 10.1758 21.0368 10.6203 19.9441C11.0648 18.8515 11.7203 17.8571 12.5493 17.0179C13.7824 15.7544 15.3654 14.8889 17.0945 14.5326C18.8237 14.1763 20.6199 14.3456 22.252 15.0187C23.8841 15.6919 25.2775 16.838 26.2527 18.3096C27.228 19.7813 27.7405 21.5111 27.7244 23.2765V23.2913C27.7348 24.4642 27.5135 25.6275 27.0733 26.7147C26.6332 27.8019 25.9828 28.7915 25.1594 29.6269C21.6728 33.1204 18.8929 35.6387 18.8929 35.6387H28.1576ZM48.151 40.9288L47.6351 40.193C47.7673 40.1616 47.8845 40.0853 47.9667 39.977C48.0488 39.8688 48.0908 39.7354 48.0854 39.5996C48.0854 39.1932 47.7668 38.9846 47.3382 38.9846H46.4598V40.9288H46.8331V40.2591H47.2395L47.7007 40.9288H48.151ZM47.3057 39.314C47.5582 39.314 47.7007 39.424 47.7007 39.6327C47.7007 39.8196 47.5582 39.9513 47.3057 39.9513H46.8331V39.314H47.3057ZM49.1183 39.9952V39.9844C49.1219 39.7306 49.0749 39.4786 48.9801 39.2432C48.8853 39.0078 48.7446 38.7936 48.5662 38.6131C48.3877 38.4326 48.1751 38.2895 47.9408 38.192C47.7065 38.0945 47.4551 38.0447 47.2013 38.0454C46.9475 38.0461 46.6963 38.0974 46.4626 38.1962C46.2288 38.295 46.017 38.4393 45.8396 38.6208C45.6622 38.8023 45.5227 39.0173 45.4292 39.2533C45.3358 39.4892 45.2902 39.7414 45.2953 39.9952V40.006C45.2917 40.2598 45.3386 40.5117 45.4334 40.7472C45.5282 40.9826 45.6689 41.1968 45.8474 41.3773C46.0258 41.5578 46.2384 41.7009 46.4727 41.7984C46.7071 41.8958 46.9585 41.9456 47.2123 41.9449C47.4661 41.9442 47.7172 41.893 47.951 41.7942C48.1847 41.6954 48.3965 41.551 48.5739 41.3696C48.7514 41.1881 48.8909 40.9731 48.9843 40.7371C49.0778 40.5011 49.1233 40.2489 49.1183 39.9952ZM48.3989 38.7897C48.7172 39.1059 48.8968 39.5357 48.8982 39.9844V39.9952C48.8997 40.4439 48.7228 40.8747 48.4066 41.193C48.0903 41.5113 47.6606 41.6909 47.2119 41.6924C46.7632 41.6938 46.3323 41.5169 46.014 41.2007C45.6958 40.8844 45.5162 40.4547 45.5147 40.006V39.9952C45.5133 39.5465 45.6901 39.1156 46.0064 38.7973C46.3226 38.4791 46.7524 38.2994 47.2011 38.298C47.6497 38.2966 48.0806 38.4734 48.3989 38.7897Z" fill="#1576D4"/>
</g>
<defs>
<clipPath id="clip0_56680_5422">
<rect width="57" height="57" fill="white"/>
</clipPath>
</defs>
</svg>
