<svg width="327" height="92" viewBox="0 0 327 92" fill="none" xmlns="http://www.w3.org/2000/svg">
<g clip-path="url(#clip0_4998_488)">
<path d="M59.1096 88.52C54.7696 88.52 54.3596 85.28 54.3596 76.7V48.79C54.3596 42.47 51.7396 27.79 27.4896 27.79C14.0096 27.79 7.08962 35.47 5.12962 40.03C3.96962 42.82 4.00962 45.74 5.23962 48.03C6.19962 49.83 7.81962 51.08 9.68962 51.45C11.9396 51.9 14.0396 51.27 15.4496 49.73C16.7996 48.25 17.2896 46.13 16.7196 44.21C16.3196 42.79 15.4796 41.68 14.7396 40.7C13.4596 38.99 12.7696 37.94 13.5396 36.18C15.3296 32.48 20.4096 30.28 27.1296 30.28C29.3396 30.28 30.9296 30.8 31.9896 31.87C34.3196 34.2 34.2996 39.34 34.2796 45.28V57.65C33.2196 58.4 31.7796 59.11 29.8096 59.84C26.8196 60.86 23.4696 61.51 20.2296 62.15C10.5196 64.04 0.489618 66 0.00961762 77.86C-0.150382 82.28 1.34962 85.74 4.46962 88.13C7.61962 90.55 12.0296 91.5 16.3896 91.5C19.4896 91.5 22.5596 91.02 25.1196 90.23C29.3496 89.02 32.7796 86.2 35.3696 81.83C37.9296 88.15 45.2096 91.35 57.0696 91.35C59.4496 91.35 62.0396 90.73 63.6796 89.78L64.1796 89.49V86.12L62.5596 87.42C62.1196 87.76 60.6596 88.52 59.1096 88.52ZM20.9296 87.55C18.7396 86.09 17.7996 81.71 18.2996 75.21C18.8996 66.13 23.8796 64.42 29.1596 62.62C29.7996 62.4 30.4396 62.18 31.0696 61.95C32.3196 61.48 33.3896 61.03 34.2696 60.58V76.1C34.2696 76.9 34.3696 77.58 34.4696 78.23C32.3496 82.63 29.7296 85.52 26.4296 87.07C24.0896 88.26 22.2396 88.42 20.9296 87.55Z" fill="#214E41"/>
<path d="M134.97 75.5V50.83C134.97 35.97 127.09 27.79 112.77 27.79C105.46 27.79 100.5 29.68 96.4699 34.18C96.8699 31.94 97.2999 31.48 97.2899 31.48L97.8399 31.2V28.98H68.1699V31.58H69.1699C74.5499 31.58 75.7199 33.72 75.7199 43.64V75.38C75.7199 85.39 74.5599 87.56 69.1699 87.56H68.1699V90.16H103.35V87.56H102.35C96.9699 87.56 95.7999 85.4 95.7999 75.38V48.55C95.7999 44.72 95.7999 41.68 96.0199 39.13C98.5499 34.32 103.39 30.98 107.86 30.98C109.71 30.98 111.13 31.5 112.2 32.57C115.05 35.42 115.03 41.74 115.01 47.32V75.37C114.89 85.39 113.72 87.56 108.46 87.56H107.46V90.16H142.52V87.56H141.52C136.2 87.56 134.97 85.31 134.97 75.5Z" fill="#214E41"/>
<path d="M176.649 49.05C169.579 45.95 163.479 43.28 163.479 38.37C163.479 33.22 166.659 30.39 172.419 30.39C176.939 30.39 181.219 31.82 183.289 34.01C184.629 35.51 184.189 36.56 183.159 38.6C182.609 39.69 181.989 40.92 181.839 42.38C181.709 44.29 182.559 46.12 184.119 47.27C185.739 48.47 187.809 48.76 189.629 48.06C191.239 47.51 192.439 46.27 193.009 44.58C193.829 42.16 193.289 39.19 191.569 36.61C189.349 33.33 182.299 27.79 170.019 27.79C156.899 27.79 148.389 34.12 147.819 44.31C147.059 57.78 158.219 62.6 168.059 66.84C175.959 70.25 182.779 73.19 182.439 79.76C182.129 85.31 177.179 88.76 169.539 88.76C163.179 88.76 158.299 86.41 156.259 84.05C154.849 82.53 155.339 81.47 156.489 79.41C157.129 78.26 157.859 76.96 157.959 75.46C158.099 73.53 157.309 71.68 155.849 70.52C154.329 69.31 152.269 68.99 150.169 69.65C148.649 70.18 147.499 71.43 146.929 73.19C146.109 75.71 146.659 78.79 148.349 81.22C149.489 82.89 155.879 91.24 170.379 91.24C185.489 91.24 195.779 84.57 197.239 73.84C199.229 58.95 186.709 53.46 176.649 49.05Z" fill="#214E41"/>
<path d="M268.299 50.27L268.159 49.14C266.349 34.88 255.339 27.15 238.019 27.9C227.479 28.36 217.859 32.52 211.639 39.31C206.249 45.19 203.609 52.92 203.999 61.65C204.359 69.7 207.439 76.41 213.169 81.58C220.009 87.76 230.389 91.31 241.369 91.31C242.319 91.31 243.269 91.28 244.219 91.23C251.349 90.84 258.239 88.57 264.699 84.49L265.169 84.2V79.9L263.479 81.49C259.749 85 251.049 88.76 244.049 88.76C235.269 88.68 225.349 81.43 223.839 61.28C223.509 57.63 223.929 53.63 224.329 50.27H268.299ZM238.119 30.39C240.589 30.22 242.599 30.87 244.239 32.36C247.159 35 248.829 40.23 249.229 47.92H224.609C225.719 41.1 228.929 30.88 238.119 30.39Z" fill="#214E41"/>
<path d="M299.069 75.38V19.57C299.069 4.65 299.679 3.07 300.549 2.5L301.099 2.22V0H271.549V2.6H272.549C277.809 2.6 278.969 4.74 279.099 14.66V75.38C278.979 85.4 277.809 87.57 272.549 87.57H271.549V90.17H306.609V87.57H305.609C300.289 87.56 299.069 85.29 299.069 75.38Z" fill="#214E41"/>
<path d="M318.43 75.7C314.19 75.7 310.6 79.28 310.6 83.53C310.6 87.85 314.11 91.36 318.43 91.36C322.82 91.36 326.26 87.92 326.26 83.53C326.26 79.21 322.74 75.7 318.43 75.7Z" fill="#F0A446"/>
</g>
<defs>
<clipPath id="clip0_4998_488">
<rect width="326.26" height="91.51" fill="white"/>
</clipPath>
</defs>
</svg>
