<svg width="384" height="98" viewBox="0 0 384 98" fill="none" xmlns="http://www.w3.org/2000/svg">
<rect x="7.13269" y="0.263428" width="376.645" height="84.5337" rx="42.2668" fill="#1D1D1D"/>
<path d="M14.4432 68.8056C15.7269 66.2524 18.7185 65.0643 21.4041 66.0409L26.3976 67.8569C26.6838 67.9609 26.9779 68.0416 27.2771 68.0982L50.5612 72.4983C50.7381 72.5318 50.9178 72.5486 51.0978 72.5486C54.3266 72.5486 55.1245 77.0389 52.0934 78.1513L13.5395 92.3001C8.7435 94.0602 4.26804 89.0423 6.563 84.478L14.4432 68.8056Z" fill="#1D1D1D"/>
<path d="M41.0213 26.0637C41.0213 26.0011 41.0401 25.951 41.0777 25.9134C41.1278 25.8633 41.1841 25.8383 41.2467 25.8383H42.975C43.0376 25.8383 43.0877 25.8633 43.1253 25.9134C43.1754 25.951 43.2004 26.0011 43.2004 26.0637V38.7625C43.2004 38.8251 43.1754 38.8815 43.1253 38.9316C43.0877 38.9692 43.0376 38.9879 42.975 38.9879H41.2467C41.1841 38.9879 41.1278 38.9692 41.0777 38.9316C41.0401 38.8815 41.0213 38.8251 41.0213 38.7625V33.3899C41.0213 33.3273 40.99 33.296 40.9274 33.296H36.1371C36.0745 33.296 36.0432 33.3273 36.0432 33.3899V38.7625C36.0432 38.8251 36.0182 38.8815 35.9681 38.9316C35.9305 38.9692 35.8804 38.9879 35.8178 38.9879H34.0895C34.0269 38.9879 33.9706 38.9692 33.9205 38.9316C33.8829 38.8815 33.8641 38.8251 33.8641 38.7625V26.0637C33.8641 26.0011 33.8829 25.951 33.9205 25.9134C33.9706 25.8633 34.0269 25.8383 34.0895 25.8383H35.8178C35.8804 25.8383 35.9305 25.8633 35.9681 25.9134C36.0182 25.951 36.0432 26.0011 36.0432 26.0637V31.3236C36.0432 31.3862 36.0745 31.4175 36.1371 31.4175H40.9274C40.99 31.4175 41.0213 31.3862 41.0213 31.3236V26.0637ZM49.6948 39.1382C48.7055 39.1382 47.8539 38.8878 47.14 38.3868C46.4387 37.8859 45.944 37.1908 45.656 36.3017C45.4431 35.6254 45.3366 34.9115 45.3366 34.1601C45.3366 33.3586 45.4368 32.6448 45.6372 32.0186C45.9252 31.142 46.4262 30.4594 47.14 29.971C47.8539 29.4826 48.7117 29.2384 49.7136 29.2384C50.6654 29.2384 51.4857 29.4826 52.1745 29.971C52.8758 30.4594 53.3705 31.1357 53.6585 31.9998C53.8839 32.601 53.9966 33.3148 53.9966 34.1413C53.9966 34.9303 53.8902 35.6442 53.6773 36.2829C53.3893 37.172 52.8946 37.8734 52.1933 38.3868C51.4919 38.8878 50.6591 39.1382 49.6948 39.1382ZM49.6948 37.2597C50.1582 37.2597 50.5527 37.1282 50.8783 36.8652C51.2164 36.6022 51.4606 36.2328 51.6109 35.7569C51.7361 35.3436 51.7988 34.8176 51.7988 34.1789C51.7988 33.5026 51.7361 32.9767 51.6109 32.601C51.4732 32.1251 51.2352 31.7619 50.8971 31.5114C50.5589 31.2484 50.1457 31.1169 49.6572 31.1169C49.1939 31.1169 48.7931 31.2484 48.455 31.5114C48.1169 31.7619 47.8726 32.1251 47.7224 32.601C47.5971 33.0393 47.5345 33.5653 47.5345 34.1789C47.5345 34.7926 47.5971 35.3186 47.7224 35.7569C47.8601 36.2328 48.0981 36.6022 48.4362 36.8652C48.7869 37.1282 49.2064 37.2597 49.6948 37.2597ZM57.8528 38.9879C57.715 38.9879 57.6273 38.9253 57.5898 38.8001L54.9035 29.6329L54.8847 29.5577C54.8847 29.4325 54.9536 29.3699 55.0913 29.3699H56.8759C57.0137 29.3699 57.1013 29.4325 57.1389 29.5577L58.6981 35.832C58.7106 35.8696 58.7294 35.8884 58.7544 35.8884C58.7795 35.8884 58.7983 35.8696 58.8108 35.832L60.4451 29.5577C60.4827 29.4325 60.5704 29.3699 60.7081 29.3699H62.2673C62.4051 29.3699 62.4927 29.4325 62.5303 29.5577L64.2022 35.832C64.2147 35.8696 64.2335 35.8884 64.2585 35.8884C64.2836 35.8884 64.3024 35.8696 64.3149 35.832L65.9868 29.5577C66.0243 29.4325 66.112 29.3699 66.2498 29.3699L68.0156 29.4075C68.0907 29.4075 68.1408 29.4325 68.1659 29.4826C68.2034 29.5202 68.216 29.5765 68.2034 29.6517L65.4984 38.8001C65.4608 38.9253 65.3794 38.9879 65.2541 38.9879H63.4508C63.313 38.9879 63.2253 38.9253 63.1878 38.8001L61.5347 33.0706C61.5221 33.033 61.5034 33.0142 61.4783 33.0142C61.4533 33.0142 61.4345 33.033 61.422 33.0706L59.9003 38.8001C59.8628 38.9253 59.7751 38.9879 59.6374 38.9879H57.8528ZM83.9067 29.2384C84.8711 29.2384 85.6225 29.5327 86.161 30.1213C86.712 30.6974 86.9875 31.5051 86.9875 32.5446V38.7625C86.9875 38.8251 86.9625 38.8815 86.9124 38.9316C86.8748 38.9692 86.8247 38.9879 86.7621 38.9879H85.0526C84.99 38.9879 84.9337 38.9692 84.8836 38.9316C84.846 38.8815 84.8272 38.8251 84.8272 38.7625V32.9954C84.8272 32.4194 84.6707 31.9623 84.3576 31.6241C84.057 31.286 83.65 31.1169 83.1365 31.1169C82.6231 31.1169 82.2035 31.286 81.8779 31.6241C81.5523 31.9623 81.3895 32.4131 81.3895 32.9767V38.7625C81.3895 38.8251 81.3645 38.8815 81.3144 38.9316C81.2768 38.9692 81.2267 38.9879 81.1641 38.9879H79.4546C79.392 38.9879 79.3357 38.9692 79.2856 38.9316C79.248 38.8815 79.2292 38.8251 79.2292 38.7625V32.9954C79.2292 32.4194 79.0727 31.9623 78.7596 31.6241C78.4465 31.286 78.0332 31.1169 77.5198 31.1169C77.0439 31.1169 76.6494 31.2547 76.3363 31.5302C76.0357 31.8057 75.8604 32.1814 75.8103 32.6573V38.7625C75.8103 38.8251 75.7852 38.8815 75.7352 38.9316C75.6976 38.9692 75.6475 38.9879 75.5849 38.9879H73.8566C73.794 38.9879 73.7377 38.9692 73.6876 38.9316C73.65 38.8815 73.6312 38.8251 73.6312 38.7625V29.6141C73.6312 29.5515 73.65 29.5014 73.6876 29.4638C73.7377 29.4137 73.794 29.3887 73.8566 29.3887H75.5849C75.6475 29.3887 75.6976 29.4137 75.7352 29.4638C75.7852 29.5014 75.8103 29.5515 75.8103 29.6141V30.234C75.8103 30.2716 75.8228 30.2966 75.8479 30.3092C75.8729 30.3217 75.898 30.3092 75.923 30.2716C76.1985 29.9209 76.5367 29.6642 76.9374 29.5014C77.3507 29.3261 77.8078 29.2384 78.3087 29.2384C78.9224 29.2384 79.4609 29.3636 79.9243 29.6141C80.3876 29.8646 80.7446 30.2278 80.995 30.7036C81.0326 30.7537 81.0764 30.7537 81.1265 30.7036C81.402 30.2027 81.784 29.8333 82.2724 29.5953C82.7608 29.3574 83.3056 29.2384 83.9067 29.2384ZM94.8792 29.6141C94.8792 29.5515 94.898 29.5014 94.9356 29.4638C94.9857 29.4137 95.0421 29.3887 95.1047 29.3887H96.8141C96.8767 29.3887 96.9268 29.4137 96.9644 29.4638C97.0145 29.5014 97.0396 29.5515 97.0396 29.6141V38.7625C97.0396 38.8251 97.0145 38.8815 96.9644 38.9316C96.9268 38.9692 96.8767 38.9879 96.8141 38.9879H95.1047C95.0421 38.9879 94.9857 38.9692 94.9356 38.9316C94.898 38.8815 94.8792 38.8251 94.8792 38.7625V38.1614C94.8792 38.1238 94.8667 38.0988 94.8417 38.0863C94.8166 38.0737 94.7916 38.0863 94.7665 38.1238C94.2531 38.7876 93.4829 39.1194 92.4559 39.1194C91.5042 39.1194 90.7027 38.8439 90.0514 38.2929C89.4127 37.7419 89.0934 36.9591 89.0934 35.9447V29.6141C89.0934 29.5515 89.1122 29.5014 89.1497 29.4638C89.1998 29.4137 89.2562 29.3887 89.3188 29.3887H91.0471C91.1097 29.3887 91.1598 29.4137 91.1973 29.4638C91.2474 29.5014 91.2725 29.5515 91.2725 29.6141V35.3248C91.2725 35.9134 91.4228 36.3831 91.7233 36.7337C92.0364 37.0844 92.4685 37.2597 93.0195 37.2597C93.5831 37.2597 94.0339 37.0844 94.372 36.7337C94.7102 36.3831 94.8792 35.9134 94.8792 35.3248V29.6141ZM103.37 39.1382C102.406 39.1382 101.573 38.894 100.872 38.4056C100.171 37.9047 99.6823 37.2347 99.4068 36.3956C99.2064 35.832 99.1062 35.0806 99.1062 34.1413C99.1062 33.2397 99.2064 32.5008 99.4068 31.9247C99.6698 31.0981 100.152 30.4469 100.853 29.971C101.567 29.4826 102.406 29.2384 103.37 29.2384C104.347 29.2384 105.199 29.4826 105.925 29.971C106.652 30.4594 107.134 31.0731 107.372 31.812C107.434 32.0124 107.478 32.2127 107.503 32.4131V32.4507C107.503 32.5759 107.434 32.651 107.297 32.6761L105.606 32.9203H105.568C105.456 32.9203 105.38 32.8577 105.343 32.7325C105.343 32.6698 105.337 32.6197 105.324 32.5822C105.299 32.482 105.274 32.3943 105.249 32.3192C105.136 31.9685 104.911 31.6805 104.573 31.4551C104.235 31.2296 103.834 31.1169 103.37 31.1169C102.895 31.1169 102.488 31.2422 102.149 31.4926C101.824 31.7306 101.605 32.0624 101.492 32.4882C101.367 32.889 101.304 33.4463 101.304 34.1601C101.304 34.8489 101.36 35.4062 101.473 35.832C101.598 36.2703 101.824 36.621 102.149 36.884C102.475 37.1345 102.882 37.2597 103.37 37.2597C103.846 37.2597 104.253 37.1407 104.592 36.9028C104.942 36.6523 105.168 36.3204 105.268 35.9072C105.28 35.8821 105.287 35.8508 105.287 35.8132C105.299 35.8007 105.305 35.7819 105.305 35.7569C105.343 35.6066 105.431 35.544 105.568 35.569L107.259 35.832C107.322 35.8445 107.372 35.8759 107.409 35.9259C107.459 35.9635 107.478 36.0199 107.466 36.095C107.428 36.2954 107.397 36.4394 107.372 36.5271C107.134 37.3286 106.652 37.9673 105.925 38.4432C105.199 38.9065 104.347 39.1382 103.37 39.1382ZM113.951 29.2384C114.966 29.2384 115.773 29.539 116.375 30.1401C116.988 30.7412 117.295 31.5615 117.295 32.601V38.7625C117.295 38.8251 117.27 38.8815 117.22 38.9316C117.182 38.9692 117.132 38.9879 117.07 38.9879H115.341C115.279 38.9879 115.222 38.9692 115.172 38.9316C115.135 38.8815 115.116 38.8251 115.116 38.7625V33.0518C115.116 32.4757 114.953 32.0124 114.628 31.6617C114.302 31.2985 113.87 31.1169 113.331 31.1169C112.793 31.1169 112.355 31.2922 112.016 31.6429C111.691 31.9936 111.528 32.4569 111.528 33.033V38.7625C111.528 38.8251 111.503 38.8815 111.453 38.9316C111.415 38.9692 111.365 38.9879 111.303 38.9879H109.574C109.512 38.9879 109.455 38.9692 109.405 38.9316C109.368 38.8815 109.349 38.8251 109.349 38.7625V26.0637C109.349 26.0011 109.368 25.951 109.405 25.9134C109.455 25.8633 109.512 25.8383 109.574 25.8383H111.303C111.365 25.8383 111.415 25.8633 111.453 25.9134C111.503 25.951 111.528 26.0011 111.528 26.0637V30.2152C111.528 30.2528 111.54 30.2778 111.566 30.2904C111.591 30.3029 111.609 30.2904 111.622 30.2528C112.135 29.5765 112.912 29.2384 113.951 29.2384ZM128.419 30.9291C128.419 30.9917 128.394 31.048 128.343 31.0981C128.306 31.1357 128.256 31.1545 128.193 31.1545H126.277C126.214 31.1545 126.183 31.1858 126.183 31.2484V35.7757C126.183 36.2516 126.283 36.596 126.484 36.8089C126.697 37.0218 127.028 37.1282 127.479 37.1282H128.043C128.105 37.1282 128.156 37.1533 128.193 37.2033C128.243 37.2409 128.268 37.291 128.268 37.3536V38.7625C128.268 38.9003 128.193 38.9817 128.043 39.0067L127.066 39.0255C126.077 39.0255 125.338 38.8564 124.849 38.5183C124.361 38.1802 124.11 37.5415 124.098 36.6022V31.2484C124.098 31.1858 124.067 31.1545 124.004 31.1545H122.933C122.871 31.1545 122.814 31.1357 122.764 31.0981C122.727 31.048 122.708 30.9917 122.708 30.9291V29.6141C122.708 29.5515 122.727 29.5014 122.764 29.4638C122.814 29.4137 122.871 29.3887 122.933 29.3887H124.004C124.067 29.3887 124.098 29.3574 124.098 29.2947V27.0969C124.098 27.0343 124.117 26.9842 124.154 26.9466C124.204 26.8965 124.261 26.8715 124.323 26.8715H125.958C126.02 26.8715 126.07 26.8965 126.108 26.9466C126.158 26.9842 126.183 27.0343 126.183 27.0969V29.2947C126.183 29.3574 126.214 29.3887 126.277 29.3887H128.193C128.256 29.3887 128.306 29.4137 128.343 29.4638C128.394 29.5014 128.419 29.5515 128.419 29.6141V30.9291ZM131.594 28.0737C131.205 28.0737 130.886 27.9485 130.636 27.698C130.385 27.4475 130.26 27.1282 130.26 26.74C130.26 26.3517 130.385 26.0324 130.636 25.7819C130.886 25.5314 131.205 25.4062 131.594 25.4062C131.982 25.4062 132.301 25.5314 132.552 25.7819C132.802 26.0324 132.927 26.3517 132.927 26.74C132.927 27.1282 132.802 27.4475 132.552 27.698C132.301 27.9485 131.982 28.0737 131.594 28.0737ZM130.692 38.9879C130.629 38.9879 130.573 38.9692 130.523 38.9316C130.485 38.8815 130.467 38.8251 130.467 38.7625V29.5953C130.467 29.5327 130.485 29.4826 130.523 29.445C130.573 29.3949 130.629 29.3699 130.692 29.3699H132.42C132.483 29.3699 132.533 29.3949 132.571 29.445C132.621 29.4826 132.646 29.5327 132.646 29.5953V38.7625C132.646 38.8251 132.621 38.8815 132.571 38.9316C132.533 38.9692 132.483 38.9879 132.42 38.9879H130.692ZM145.417 29.2384C146.382 29.2384 147.133 29.5327 147.672 30.1213C148.223 30.6974 148.498 31.5051 148.498 32.5446V38.7625C148.498 38.8251 148.473 38.8815 148.423 38.9316C148.386 38.9692 148.335 38.9879 148.273 38.9879H146.563C146.501 38.9879 146.444 38.9692 146.394 38.9316C146.357 38.8815 146.338 38.8251 146.338 38.7625V32.9954C146.338 32.4194 146.181 31.9623 145.868 31.6241C145.568 31.286 145.161 31.1169 144.647 31.1169C144.134 31.1169 143.714 31.286 143.389 31.6241C143.063 31.9623 142.9 32.4131 142.9 32.9767V38.7625C142.9 38.8251 142.875 38.8815 142.825 38.9316C142.788 38.9692 142.737 38.9879 142.675 38.9879H140.965C140.903 38.9879 140.846 38.9692 140.796 38.9316C140.759 38.8815 140.74 38.8251 140.74 38.7625V32.9954C140.74 32.4194 140.583 31.9623 140.27 31.6241C139.957 31.286 139.544 31.1169 139.03 31.1169C138.555 31.1169 138.16 31.2547 137.847 31.5302C137.546 31.8057 137.371 32.1814 137.321 32.6573V38.7625C137.321 38.8251 137.296 38.8815 137.246 38.9316C137.208 38.9692 137.158 38.9879 137.096 38.9879H135.367C135.305 38.9879 135.248 38.9692 135.198 38.9316C135.161 38.8815 135.142 38.8251 135.142 38.7625V29.6141C135.142 29.5515 135.161 29.5014 135.198 29.4638C135.248 29.4137 135.305 29.3887 135.367 29.3887H137.096C137.158 29.3887 137.208 29.4137 137.246 29.4638C137.296 29.5014 137.321 29.5515 137.321 29.6141V30.234C137.321 30.2716 137.334 30.2966 137.359 30.3092C137.384 30.3217 137.409 30.3092 137.434 30.2716C137.709 29.9209 138.047 29.6642 138.448 29.5014C138.861 29.3261 139.319 29.2384 139.819 29.2384C140.433 29.2384 140.972 29.3636 141.435 29.6141C141.898 29.8646 142.255 30.2278 142.506 30.7036C142.543 30.7537 142.587 30.7537 142.637 30.7036C142.913 30.2027 143.295 29.8333 143.783 29.5953C144.272 29.3574 144.816 29.2384 145.417 29.2384ZM158.74 33.1082C158.79 33.4212 158.815 33.7719 158.815 34.1601L158.796 34.7425C158.796 34.8928 158.721 34.9679 158.571 34.9679H152.691C152.628 34.9679 152.597 34.9992 152.597 35.0618C152.635 35.4751 152.691 35.7569 152.766 35.9072C153.067 36.8089 153.799 37.266 154.964 37.2785C155.816 37.2785 156.492 36.9278 156.993 36.2265C157.043 36.1514 157.106 36.1138 157.181 36.1138C157.231 36.1138 157.275 36.1326 157.312 36.1702L158.477 37.1282C158.59 37.2159 158.608 37.3161 158.533 37.4288C158.145 37.9798 157.625 38.4056 156.974 38.7062C156.335 39.0067 155.622 39.157 154.833 39.157C153.856 39.157 153.023 38.9379 152.334 38.4995C151.658 38.0612 151.163 37.4476 150.85 36.6586C150.562 35.9823 150.418 35.043 150.418 33.8408C150.418 33.1144 150.493 32.5258 150.643 32.075C150.894 31.1983 151.364 30.5095 152.052 30.0086C152.754 29.4951 153.593 29.2384 154.57 29.2384C157.037 29.2384 158.427 30.5283 158.74 33.1082ZM154.57 31.1169C154.106 31.1169 153.718 31.2359 153.405 31.4738C153.104 31.6993 152.891 32.0186 152.766 32.4319C152.691 32.6448 152.641 32.9203 152.616 33.2584C152.591 33.3211 152.616 33.3524 152.691 33.3524H156.504C156.567 33.3524 156.598 33.3211 156.598 33.2584C156.573 32.9454 156.536 32.7074 156.486 32.5446C156.373 32.0938 156.148 31.7431 155.809 31.4926C155.484 31.2422 155.071 31.1169 154.57 31.1169ZM170.522 26.0637C170.522 26.0011 170.541 25.951 170.579 25.9134C170.629 25.8633 170.685 25.8383 170.748 25.8383H172.476C172.539 25.8383 172.589 25.8633 172.626 25.9134C172.676 25.951 172.701 26.0011 172.701 26.0637V38.7625C172.701 38.8251 172.676 38.8815 172.626 38.9316C172.589 38.9692 172.539 38.9879 172.476 38.9879H170.748C170.685 38.9879 170.629 38.9692 170.579 38.9316C170.541 38.8815 170.522 38.8251 170.522 38.7625V38.199C170.522 38.1614 170.51 38.1363 170.485 38.1238C170.46 38.1113 170.435 38.1238 170.41 38.1614C169.858 38.8126 169.138 39.1382 168.249 39.1382C167.36 39.1382 166.609 38.9065 165.995 38.4432C165.381 37.9798 164.937 37.3348 164.661 36.5083C164.436 35.807 164.323 35.0243 164.323 34.1601C164.323 33.271 164.43 32.507 164.642 31.8683C164.918 31.0418 165.363 30.3968 165.976 29.9334C166.59 29.4701 167.36 29.2384 168.287 29.2384C169.151 29.2384 169.858 29.5515 170.41 30.1777C170.435 30.2027 170.46 30.2152 170.485 30.2152C170.51 30.2027 170.522 30.1777 170.522 30.1401V26.0637ZM170.071 36.358C170.359 35.8445 170.503 35.1182 170.503 34.1789C170.503 33.2021 170.347 32.4569 170.034 31.9435C169.696 31.3924 169.22 31.1169 168.606 31.1169C167.967 31.1169 167.466 31.3799 167.103 31.9059C166.728 32.4569 166.54 33.2209 166.54 34.1977C166.54 35.0743 166.69 35.7945 166.991 36.358C167.341 36.9591 167.873 37.2597 168.587 37.2597C169.226 37.2597 169.721 36.9591 170.071 36.358ZM179.137 39.1382C178.148 39.1382 177.296 38.8878 176.582 38.3868C175.881 37.8859 175.386 37.1908 175.098 36.3017C174.885 35.6254 174.779 34.9115 174.779 34.1601C174.779 33.3586 174.879 32.6448 175.079 32.0186C175.367 31.142 175.868 30.4594 176.582 29.971C177.296 29.4826 178.154 29.2384 179.156 29.2384C180.108 29.2384 180.928 29.4826 181.617 29.971C182.318 30.4594 182.813 31.1357 183.101 31.9998C183.326 32.601 183.439 33.3148 183.439 34.1413C183.439 34.9303 183.332 35.6442 183.119 36.2829C182.831 37.172 182.337 37.8734 181.635 38.3868C180.934 38.8878 180.101 39.1382 179.137 39.1382ZM179.137 37.2597C179.6 37.2597 179.995 37.1282 180.32 36.8652C180.659 36.6022 180.903 36.2328 181.053 35.7569C181.178 35.3436 181.241 34.8176 181.241 34.1789C181.241 33.5026 181.178 32.9767 181.053 32.601C180.915 32.1251 180.677 31.7619 180.339 31.5114C180.001 31.2484 179.588 31.1169 179.099 31.1169C178.636 31.1169 178.235 31.2484 177.897 31.5114C177.559 31.7619 177.315 32.1251 177.165 32.601C177.039 33.0393 176.977 33.5653 176.977 34.1789C176.977 34.7926 177.039 35.3186 177.165 35.7569C177.302 36.2328 177.54 36.6022 177.878 36.8652C178.229 37.1282 178.649 37.2597 179.137 37.2597ZM189.072 42.7262C189.034 42.7262 189.003 42.7012 188.978 42.6511C188.953 42.6135 188.94 42.5634 188.94 42.5008V41.1483C188.94 41.0856 188.959 41.0293 188.997 40.9792C189.047 40.9416 189.103 40.9228 189.166 40.9228H189.185C189.698 40.9103 190.099 40.8539 190.387 40.7538C190.675 40.6661 190.913 40.4908 191.101 40.2278C191.288 39.9648 191.458 39.5703 191.608 39.0443C191.62 39.0193 191.62 38.9817 191.608 38.9316L188.508 29.6329C188.496 29.6078 188.489 29.5765 188.489 29.539C188.489 29.4262 188.552 29.3699 188.677 29.3699H190.518C190.656 29.3699 190.744 29.4325 190.781 29.5577L192.66 36.1702C192.672 36.2077 192.691 36.2265 192.716 36.2265C192.741 36.2265 192.76 36.2077 192.772 36.1702L194.651 29.5577C194.689 29.4325 194.776 29.3699 194.914 29.3699H196.699C196.774 29.3699 196.824 29.3949 196.849 29.445C196.886 29.4826 196.893 29.5452 196.868 29.6329L193.561 39.5139C193.248 40.4031 192.942 41.0668 192.641 41.5052C192.34 41.9435 191.927 42.2566 191.401 42.4444C190.888 42.6323 190.155 42.7262 189.203 42.7262H189.072ZM202.013 39.1382C201.024 39.1382 200.172 38.8878 199.458 38.3868C198.757 37.8859 198.262 37.1908 197.974 36.3017C197.761 35.6254 197.655 34.9115 197.655 34.1601C197.655 33.3586 197.755 32.6448 197.956 32.0186C198.244 31.142 198.745 30.4594 199.458 29.971C200.172 29.4826 201.03 29.2384 202.032 29.2384C202.984 29.2384 203.804 29.4826 204.493 29.971C205.194 30.4594 205.689 31.1357 205.977 31.9998C206.202 32.601 206.315 33.3148 206.315 34.1413C206.315 34.9303 206.209 35.6442 205.996 36.2829C205.708 37.172 205.213 37.8734 204.512 38.3868C203.81 38.8878 202.978 39.1382 202.013 39.1382ZM202.013 37.2597C202.477 37.2597 202.871 37.1282 203.197 36.8652C203.535 36.6022 203.779 36.2328 203.929 35.7569C204.055 35.3436 204.117 34.8176 204.117 34.1789C204.117 33.5026 204.055 32.9767 203.929 32.601C203.792 32.1251 203.554 31.7619 203.215 31.5114C202.877 31.2484 202.464 31.1169 201.976 31.1169C201.512 31.1169 201.112 31.2484 200.773 31.5114C200.435 31.7619 200.191 32.1251 200.041 32.601C199.916 33.0393 199.853 33.5653 199.853 34.1789C199.853 34.7926 199.916 35.3186 200.041 35.7569C200.179 36.2328 200.416 36.6022 200.755 36.8652C201.105 37.1282 201.525 37.2597 202.013 37.2597ZM214.048 29.6141C214.048 29.5515 214.067 29.5014 214.105 29.4638C214.155 29.4137 214.211 29.3887 214.274 29.3887H215.983C216.046 29.3887 216.096 29.4137 216.133 29.4638C216.184 29.5014 216.209 29.5515 216.209 29.6141V38.7625C216.209 38.8251 216.184 38.8815 216.133 38.9316C216.096 38.9692 216.046 38.9879 215.983 38.9879H214.274C214.211 38.9879 214.155 38.9692 214.105 38.9316C214.067 38.8815 214.048 38.8251 214.048 38.7625V38.1614C214.048 38.1238 214.036 38.0988 214.011 38.0863C213.986 38.0737 213.961 38.0863 213.936 38.1238C213.422 38.7876 212.652 39.1194 211.625 39.1194C210.673 39.1194 209.872 38.8439 209.22 38.2929C208.582 37.7419 208.262 36.9591 208.262 35.9447V29.6141C208.262 29.5515 208.281 29.5014 208.319 29.4638C208.369 29.4137 208.425 29.3887 208.488 29.3887H210.216C210.279 29.3887 210.329 29.4137 210.366 29.4638C210.416 29.5014 210.441 29.5515 210.441 29.6141V35.3248C210.441 35.9134 210.592 36.3831 210.892 36.7337C211.205 37.0844 211.637 37.2597 212.189 37.2597C212.752 37.2597 213.203 37.0844 213.541 36.7337C213.879 36.3831 214.048 35.9134 214.048 35.3248V29.6141ZM226.901 29.2384C227.916 29.2384 228.724 29.539 229.325 30.1401C229.938 30.7412 230.245 31.5615 230.245 32.601V38.7625C230.245 38.8251 230.22 38.8815 230.17 38.9316C230.132 38.9692 230.082 38.9879 230.02 38.9879H228.291C228.229 38.9879 228.172 38.9692 228.122 38.9316C228.085 38.8815 228.066 38.8251 228.066 38.7625V33.0518C228.066 32.4757 227.903 32.0124 227.578 31.6617C227.252 31.2985 226.82 31.1169 226.281 31.1169C225.743 31.1169 225.305 31.2922 224.966 31.6429C224.641 31.9936 224.478 32.4569 224.478 33.033V38.7625C224.478 38.8251 224.453 38.8815 224.403 38.9316C224.365 38.9692 224.315 38.9879 224.253 38.9879H222.524C222.462 38.9879 222.405 38.9692 222.355 38.9316C222.318 38.8815 222.299 38.8251 222.299 38.7625V29.6141C222.299 29.5515 222.318 29.5014 222.355 29.4638C222.405 29.4137 222.462 29.3887 222.524 29.3887H224.253C224.315 29.3887 224.365 29.4137 224.403 29.4638C224.453 29.5014 224.478 29.5515 224.478 29.6141V30.2152C224.478 30.2528 224.491 30.2778 224.516 30.2904C224.541 30.3029 224.559 30.2904 224.572 30.2528C225.085 29.5765 225.862 29.2384 226.901 29.2384ZM240.54 33.1082C240.59 33.4212 240.615 33.7719 240.615 34.1601L240.597 34.7425C240.597 34.8928 240.521 34.9679 240.371 34.9679H234.491C234.429 34.9679 234.397 34.9992 234.397 35.0618C234.435 35.4751 234.491 35.7569 234.566 35.9072C234.867 36.8089 235.6 37.266 236.764 37.2785C237.616 37.2785 238.292 36.9278 238.793 36.2265C238.843 36.1514 238.906 36.1138 238.981 36.1138C239.031 36.1138 239.075 36.1326 239.112 36.1702L240.277 37.1282C240.39 37.2159 240.409 37.3161 240.334 37.4288C239.945 37.9798 239.426 38.4056 238.774 38.7062C238.136 39.0067 237.422 39.157 236.633 39.157C235.656 39.157 234.823 38.9379 234.134 38.4995C233.458 38.0612 232.963 37.4476 232.65 36.6586C232.362 35.9823 232.218 35.043 232.218 33.8408C232.218 33.1144 232.293 32.5258 232.444 32.075C232.694 31.1983 233.164 30.5095 233.853 30.0086C234.554 29.4951 235.393 29.2384 236.37 29.2384C238.837 29.2384 240.227 30.5283 240.54 33.1082ZM236.37 31.1169C235.906 31.1169 235.518 31.2359 235.205 31.4738C234.905 31.6993 234.692 32.0186 234.566 32.4319C234.491 32.6448 234.441 32.9203 234.416 33.2584C234.391 33.3211 234.416 33.3524 234.491 33.3524H238.305C238.367 33.3524 238.399 33.3211 238.399 33.2584C238.374 32.9454 238.336 32.7074 238.286 32.5446C238.173 32.0938 237.948 31.7431 237.61 31.4926C237.284 31.2422 236.871 31.1169 236.37 31.1169ZM250.703 33.1082C250.753 33.4212 250.778 33.7719 250.778 34.1601L250.76 34.7425C250.76 34.8928 250.685 34.9679 250.534 34.9679H244.654C244.592 34.9679 244.561 34.9992 244.561 35.0618C244.598 35.4751 244.654 35.7569 244.73 35.9072C245.03 36.8089 245.763 37.266 246.927 37.2785C247.779 37.2785 248.455 36.9278 248.956 36.2265C249.006 36.1514 249.069 36.1138 249.144 36.1138C249.194 36.1138 249.238 36.1326 249.276 36.1702L250.44 37.1282C250.553 37.2159 250.572 37.3161 250.497 37.4288C250.108 37.9798 249.589 38.4056 248.937 38.7062C248.299 39.0067 247.585 39.157 246.796 39.157C245.819 39.157 244.986 38.9379 244.298 38.4995C243.621 38.0612 243.127 37.4476 242.813 36.6586C242.525 35.9823 242.381 35.043 242.381 33.8408C242.381 33.1144 242.457 32.5258 242.607 32.075C242.857 31.1983 243.327 30.5095 244.016 30.0086C244.717 29.4951 245.556 29.2384 246.533 29.2384C249 29.2384 250.39 30.5283 250.703 33.1082ZM246.533 31.1169C246.07 31.1169 245.681 31.2359 245.368 31.4738C245.068 31.6993 244.855 32.0186 244.73 32.4319C244.654 32.6448 244.604 32.9203 244.579 33.2584C244.554 33.3211 244.579 33.3524 244.654 33.3524H248.468C248.53 33.3524 248.562 33.3211 248.562 33.2584C248.537 32.9454 248.499 32.7074 248.449 32.5446C248.336 32.0938 248.111 31.7431 247.773 31.4926C247.447 31.2422 247.034 31.1169 246.533 31.1169ZM258.725 26.0637C258.725 26.0011 258.744 25.951 258.781 25.9134C258.831 25.8633 258.888 25.8383 258.95 25.8383H260.679C260.741 25.8383 260.791 25.8633 260.829 25.9134C260.879 25.951 260.904 26.0011 260.904 26.0637V38.7625C260.904 38.8251 260.879 38.8815 260.829 38.9316C260.791 38.9692 260.741 38.9879 260.679 38.9879H258.95C258.888 38.9879 258.831 38.9692 258.781 38.9316C258.744 38.8815 258.725 38.8251 258.725 38.7625V38.199C258.725 38.1614 258.712 38.1363 258.687 38.1238C258.662 38.1113 258.637 38.1238 258.612 38.1614C258.061 38.8126 257.341 39.1382 256.452 39.1382C255.563 39.1382 254.811 38.9065 254.198 38.4432C253.584 37.9798 253.139 37.3348 252.864 36.5083C252.638 35.807 252.526 35.0243 252.526 34.1601C252.526 33.271 252.632 32.507 252.845 31.8683C253.121 31.0418 253.565 30.3968 254.179 29.9334C254.793 29.4701 255.563 29.2384 256.489 29.2384C257.354 29.2384 258.061 29.5515 258.612 30.1777C258.637 30.2027 258.662 30.2152 258.687 30.2152C258.712 30.2027 258.725 30.1777 258.725 30.1401V26.0637ZM258.274 36.358C258.562 35.8445 258.706 35.1182 258.706 34.1789C258.706 33.2021 258.55 32.4569 258.236 31.9435C257.898 31.3924 257.422 31.1169 256.809 31.1169C256.17 31.1169 255.669 31.3799 255.306 31.9059C254.93 32.4569 254.742 33.2209 254.742 34.1977C254.742 35.0743 254.893 35.7945 255.193 36.358C255.544 36.9591 256.076 37.2597 256.79 37.2597C257.429 37.2597 257.923 36.9591 258.274 36.358ZM272.115 30.9291C272.115 30.9917 272.09 31.048 272.04 31.0981C272.002 31.1357 271.952 31.1545 271.889 31.1545H269.973C269.911 31.1545 269.879 31.1858 269.879 31.2484V35.7757C269.879 36.2516 269.98 36.596 270.18 36.8089C270.393 37.0218 270.725 37.1282 271.176 37.1282H271.739C271.802 37.1282 271.852 37.1533 271.889 37.2033C271.939 37.2409 271.965 37.291 271.965 37.3536V38.7625C271.965 38.9003 271.889 38.9817 271.739 39.0067L270.762 39.0255C269.773 39.0255 269.034 38.8564 268.546 38.5183C268.057 38.1802 267.807 37.5415 267.794 36.6022V31.2484C267.794 31.1858 267.763 31.1545 267.7 31.1545H266.63C266.567 31.1545 266.511 31.1357 266.46 31.0981C266.423 31.048 266.404 30.9917 266.404 30.9291V29.6141C266.404 29.5515 266.423 29.5014 266.46 29.4638C266.511 29.4137 266.567 29.3887 266.63 29.3887H267.7C267.763 29.3887 267.794 29.3574 267.794 29.2947V27.0969C267.794 27.0343 267.813 26.9842 267.851 26.9466C267.901 26.8965 267.957 26.8715 268.02 26.8715H269.654C269.717 26.8715 269.767 26.8965 269.804 26.9466C269.854 26.9842 269.879 27.0343 269.879 27.0969V29.2947C269.879 29.3574 269.911 29.3887 269.973 29.3887H271.889C271.952 29.3887 272.002 29.4137 272.04 29.4638C272.09 29.5014 272.115 29.5515 272.115 29.6141V30.9291ZM277.943 39.1382C276.954 39.1382 276.102 38.8878 275.388 38.3868C274.687 37.8859 274.192 37.1908 273.904 36.3017C273.691 35.6254 273.585 34.9115 273.585 34.1601C273.585 33.3586 273.685 32.6448 273.885 32.0186C274.174 31.142 274.674 30.4594 275.388 29.971C276.102 29.4826 276.96 29.2384 277.962 29.2384C278.914 29.2384 279.734 29.4826 280.423 29.971C281.124 30.4594 281.619 31.1357 281.907 31.9998C282.132 32.601 282.245 33.3148 282.245 34.1413C282.245 34.9303 282.138 35.6442 281.926 36.2829C281.638 37.172 281.143 37.8734 280.442 38.3868C279.74 38.8878 278.907 39.1382 277.943 39.1382ZM277.943 37.2597C278.406 37.2597 278.801 37.1282 279.127 36.8652C279.465 36.6022 279.709 36.2328 279.859 35.7569C279.984 35.3436 280.047 34.8176 280.047 34.1789C280.047 33.5026 279.984 32.9767 279.859 32.601C279.721 32.1251 279.483 31.7619 279.145 31.5114C278.807 31.2484 278.394 31.1169 277.906 31.1169C277.442 31.1169 277.041 31.2484 276.703 31.5114C276.365 31.7619 276.121 32.1251 275.971 32.601C275.845 33.0393 275.783 33.5653 275.783 34.1789C275.783 34.7926 275.845 35.3186 275.971 35.7569C276.108 36.2328 276.346 36.6022 276.684 36.8652C277.035 37.1282 277.455 37.2597 277.943 37.2597ZM293.063 29.3699C293.125 29.3699 293.175 29.3949 293.213 29.445C293.263 29.4826 293.288 29.5327 293.288 29.5953V31.0793C293.288 31.142 293.263 31.1983 293.213 31.2484C293.175 31.286 293.125 31.3048 293.063 31.3048H291.203C291.14 31.3048 291.109 31.3361 291.109 31.3987V38.7625C291.109 38.8251 291.084 38.8815 291.034 38.9316C290.996 38.9692 290.946 38.9879 290.884 38.9879H289.155C289.093 38.9879 289.036 38.9692 288.986 38.9316C288.949 38.8815 288.93 38.8251 288.93 38.7625V31.3987C288.93 31.3361 288.899 31.3048 288.836 31.3048H287.671C287.609 31.3048 287.552 31.286 287.502 31.2484C287.465 31.1983 287.446 31.142 287.446 31.0793V29.5953C287.446 29.5327 287.465 29.4826 287.502 29.445C287.552 29.3949 287.609 29.3699 287.671 29.3699H288.836C288.899 29.3699 288.93 29.3386 288.93 29.276V28.9378C288.93 28.1238 289.036 27.4976 289.249 27.0593C289.462 26.6085 289.813 26.2891 290.301 26.1013C290.79 25.9134 291.478 25.8257 292.368 25.8383H293.025C293.088 25.8383 293.138 25.8633 293.175 25.9134C293.225 25.951 293.25 26.0011 293.25 26.0637V27.3787C293.25 27.4413 293.225 27.4976 293.175 27.5477C293.138 27.5853 293.088 27.6041 293.025 27.6041H292.537C291.998 27.6041 291.622 27.7105 291.409 27.9234C291.209 28.1363 291.109 28.5246 291.109 29.0881V29.276C291.109 29.3386 291.14 29.3699 291.203 29.3699H293.063ZM296.369 28.0737C295.981 28.0737 295.661 27.9485 295.411 27.698C295.16 27.4475 295.035 27.1282 295.035 26.74C295.035 26.3517 295.16 26.0324 295.411 25.7819C295.661 25.5314 295.981 25.4062 296.369 25.4062C296.757 25.4062 297.076 25.5314 297.327 25.7819C297.577 26.0324 297.703 26.3517 297.703 26.74C297.703 27.1282 297.577 27.4475 297.327 27.698C297.076 27.9485 296.757 28.0737 296.369 28.0737ZM295.467 38.9879C295.404 38.9879 295.348 38.9692 295.298 38.9316C295.26 38.8815 295.242 38.8251 295.242 38.7625V29.5953C295.242 29.5327 295.26 29.4826 295.298 29.445C295.348 29.3949 295.404 29.3699 295.467 29.3699H297.195C297.258 29.3699 297.308 29.3949 297.346 29.445C297.396 29.4826 297.421 29.5327 297.421 29.5953V38.7625C297.421 38.8251 297.396 38.8815 297.346 38.9316C297.308 38.9692 297.258 38.9879 297.195 38.9879H295.467ZM304.519 29.2384C305.533 29.2384 306.341 29.539 306.942 30.1401C307.556 30.7412 307.863 31.5615 307.863 32.601V38.7625C307.863 38.8251 307.838 38.8815 307.788 38.9316C307.75 38.9692 307.7 38.9879 307.637 38.9879H305.909C305.846 38.9879 305.79 38.9692 305.74 38.9316C305.702 38.8815 305.684 38.8251 305.684 38.7625V33.0518C305.684 32.4757 305.521 32.0124 305.195 31.6617C304.87 31.2985 304.438 31.1169 303.899 31.1169C303.361 31.1169 302.922 31.2922 302.584 31.6429C302.258 31.9936 302.096 32.4569 302.096 33.033V38.7625C302.096 38.8251 302.071 38.8815 302.021 38.9316C301.983 38.9692 301.933 38.9879 301.87 38.9879H300.142C300.079 38.9879 300.023 38.9692 299.973 38.9316C299.935 38.8815 299.917 38.8251 299.917 38.7625V29.6141C299.917 29.5515 299.935 29.5014 299.973 29.4638C300.023 29.4137 300.079 29.3887 300.142 29.3887H301.87C301.933 29.3887 301.983 29.4137 302.021 29.4638C302.071 29.5014 302.096 29.5515 302.096 29.6141V30.2152C302.096 30.2528 302.108 30.2778 302.133 30.2904C302.158 30.3029 302.177 30.2904 302.19 30.2528C302.703 29.5765 303.48 29.2384 304.519 29.2384ZM316.016 26.0637C316.016 26.0011 316.035 25.951 316.073 25.9134C316.123 25.8633 316.179 25.8383 316.242 25.8383H317.97C318.033 25.8383 318.083 25.8633 318.12 25.9134C318.17 25.951 318.195 26.0011 318.195 26.0637V38.7625C318.195 38.8251 318.17 38.8815 318.12 38.9316C318.083 38.9692 318.033 38.9879 317.97 38.9879H316.242C316.179 38.9879 316.123 38.9692 316.073 38.9316C316.035 38.8815 316.016 38.8251 316.016 38.7625V38.199C316.016 38.1614 316.004 38.1363 315.979 38.1238C315.954 38.1113 315.929 38.1238 315.904 38.1614C315.353 38.8126 314.632 39.1382 313.743 39.1382C312.854 39.1382 312.103 38.9065 311.489 38.4432C310.875 37.9798 310.431 37.3348 310.155 36.5083C309.93 35.807 309.817 35.0243 309.817 34.1601C309.817 33.271 309.924 32.507 310.136 31.8683C310.412 31.0418 310.857 30.3968 311.47 29.9334C312.084 29.4701 312.854 29.2384 313.781 29.2384C314.645 29.2384 315.353 29.5515 315.904 30.1777C315.929 30.2027 315.954 30.2152 315.979 30.2152C316.004 30.2027 316.016 30.1777 316.016 30.1401V26.0637ZM315.565 36.358C315.853 35.8445 315.997 35.1182 315.997 34.1789C315.997 33.2021 315.841 32.4569 315.528 31.9435C315.19 31.3924 314.714 31.1169 314.1 31.1169C313.461 31.1169 312.961 31.3799 312.597 31.9059C312.222 32.4569 312.034 33.2209 312.034 34.1977C312.034 35.0743 312.184 35.7945 312.485 36.358C312.835 36.9591 313.368 37.2597 314.081 37.2597C314.72 37.2597 315.215 36.9591 315.565 36.358ZM327.979 29.2384C328.768 29.2384 329.463 29.3762 330.064 29.6517C330.665 29.9272 331.128 30.3092 331.454 30.7976C331.779 31.2735 331.942 31.8182 331.942 32.4319V38.7625C331.942 38.8251 331.917 38.8815 331.867 38.9316C331.83 38.9692 331.779 38.9879 331.717 38.9879H329.989C329.926 38.9879 329.87 38.9692 329.819 38.9316C329.782 38.8815 329.763 38.8251 329.763 38.7625V38.1614C329.763 38.1238 329.751 38.105 329.726 38.105C329.701 38.0925 329.675 38.0988 329.65 38.1238C329.037 38.8001 328.148 39.1382 326.983 39.1382C326.044 39.1382 325.267 38.9003 324.654 38.4244C324.052 37.9485 323.752 37.2409 323.752 36.3017C323.752 35.3248 324.09 34.5671 324.766 34.0286C325.455 33.4776 326.419 33.2021 327.659 33.2021H329.669C329.732 33.2021 329.763 33.1708 329.763 33.1082V32.6573C329.763 32.1689 329.619 31.7932 329.331 31.5302C329.043 31.2547 328.611 31.1169 328.035 31.1169C327.559 31.1169 327.171 31.2046 326.87 31.3799C326.582 31.5427 326.401 31.7744 326.325 32.075C326.288 32.2253 326.2 32.2879 326.062 32.2628L324.24 32.0374C324.178 32.0249 324.121 32.0061 324.071 31.981C324.034 31.9435 324.021 31.8996 324.034 31.8495C324.134 31.0856 324.541 30.4594 325.255 29.971C325.981 29.4826 326.889 29.2384 327.979 29.2384ZM327.528 37.41C328.141 37.41 328.667 37.2472 329.106 36.9216C329.544 36.596 329.763 36.1827 329.763 35.6817V34.7988C329.763 34.7362 329.732 34.7049 329.669 34.7049H328.091C327.428 34.7049 326.902 34.8301 326.513 35.0806C326.138 35.3311 325.95 35.688 325.95 36.1514C325.95 36.5521 326.094 36.8652 326.382 37.0906C326.682 37.3035 327.064 37.41 327.528 37.41ZM38.2599 52.2384C39.2743 52.2384 40.082 52.539 40.6832 53.1401C41.2968 53.7412 41.6037 54.5615 41.6037 55.601V61.7625C41.6037 61.8251 41.5786 61.8815 41.5285 61.9316C41.4909 61.9692 41.4408 61.9879 41.3782 61.9879H39.65C39.5874 61.9879 39.531 61.9692 39.4809 61.9316C39.4433 61.8815 39.4246 61.8251 39.4246 61.7625V56.0518C39.4246 55.4757 39.2618 55.0124 38.9361 54.6617C38.6105 54.2985 38.1785 54.1169 37.64 54.1169C37.1014 54.1169 36.6631 54.2922 36.325 54.6429C35.9994 54.9936 35.8366 55.4569 35.8366 56.033V61.7625C35.8366 61.8251 35.8115 61.8815 35.7614 61.9316C35.7239 61.9692 35.6738 61.9879 35.6112 61.9879H33.8829C33.8203 61.9879 33.7639 61.9692 33.7138 61.9316C33.6763 61.8815 33.6575 61.8251 33.6575 61.7625V52.6141C33.6575 52.5515 33.6763 52.5014 33.7138 52.4638C33.7639 52.4137 33.8203 52.3887 33.8829 52.3887H35.6112C35.6738 52.3887 35.7239 52.4137 35.7614 52.4638C35.8115 52.5014 35.8366 52.5515 35.8366 52.6141V53.2152C35.8366 53.2528 35.8491 53.2778 35.8741 53.2904C35.8992 53.3029 35.918 53.2904 35.9305 53.2528C36.444 52.5765 37.2204 52.2384 38.2599 52.2384ZM51.8987 56.1082C51.9488 56.4212 51.9738 56.7719 51.9738 57.1601L51.9551 57.7425C51.9551 57.8928 51.8799 57.9679 51.7296 57.9679H45.8499C45.7872 57.9679 45.7559 57.9992 45.7559 58.0618C45.7935 58.4751 45.8499 58.7569 45.925 58.9072C46.2256 59.8089 46.9582 60.266 48.1229 60.2785C48.9745 60.2785 49.6507 59.9278 50.1517 59.2265C50.2018 59.1514 50.2644 59.1138 50.3395 59.1138C50.3896 59.1138 50.4335 59.1326 50.471 59.1702L51.6357 60.1282C51.7484 60.2159 51.7672 60.3161 51.6921 60.4288C51.3038 60.9798 50.7841 61.4056 50.1329 61.7062C49.4942 62.0067 48.7804 62.157 47.9914 62.157C47.0145 62.157 46.1817 61.9379 45.4929 61.4995C44.8167 61.0612 44.322 60.4476 44.0089 59.6586C43.7209 58.9823 43.5768 58.043 43.5768 56.8408C43.5768 56.1144 43.652 55.5258 43.8023 55.075C44.0527 54.1983 44.5224 53.5095 45.2112 53.0086C45.9125 52.4951 46.7515 52.2384 47.7284 52.2384C50.1955 52.2384 51.5856 53.5283 51.8987 56.1082ZM47.7284 54.1169C47.265 54.1169 46.8768 54.2359 46.5637 54.4738C46.2631 54.6993 46.0502 55.0186 45.925 55.4319C45.8499 55.6448 45.7998 55.9203 45.7747 56.2584C45.7497 56.3211 45.7747 56.3524 45.8499 56.3524H49.6633C49.7259 56.3524 49.7572 56.3211 49.7572 56.2584C49.7321 55.9454 49.6946 55.7074 49.6445 55.5446C49.5318 55.0938 49.3063 54.7431 48.9682 54.4926C48.6426 54.2422 48.2293 54.1169 47.7284 54.1169ZM55.8165 61.9879C55.6787 61.9879 55.591 61.9253 55.5535 61.8001L52.8672 52.6329L52.8484 52.5577C52.8484 52.4325 52.9173 52.3699 53.055 52.3699H54.8396C54.9774 52.3699 55.0651 52.4325 55.1026 52.5577L56.6618 58.832C56.6743 58.8696 56.6931 58.8884 56.7182 58.8884C56.7432 58.8884 56.762 58.8696 56.7745 58.832L58.4088 52.5577C58.4464 52.4325 58.5341 52.3699 58.6718 52.3699H60.231C60.3688 52.3699 60.4564 52.4325 60.494 52.5577L62.1659 58.832C62.1784 58.8696 62.1972 58.8884 62.2222 58.8884C62.2473 58.8884 62.2661 58.8696 62.2786 58.832L63.9505 52.5577C63.9881 52.4325 64.0757 52.3699 64.2135 52.3699L65.9793 52.4075C66.0544 52.4075 66.1045 52.4325 66.1296 52.4826C66.1671 52.5202 66.1797 52.5765 66.1671 52.6517L63.4621 61.8001C63.4245 61.9253 63.3431 61.9879 63.2179 61.9879H61.4145C61.2767 61.9879 61.189 61.9253 61.1515 61.8001L59.4984 56.0706C59.4859 56.033 59.4671 56.0142 59.442 56.0142C59.417 56.0142 59.3982 56.033 59.3857 56.0706L57.8641 61.8001C57.8265 61.9253 57.7388 61.9879 57.6011 61.9879H55.8165ZM76.6857 53.9291C76.6857 53.9917 76.6607 54.048 76.6106 54.0981C76.573 54.1357 76.5229 54.1545 76.4603 54.1545H74.5442C74.4816 54.1545 74.4503 54.1858 74.4503 54.2484V58.7757C74.4503 59.2516 74.5505 59.596 74.7508 59.8089C74.9637 60.0218 75.2956 60.1282 75.7465 60.1282H76.31C76.3726 60.1282 76.4227 60.1533 76.4603 60.2033C76.5104 60.2409 76.5354 60.291 76.5354 60.3536V61.7625C76.5354 61.9003 76.4603 61.9817 76.31 62.0067L75.3332 62.0255C74.3438 62.0255 73.6049 61.8564 73.1165 61.5183C72.6281 61.1802 72.3776 60.5415 72.3651 59.6022V54.2484C72.3651 54.1858 72.3338 54.1545 72.2712 54.1545H71.2004C71.1378 54.1545 71.0814 54.1357 71.0314 54.0981C70.9938 54.048 70.975 53.9917 70.975 53.9291V52.6141C70.975 52.5515 70.9938 52.5014 71.0314 52.4638C71.0814 52.4137 71.1378 52.3887 71.2004 52.3887H72.2712C72.3338 52.3887 72.3651 52.3574 72.3651 52.2947V50.0969C72.3651 50.0343 72.3839 49.9842 72.4215 49.9466C72.4716 49.8965 72.5279 49.8715 72.5905 49.8715H74.2248C74.2875 49.8715 74.3376 49.8965 74.3751 49.9466C74.4252 49.9842 74.4503 50.0343 74.4503 50.0969V52.2947C74.4503 52.3574 74.4816 52.3887 74.5442 52.3887H76.4603C76.5229 52.3887 76.573 52.4137 76.6106 52.4638C76.6607 52.5014 76.6857 52.5515 76.6857 52.6141V53.9291ZM82.2842 52.2384C83.0731 52.2384 83.7682 52.3762 84.3693 52.6517C84.9705 52.9272 85.4338 53.3092 85.7594 53.7976C86.0851 54.2735 86.2479 54.8182 86.2479 55.4319V61.7625C86.2479 61.8251 86.2228 61.8815 86.1727 61.9316C86.1351 61.9692 86.0851 61.9879 86.0224 61.9879H84.2942C84.2316 61.9879 84.1752 61.9692 84.1251 61.9316C84.0876 61.8815 84.0688 61.8251 84.0688 61.7625V61.1614C84.0688 61.1238 84.0562 61.105 84.0312 61.105C84.0061 61.0925 83.9811 61.0988 83.9561 61.1238C83.3424 61.8001 82.4532 62.1382 81.2885 62.1382C80.3493 62.1382 79.5728 61.9003 78.9592 61.4244C78.358 60.9485 78.0575 60.2409 78.0575 59.3017C78.0575 58.3248 78.3956 57.5671 79.0719 57.0286C79.7607 56.4776 80.725 56.2021 81.9648 56.2021H83.9748C84.0375 56.2021 84.0688 56.1708 84.0688 56.1082V55.6573C84.0688 55.1689 83.9247 54.7932 83.6367 54.5302C83.3487 54.2547 82.9166 54.1169 82.3405 54.1169C81.8646 54.1169 81.4764 54.2046 81.1758 54.3799C80.8878 54.5427 80.7062 54.7744 80.6311 55.075C80.5935 55.2253 80.5058 55.2879 80.3681 55.2628L78.5459 55.0374C78.4833 55.0249 78.4269 55.0061 78.3768 54.981C78.3393 54.9435 78.3267 54.8996 78.3393 54.8495C78.4394 54.0856 78.8465 53.4594 79.5603 52.971C80.2867 52.4826 81.1946 52.2384 82.2842 52.2384ZM81.8333 60.41C82.447 60.41 82.973 60.2472 83.4113 59.9216C83.8496 59.596 84.0688 59.1827 84.0688 58.6817V57.7988C84.0688 57.7362 84.0375 57.7049 83.9748 57.7049H82.3969C81.7331 57.7049 81.2071 57.8301 80.8189 58.0806C80.4432 58.3311 80.2554 58.688 80.2554 59.1514C80.2554 59.5521 80.3994 59.8652 80.6874 60.0906C80.988 60.3035 81.3699 60.41 81.8333 60.41ZM88.661 61.9879C88.5984 61.9879 88.5421 61.9692 88.492 61.9316C88.4544 61.8815 88.4356 61.8251 88.4356 61.7625V49.0637C88.4356 49.0011 88.4544 48.951 88.492 48.9134C88.5421 48.8633 88.5984 48.8383 88.661 48.8383H90.3893C90.4519 48.8383 90.502 48.8633 90.5396 48.9134C90.5896 48.951 90.6147 49.0011 90.6147 49.0637V61.7625C90.6147 61.8251 90.5896 61.8815 90.5396 61.9316C90.502 61.9692 90.4519 61.9879 90.3893 61.9879H88.661ZM101.027 56.1082C101.077 56.4212 101.102 56.7719 101.102 57.1601L101.083 57.7425C101.083 57.8928 101.008 57.9679 100.858 57.9679H94.9777C94.9151 57.9679 94.8838 57.9992 94.8838 58.0618C94.9214 58.4751 94.9777 58.7569 95.0529 58.9072C95.3534 59.8089 96.086 60.266 97.2507 60.2785C98.1023 60.2785 98.7786 59.9278 99.2795 59.2265C99.3296 59.1514 99.3923 59.1138 99.4674 59.1138C99.5175 59.1138 99.5613 59.1326 99.5989 59.1702L100.764 60.1282C100.876 60.2159 100.895 60.3161 100.82 60.4288C100.432 60.9798 99.912 61.4056 99.2608 61.7062C98.6221 62.0067 97.9082 62.157 97.1192 62.157C96.1424 62.157 95.3096 61.9379 94.6208 61.4995C93.9445 61.0612 93.4499 60.4476 93.1368 59.6586C92.8487 58.9823 92.7047 58.043 92.7047 56.8408C92.7047 56.1144 92.7798 55.5258 92.9301 55.075C93.1806 54.1983 93.6502 53.5095 94.339 53.0086C95.0403 52.4951 95.8794 52.2384 96.8562 52.2384C99.3234 52.2384 100.713 53.5283 101.027 56.1082ZM96.8562 54.1169C96.3929 54.1169 96.0046 54.2359 95.6916 54.4738C95.391 54.6993 95.1781 55.0186 95.0529 55.4319C94.9777 55.6448 94.9276 55.9203 94.9026 56.2584C94.8775 56.3211 94.9026 56.3524 94.9777 56.3524H98.7911C98.8537 56.3524 98.8851 56.3211 98.8851 56.2584C98.86 55.9454 98.8224 55.7074 98.7723 55.5446C98.6596 55.0938 98.4342 54.7431 98.0961 54.4926C97.7705 54.2422 97.3572 54.1169 96.8562 54.1169ZM107.696 52.2384C108.71 52.2384 109.518 52.539 110.119 53.1401C110.733 53.7412 111.039 54.5615 111.039 55.601V61.7625C111.039 61.8251 111.014 61.8815 110.964 61.9316C110.927 61.9692 110.877 61.9879 110.814 61.9879H109.086C109.023 61.9879 108.967 61.9692 108.917 61.9316C108.879 61.8815 108.86 61.8251 108.86 61.7625V56.0518C108.86 55.4757 108.698 55.0124 108.372 54.6617C108.046 54.2985 107.614 54.1169 107.076 54.1169C106.537 54.1169 106.099 54.2922 105.761 54.6429C105.435 54.9936 105.272 55.4569 105.272 56.033V61.7625C105.272 61.8251 105.247 61.8815 105.197 61.9316C105.16 61.9692 105.11 61.9879 105.047 61.9879H103.319C103.256 61.9879 103.2 61.9692 103.15 61.9316C103.112 61.8815 103.093 61.8251 103.093 61.7625V52.6141C103.093 52.5515 103.112 52.5014 103.15 52.4638C103.2 52.4137 103.256 52.3887 103.319 52.3887H105.047C105.11 52.3887 105.16 52.4137 105.197 52.4638C105.247 52.5014 105.272 52.5515 105.272 52.6141V53.2152C105.272 53.2528 105.285 53.2778 105.31 53.2904C105.335 53.3029 105.354 53.2904 105.366 53.2528C105.88 52.5765 106.656 52.2384 107.696 52.2384ZM118.402 53.9291C118.402 53.9917 118.377 54.048 118.327 54.0981C118.289 54.1357 118.239 54.1545 118.177 54.1545H116.261C116.198 54.1545 116.167 54.1858 116.167 54.2484V58.7757C116.167 59.2516 116.267 59.596 116.467 59.8089C116.68 60.0218 117.012 60.1282 117.463 60.1282H118.027C118.089 60.1282 118.139 60.1533 118.177 60.2033C118.227 60.2409 118.252 60.291 118.252 60.3536V61.7625C118.252 61.9003 118.177 61.9817 118.027 62.0067L117.05 62.0255C116.06 62.0255 115.321 61.8564 114.833 61.5183C114.345 61.1802 114.094 60.5415 114.082 59.6022V54.2484C114.082 54.1858 114.05 54.1545 113.988 54.1545H112.917C112.854 54.1545 112.798 54.1357 112.748 54.0981C112.71 54.048 112.691 53.9917 112.691 53.9291V52.6141C112.691 52.5515 112.71 52.5014 112.748 52.4638C112.798 52.4137 112.854 52.3887 112.917 52.3887H113.988C114.05 52.3887 114.082 52.3574 114.082 52.2947V50.0969C114.082 50.0343 114.1 49.9842 114.138 49.9466C114.188 49.8965 114.244 49.8715 114.307 49.8715H115.941C116.004 49.8715 116.054 49.8965 116.092 49.9466C116.142 49.9842 116.167 50.0343 116.167 50.0969V52.2947C116.167 52.3574 116.198 52.3887 116.261 52.3887H118.177C118.239 52.3887 118.289 52.4137 118.327 52.4638C118.377 52.5014 118.402 52.5515 118.402 52.6141V53.9291ZM126.371 61.9879C126.234 61.9879 126.146 61.9253 126.108 61.8001L123.422 52.6329L123.403 52.5577C123.403 52.4325 123.472 52.3699 123.61 52.3699H125.394C125.532 52.3699 125.62 52.4325 125.657 52.5577L127.217 58.832C127.229 58.8696 127.248 58.8884 127.273 58.8884C127.298 58.8884 127.317 58.8696 127.329 58.832L128.964 52.5577C129.001 52.4325 129.089 52.3699 129.227 52.3699H130.786C130.924 52.3699 131.011 52.4325 131.049 52.5577L132.721 58.832C132.733 58.8696 132.752 58.8884 132.777 58.8884C132.802 58.8884 132.821 58.8696 132.833 58.832L134.505 52.5577C134.543 52.4325 134.631 52.3699 134.768 52.3699L136.534 52.4075C136.609 52.4075 136.659 52.4325 136.684 52.4826C136.722 52.5202 136.734 52.5765 136.722 52.6517L134.017 61.8001C133.979 61.9253 133.898 61.9879 133.773 61.9879H131.969C131.832 61.9879 131.744 61.9253 131.706 61.8001L130.053 56.0706C130.041 56.033 130.022 56.0142 129.997 56.0142C129.972 56.0142 129.953 56.033 129.94 56.0706L128.419 61.8001C128.381 61.9253 128.294 61.9879 128.156 61.9879H126.371ZM139.629 51.0737C139.241 51.0737 138.921 50.9485 138.671 50.698C138.42 50.4475 138.295 50.1282 138.295 49.74C138.295 49.3517 138.42 49.0324 138.671 48.7819C138.921 48.5314 139.241 48.4062 139.629 48.4062C140.017 48.4062 140.336 48.5314 140.587 48.7819C140.837 49.0324 140.963 49.3517 140.963 49.74C140.963 50.1282 140.837 50.4475 140.587 50.698C140.336 50.9485 140.017 51.0737 139.629 51.0737ZM138.727 61.9879C138.665 61.9879 138.608 61.9692 138.558 61.9316C138.52 61.8815 138.502 61.8251 138.502 61.7625V52.5953C138.502 52.5327 138.52 52.4826 138.558 52.445C138.608 52.3949 138.665 52.3699 138.727 52.3699H140.455C140.518 52.3699 140.568 52.3949 140.606 52.445C140.656 52.4826 140.681 52.5327 140.681 52.5953V61.7625C140.681 61.8251 140.656 61.8815 140.606 61.9316C140.568 61.9692 140.518 61.9879 140.455 61.9879H138.727ZM148.268 53.9291C148.268 53.9917 148.243 54.048 148.193 54.0981C148.155 54.1357 148.105 54.1545 148.042 54.1545H146.126C146.064 54.1545 146.032 54.1858 146.032 54.2484V58.7757C146.032 59.2516 146.133 59.596 146.333 59.8089C146.546 60.0218 146.878 60.1282 147.329 60.1282H147.892C147.955 60.1282 148.005 60.1533 148.042 60.2033C148.093 60.2409 148.118 60.291 148.118 60.3536V61.7625C148.118 61.9003 148.042 61.9817 147.892 62.0067L146.915 62.0255C145.926 62.0255 145.187 61.8564 144.699 61.5183C144.21 61.1802 143.96 60.5415 143.947 59.6022V54.2484C143.947 54.1858 143.916 54.1545 143.853 54.1545H142.783C142.72 54.1545 142.664 54.1357 142.613 54.0981C142.576 54.048 142.557 53.9917 142.557 53.9291V52.6141C142.557 52.5515 142.576 52.5014 142.613 52.4638C142.664 52.4137 142.72 52.3887 142.783 52.3887H143.853C143.916 52.3887 143.947 52.3574 143.947 52.2947V50.0969C143.947 50.0343 143.966 49.9842 144.004 49.9466C144.054 49.8965 144.11 49.8715 144.173 49.8715H145.807C145.87 49.8715 145.92 49.8965 145.957 49.9466C146.007 49.9842 146.032 50.0343 146.032 50.0969V52.2947C146.032 52.3574 146.064 52.3887 146.126 52.3887H148.042C148.105 52.3887 148.155 52.4137 148.193 52.4638C148.243 52.5014 148.268 52.5515 148.268 52.6141V53.9291ZM154.806 52.2384C155.82 52.2384 156.628 52.539 157.229 53.1401C157.843 53.7412 158.149 54.5615 158.149 55.601V61.7625C158.149 61.8251 158.124 61.8815 158.074 61.9316C158.037 61.9692 157.987 61.9879 157.924 61.9879H156.196C156.133 61.9879 156.077 61.9692 156.027 61.9316C155.989 61.8815 155.97 61.8251 155.97 61.7625V56.0518C155.97 55.4757 155.807 55.0124 155.482 54.6617C155.156 54.2985 154.724 54.1169 154.186 54.1169C153.647 54.1169 153.209 54.2922 152.871 54.6429C152.545 54.9936 152.382 55.4569 152.382 56.033V61.7625C152.382 61.8251 152.357 61.8815 152.307 61.9316C152.27 61.9692 152.219 61.9879 152.157 61.9879H150.429C150.366 61.9879 150.31 61.9692 150.26 61.9316C150.222 61.8815 150.203 61.8251 150.203 61.7625V49.0637C150.203 49.0011 150.222 48.951 150.26 48.9134C150.31 48.8633 150.366 48.8383 150.429 48.8383H152.157C152.219 48.8383 152.27 48.8633 152.307 48.9134C152.357 48.951 152.382 49.0011 152.382 49.0637V53.2152C152.382 53.2528 152.395 53.2778 152.42 53.2904C152.445 53.3029 152.464 53.2904 152.476 53.2528C152.99 52.5765 153.766 52.2384 154.806 52.2384ZM168.634 62.1382C167.657 62.1382 166.806 61.9817 166.079 61.6686C165.353 61.3555 164.789 60.9172 164.389 60.3536C164 59.7901 163.806 59.1263 163.806 58.3624V57.8928C163.806 57.8301 163.825 57.78 163.863 57.7425C163.913 57.6924 163.969 57.6673 164.032 57.6673H165.704C165.766 57.6673 165.816 57.6924 165.854 57.7425C165.904 57.78 165.929 57.8301 165.929 57.8928V58.2497C165.929 58.8258 166.186 59.3079 166.699 59.6961C167.213 60.0718 167.914 60.2597 168.803 60.2597C169.567 60.2597 170.143 60.0969 170.531 59.7713C170.92 59.4457 171.114 59.0261 171.114 58.5127C171.114 58.162 171.007 57.8677 170.794 57.6298C170.582 57.3793 170.275 57.1539 169.874 56.9535C169.486 56.7531 168.897 56.5026 168.108 56.2021C167.219 55.8765 166.499 55.5696 165.948 55.2816C165.397 54.9936 164.933 54.6053 164.558 54.1169C164.195 53.616 164.013 52.9961 164.013 52.2572C164.013 51.1551 164.414 50.2847 165.215 49.646C166.017 49.0073 167.087 48.688 168.428 48.688C169.367 48.688 170.193 48.8508 170.907 49.1764C171.634 49.502 172.197 49.9591 172.598 50.5477C172.999 51.1238 173.199 51.7938 173.199 52.5577V52.8771C173.199 52.9397 173.174 52.9961 173.124 53.0462C173.086 53.0837 173.036 53.1025 172.974 53.1025H171.283C171.22 53.1025 171.164 53.0837 171.114 53.0462C171.076 52.9961 171.057 52.9397 171.057 52.8771V52.6705C171.057 52.0818 170.813 51.5872 170.325 51.1864C169.849 50.7731 169.185 50.5665 168.334 50.5665C167.645 50.5665 167.106 50.7105 166.718 50.9986C166.342 51.2866 166.154 51.6936 166.154 52.2196C166.154 52.5953 166.255 52.9021 166.455 53.1401C166.655 53.378 166.956 53.5972 167.357 53.7976C167.757 53.9854 168.377 54.2296 169.216 54.5302C170.106 54.8683 170.813 55.1752 171.339 55.4507C171.878 55.7262 172.335 56.1144 172.711 56.6154C173.099 57.1038 173.293 57.7174 173.293 58.4563C173.293 59.5834 172.873 60.4789 172.034 61.1426C171.208 61.8064 170.074 62.1382 168.634 62.1382ZM178.852 52.2384C179.641 52.2384 180.336 52.3762 180.937 52.6517C181.538 52.9272 182.002 53.3092 182.327 53.7976C182.653 54.2735 182.816 54.8182 182.816 55.4319V61.7625C182.816 61.8251 182.791 61.8815 182.741 61.9316C182.703 61.9692 182.653 61.9879 182.59 61.9879H180.862C180.8 61.9879 180.743 61.9692 180.693 61.9316C180.656 61.8815 180.637 61.8251 180.637 61.7625V61.1614C180.637 61.1238 180.624 61.105 180.599 61.105C180.574 61.0925 180.549 61.0988 180.524 61.1238C179.91 61.8001 179.021 62.1382 177.857 62.1382C176.917 62.1382 176.141 61.9003 175.527 61.4244C174.926 60.9485 174.625 60.2409 174.625 59.3017C174.625 58.3248 174.964 57.5671 175.64 57.0286C176.329 56.4776 177.293 56.2021 178.533 56.2021H180.543C180.605 56.2021 180.637 56.1708 180.637 56.1082V55.6573C180.637 55.1689 180.493 54.7932 180.205 54.5302C179.917 54.2547 179.485 54.1169 178.909 54.1169C178.433 54.1169 178.044 54.2046 177.744 54.3799C177.456 54.5427 177.274 54.7744 177.199 55.075C177.161 55.2253 177.074 55.2879 176.936 55.2628L175.114 55.0374C175.051 55.0249 174.995 55.0061 174.945 54.981C174.907 54.9435 174.895 54.8996 174.907 54.8495C175.007 54.0856 175.414 53.4594 176.128 52.971C176.855 52.4826 177.763 52.2384 178.852 52.2384ZM178.401 60.41C179.015 60.41 179.541 60.2472 179.979 59.9216C180.418 59.596 180.637 59.1827 180.637 58.6817V57.7988C180.637 57.7362 180.605 57.7049 180.543 57.7049H178.965C178.301 57.7049 177.775 57.8301 177.387 58.0806C177.011 58.3311 176.823 58.688 176.823 59.1514C176.823 59.5521 176.967 59.8652 177.255 60.0906C177.556 60.3035 177.938 60.41 178.401 60.41ZM185.229 61.9879C185.166 61.9879 185.11 61.9692 185.06 61.9316C185.022 61.8815 185.004 61.8251 185.004 61.7625V49.0637C185.004 49.0011 185.022 48.951 185.06 48.9134C185.11 48.8633 185.166 48.8383 185.229 48.8383H186.957C187.02 48.8383 187.07 48.8633 187.108 48.9134C187.158 48.951 187.183 49.0011 187.183 49.0637V61.7625C187.183 61.8251 187.158 61.8815 187.108 61.9316C187.07 61.9692 187.02 61.9879 186.957 61.9879H185.229ZM197.595 56.1082C197.645 56.4212 197.67 56.7719 197.67 57.1601L197.651 57.7425C197.651 57.8928 197.576 57.9679 197.426 57.9679H191.546C191.483 57.9679 191.452 57.9992 191.452 58.0618C191.489 58.4751 191.546 58.7569 191.621 58.9072C191.921 59.8089 192.654 60.266 193.819 60.2785C194.67 60.2785 195.347 59.9278 195.848 59.2265C195.898 59.1514 195.96 59.1138 196.035 59.1138C196.085 59.1138 196.129 59.1326 196.167 59.1702L197.332 60.1282C197.444 60.2159 197.463 60.3161 197.388 60.4288C197 60.9798 196.48 61.4056 195.829 61.7062C195.19 62.0067 194.476 62.157 193.687 62.157C192.71 62.157 191.878 61.9379 191.189 61.4995C190.513 61.0612 190.018 60.4476 189.705 59.6586C189.417 58.9823 189.273 58.043 189.273 56.8408C189.273 56.1144 189.348 55.5258 189.498 55.075C189.749 54.1983 190.218 53.5095 190.907 53.0086C191.608 52.4951 192.447 52.2384 193.424 52.2384C195.891 52.2384 197.281 53.5283 197.595 56.1082ZM193.424 54.1169C192.961 54.1169 192.573 54.2359 192.26 54.4738C191.959 54.6993 191.746 55.0186 191.621 55.4319C191.546 55.6448 191.496 55.9203 191.471 56.2584C191.446 56.3211 191.471 56.3524 191.546 56.3524H195.359C195.422 56.3524 195.453 56.3211 195.453 56.2584C195.428 55.9454 195.39 55.7074 195.34 55.5446C195.228 55.0938 195.002 54.7431 194.664 54.4926C194.338 54.2422 193.925 54.1169 193.424 54.1169ZM203.084 62.1007C202.295 62.1007 201.6 61.9879 200.999 61.7625C200.41 61.5246 199.953 61.2052 199.627 60.8045C199.302 60.3912 199.139 59.9341 199.139 59.4331V59.2641C199.139 59.2015 199.158 59.1514 199.195 59.1138C199.245 59.0637 199.302 59.0387 199.364 59.0387H201.017C201.08 59.0387 201.13 59.0637 201.168 59.1138C201.218 59.1514 201.243 59.2015 201.243 59.2641V59.3017C201.243 59.6147 201.412 59.8903 201.75 60.1282C202.101 60.3536 202.539 60.4663 203.065 60.4663C203.566 60.4663 203.973 60.3662 204.286 60.1658C204.599 59.9529 204.756 59.6899 204.756 59.3768C204.756 59.0888 204.624 58.8759 204.361 58.7381C204.111 58.5878 203.697 58.4313 203.121 58.2685L202.407 58.043C201.769 57.8552 201.23 57.6548 200.792 57.4419C200.354 57.229 199.984 56.941 199.684 56.5778C199.383 56.2021 199.233 55.7262 199.233 55.1501C199.233 54.2735 199.577 53.5784 200.266 53.0649C200.955 52.539 201.863 52.276 202.99 52.276C203.754 52.276 204.424 52.4012 205 52.6517C205.576 52.8896 206.02 53.2278 206.334 53.6661C206.647 54.0919 206.803 54.5803 206.803 55.1313C206.803 55.1939 206.778 55.2503 206.728 55.3004C206.69 55.338 206.64 55.3567 206.578 55.3567H204.981C204.918 55.3567 204.862 55.338 204.812 55.3004C204.774 55.2503 204.756 55.1939 204.756 55.1313C204.756 54.8057 204.593 54.5365 204.267 54.3236C203.954 54.0981 203.522 53.9854 202.971 53.9854C202.483 53.9854 202.082 54.0793 201.769 54.2672C201.468 54.4425 201.318 54.693 201.318 55.0186C201.318 55.3192 201.462 55.5509 201.75 55.7137C202.05 55.8639 202.545 56.033 203.234 56.2209L203.647 56.3336C204.311 56.534 204.868 56.7406 205.319 56.9535C205.77 57.1539 206.152 57.4419 206.465 57.8176C206.778 58.1808 206.935 58.6567 206.935 59.2453C206.935 60.1345 206.584 60.8358 205.883 61.3492C205.181 61.8502 204.248 62.1007 203.084 62.1007ZM213.757 52.3699C213.82 52.3699 213.87 52.3949 213.908 52.445C213.958 52.4826 213.983 52.5327 213.983 52.5953V54.0793C213.983 54.142 213.958 54.1983 213.908 54.2484C213.87 54.286 213.82 54.3048 213.757 54.3048H211.897C211.835 54.3048 211.804 54.3361 211.804 54.3987V61.7625C211.804 61.8251 211.779 61.8815 211.728 61.9316C211.691 61.9692 211.641 61.9879 211.578 61.9879H209.85C209.787 61.9879 209.731 61.9692 209.681 61.9316C209.643 61.8815 209.624 61.8251 209.624 61.7625V54.3987C209.624 54.3361 209.593 54.3048 209.531 54.3048H208.366C208.303 54.3048 208.247 54.286 208.197 54.2484C208.159 54.1983 208.14 54.142 208.14 54.0793V52.5953C208.14 52.5327 208.159 52.4826 208.197 52.445C208.247 52.3949 208.303 52.3699 208.366 52.3699H209.531C209.593 52.3699 209.624 52.3386 209.624 52.276V51.9378C209.624 51.1238 209.731 50.4976 209.944 50.0593C210.157 49.6085 210.507 49.2891 210.996 49.1013C211.484 48.9134 212.173 48.8257 213.062 48.8383H213.72C213.782 48.8383 213.832 48.8633 213.87 48.9134C213.92 48.951 213.945 49.0011 213.945 49.0637V50.3787C213.945 50.4413 213.92 50.4976 213.87 50.5477C213.832 50.5853 213.782 50.6041 213.72 50.6041H213.231C212.693 50.6041 212.317 50.7105 212.104 50.9234C211.904 51.1363 211.804 51.5246 211.804 52.0881V52.276C211.804 52.3386 211.835 52.3699 211.897 52.3699H213.757ZM219.221 62.1382C218.231 62.1382 217.38 61.8878 216.666 61.3868C215.965 60.8859 215.47 60.1908 215.182 59.3017C214.969 58.6254 214.863 57.9115 214.863 57.1601C214.863 56.3586 214.963 55.6448 215.163 55.0186C215.451 54.142 215.952 53.4594 216.666 52.971C217.38 52.4826 218.238 52.2384 219.24 52.2384C220.191 52.2384 221.012 52.4826 221.7 52.971C222.402 53.4594 222.896 54.1357 223.185 54.9998C223.41 55.601 223.523 56.3148 223.523 57.1413C223.523 57.9303 223.416 58.6442 223.203 59.2829C222.915 60.172 222.421 60.8734 221.719 61.3868C221.018 61.8878 220.185 62.1382 219.221 62.1382ZM219.221 60.2597C219.684 60.2597 220.079 60.1282 220.404 59.8652C220.742 59.6022 220.987 59.2328 221.137 58.7569C221.262 58.3436 221.325 57.8176 221.325 57.1789C221.325 56.5026 221.262 55.9767 221.137 55.601C220.999 55.1251 220.761 54.7619 220.423 54.5114C220.085 54.2484 219.672 54.1169 219.183 54.1169C218.72 54.1169 218.319 54.2484 217.981 54.5114C217.643 54.7619 217.399 55.1251 217.248 55.601C217.123 56.0393 217.061 56.5653 217.061 57.1789C217.061 57.7926 217.123 58.3186 217.248 58.7569C217.386 59.2328 217.624 59.6022 217.962 59.8652C218.313 60.1282 218.732 60.2597 219.221 60.2597ZM230.054 52.276C230.454 52.276 230.805 52.3574 231.106 52.5202C231.206 52.5703 231.243 52.6642 231.218 52.802L230.899 54.4926C230.886 54.6429 230.799 54.6867 230.636 54.6241C230.448 54.5615 230.229 54.5302 229.978 54.5302C229.816 54.5302 229.69 54.5365 229.603 54.549C229.077 54.574 228.638 54.7619 228.288 55.1125C227.937 55.4507 227.762 55.8953 227.762 56.4463V61.7625C227.762 61.8251 227.737 61.8815 227.687 61.9316C227.649 61.9692 227.599 61.9879 227.536 61.9879H225.808C225.746 61.9879 225.689 61.9692 225.639 61.9316C225.601 61.8815 225.583 61.8251 225.583 61.7625V52.6141C225.583 52.5515 225.601 52.5014 225.639 52.4638C225.689 52.4137 225.746 52.3887 225.808 52.3887H227.536C227.599 52.3887 227.649 52.4137 227.687 52.4638C227.737 52.5014 227.762 52.5515 227.762 52.6141V53.4594C227.762 53.5095 227.768 53.5408 227.781 53.5534C227.806 53.5534 227.831 53.5346 227.856 53.497C228.382 52.683 229.114 52.276 230.054 52.276ZM236.463 62.1382C235.499 62.1382 234.666 61.894 233.965 61.4056C233.264 60.9047 232.775 60.2347 232.5 59.3956C232.299 58.832 232.199 58.0806 232.199 57.1413C232.199 56.2397 232.299 55.5008 232.5 54.9247C232.763 54.0981 233.245 53.4469 233.946 52.971C234.66 52.4826 235.499 52.2384 236.463 52.2384C237.44 52.2384 238.292 52.4826 239.018 52.971C239.744 53.4594 240.227 54.0731 240.465 54.812C240.527 55.0124 240.571 55.2127 240.596 55.4131V55.4507C240.596 55.5759 240.527 55.651 240.389 55.6761L238.699 55.9203H238.661C238.548 55.9203 238.473 55.8577 238.436 55.7325C238.436 55.6698 238.43 55.6197 238.417 55.5822C238.392 55.482 238.367 55.3943 238.342 55.3192C238.229 54.9685 238.004 54.6805 237.666 54.4551C237.327 54.2296 236.927 54.1169 236.463 54.1169C235.987 54.1169 235.58 54.2422 235.242 54.4926C234.917 54.7306 234.698 55.0624 234.585 55.4882C234.46 55.889 234.397 56.4463 234.397 57.1601C234.397 57.8489 234.453 58.4062 234.566 58.832C234.691 59.2703 234.917 59.621 235.242 59.884C235.568 60.1345 235.975 60.2597 236.463 60.2597C236.939 60.2597 237.346 60.1407 237.684 59.9028C238.035 59.6523 238.26 59.3204 238.361 58.9072C238.373 58.8821 238.379 58.8508 238.379 58.8132C238.392 58.8007 238.398 58.7819 238.398 58.7569C238.436 58.6066 238.523 58.544 238.661 58.569L240.352 58.832C240.414 58.8445 240.465 58.8759 240.502 58.9259C240.552 58.9635 240.571 59.0199 240.559 59.095C240.521 59.2954 240.49 59.4394 240.465 59.5271C240.227 60.3286 239.744 60.9673 239.018 61.4432C238.292 61.9065 237.44 62.1382 236.463 62.1382ZM250.446 56.1082C250.497 56.4212 250.522 56.7719 250.522 57.1601L250.503 57.7425C250.503 57.8928 250.428 57.9679 250.277 57.9679H244.398C244.335 57.9679 244.304 57.9992 244.304 58.0618C244.341 58.4751 244.398 58.7569 244.473 58.9072C244.773 59.8089 245.506 60.266 246.671 60.2785C247.522 60.2785 248.198 59.9278 248.699 59.2265C248.75 59.1514 248.812 59.1138 248.887 59.1138C248.937 59.1138 248.981 59.1326 249.019 59.1702L250.183 60.1282C250.296 60.2159 250.315 60.3161 250.24 60.4288C249.852 60.9798 249.332 61.4056 248.681 61.7062C248.042 62.0067 247.328 62.157 246.539 62.157C245.562 62.157 244.729 61.9379 244.041 61.4995C243.364 61.0612 242.87 60.4476 242.557 59.6586C242.269 58.9823 242.125 58.043 242.125 56.8408C242.125 56.1144 242.2 55.5258 242.35 55.075C242.6 54.1983 243.07 53.5095 243.759 53.0086C244.46 52.4951 245.299 52.2384 246.276 52.2384C248.743 52.2384 250.133 53.5283 250.446 56.1082ZM246.276 54.1169C245.813 54.1169 245.425 54.2359 245.111 54.4738C244.811 54.6993 244.598 55.0186 244.473 55.4319C244.398 55.6448 244.348 55.9203 244.322 56.2584C244.297 56.3211 244.322 56.3524 244.398 56.3524H248.211C248.274 56.3524 248.305 56.3211 248.305 56.2584C248.28 55.9454 248.242 55.7074 248.192 55.5446C248.08 55.0938 247.854 54.7431 247.516 54.4926C247.19 54.2422 246.777 54.1169 246.276 54.1169ZM264.37 56.1082C264.42 56.4212 264.445 56.7719 264.445 57.1601L264.427 57.7425C264.427 57.8928 264.352 57.9679 264.201 57.9679H258.321C258.259 57.9679 258.228 57.9992 258.228 58.0618C258.265 58.4751 258.321 58.7569 258.397 58.9072C258.697 59.8089 259.43 60.266 260.594 60.2785C261.446 60.2785 262.122 59.9278 262.623 59.2265C262.673 59.1514 262.736 59.1138 262.811 59.1138C262.861 59.1138 262.905 59.1326 262.943 59.1702L264.107 60.1282C264.22 60.2159 264.239 60.3161 264.164 60.4288C263.775 60.9798 263.256 61.4056 262.604 61.7062C261.966 62.0067 261.252 62.157 260.463 62.157C259.486 62.157 258.653 61.9379 257.965 61.4995C257.288 61.0612 256.794 60.4476 256.481 59.6586C256.192 58.9823 256.048 58.043 256.048 56.8408C256.048 56.1144 256.124 55.5258 256.274 55.075C256.524 54.1983 256.994 53.5095 257.683 53.0086C258.384 52.4951 259.223 52.2384 260.2 52.2384C262.667 52.2384 264.057 53.5283 264.37 56.1082ZM260.2 54.1169C259.737 54.1169 259.348 54.2359 259.035 54.4738C258.735 54.6993 258.522 55.0186 258.397 55.4319C258.321 55.6448 258.271 55.9203 258.246 56.2584C258.221 56.3211 258.246 56.3524 258.321 56.3524H262.135C262.197 56.3524 262.229 56.3211 262.229 56.2584C262.204 55.9454 262.166 55.7074 262.116 55.5446C262.003 55.0938 261.778 54.7431 261.44 54.4926C261.114 54.2422 260.701 54.1169 260.2 54.1169ZM265.563 61.9879C265.475 61.9879 265.413 61.9629 265.375 61.9128C265.35 61.8502 265.363 61.7813 265.413 61.7062L268.456 57.2353C268.481 57.1977 268.481 57.1601 268.456 57.1226L265.413 52.6705C265.388 52.6204 265.375 52.5765 265.375 52.539C265.375 52.4388 265.438 52.3887 265.563 52.3887H267.404C267.517 52.3887 267.604 52.4388 267.667 52.539L269.62 55.4319C269.646 55.4569 269.671 55.4695 269.696 55.4695C269.721 55.4695 269.739 55.4569 269.752 55.4319L271.706 52.539C271.768 52.4388 271.856 52.3887 271.969 52.3887H273.941C274.029 52.3887 274.085 52.42 274.11 52.4826C274.148 52.5327 274.141 52.5953 274.091 52.6705L271.048 57.1226C271.036 57.1601 271.036 57.1977 271.048 57.2353L274.091 61.7062C274.116 61.7563 274.129 61.8001 274.129 61.8377C274.129 61.9379 274.066 61.9879 273.941 61.9879H272.1C271.987 61.9879 271.9 61.9379 271.837 61.8377L269.883 58.9447C269.871 58.9197 269.852 58.9072 269.827 58.9072C269.802 58.9072 269.777 58.9197 269.752 58.9447L267.798 61.8377C267.736 61.9379 267.648 61.9879 267.535 61.9879H265.563ZM283.89 54.8683C284.116 55.507 284.228 56.2897 284.228 57.2165C284.228 58.1057 284.122 58.8696 283.909 59.5083C283.634 60.3348 283.189 60.9798 282.575 61.4432C281.974 61.9065 281.21 62.1382 280.283 62.1382C279.394 62.1382 278.68 61.8189 278.142 61.1802C278.117 61.1551 278.092 61.1489 278.067 61.1614C278.042 61.1739 278.029 61.199 278.029 61.2365V65.3129C278.029 65.3756 278.004 65.4256 277.954 65.4632C277.917 65.5133 277.866 65.5384 277.804 65.5384H276.076C276.013 65.5384 275.957 65.5133 275.907 65.4632C275.869 65.4256 275.85 65.3756 275.85 65.3129V52.6141C275.85 52.5515 275.869 52.5014 275.907 52.4638C275.957 52.4137 276.013 52.3887 276.076 52.3887H277.804C277.866 52.3887 277.917 52.4137 277.954 52.4638C278.004 52.5014 278.029 52.5515 278.029 52.6141V53.1777C278.029 53.2152 278.042 53.2403 278.067 53.2528C278.092 53.2653 278.117 53.2528 278.142 53.2152C278.693 52.564 279.413 52.2384 280.302 52.2384C281.191 52.2384 281.943 52.4701 282.557 52.9334C283.17 53.3968 283.615 54.0418 283.89 54.8683ZM281.448 59.4707C281.824 58.8946 282.012 58.1307 282.012 57.1789C282.012 56.2647 281.861 55.5446 281.561 55.0186C281.21 54.405 280.678 54.0981 279.964 54.0981C279.313 54.0981 278.824 54.3987 278.499 54.9998C278.211 55.4882 278.067 56.2146 278.067 57.1789C278.067 58.1683 278.223 58.9197 278.536 59.4331C278.862 59.9842 279.332 60.2597 279.945 60.2597C280.609 60.2597 281.11 59.9967 281.448 59.4707ZM294.364 56.1082C294.414 56.4212 294.44 56.7719 294.44 57.1601L294.421 57.7425C294.421 57.8928 294.346 57.9679 294.195 57.9679H288.316C288.253 57.9679 288.222 57.9992 288.222 58.0618C288.259 58.4751 288.316 58.7569 288.391 58.9072C288.691 59.8089 289.424 60.266 290.589 60.2785C291.44 60.2785 292.116 59.9278 292.617 59.2265C292.667 59.1514 292.73 59.1138 292.805 59.1138C292.855 59.1138 292.899 59.1326 292.937 59.1702L294.101 60.1282C294.214 60.2159 294.233 60.3161 294.158 60.4288C293.769 60.9798 293.25 61.4056 292.599 61.7062C291.96 62.0067 291.246 62.157 290.457 62.157C289.48 62.157 288.647 61.9379 287.959 61.4995C287.282 61.0612 286.788 60.4476 286.475 59.6586C286.187 58.9823 286.042 58.043 286.042 56.8408C286.042 56.1144 286.118 55.5258 286.268 55.075C286.518 54.1983 286.988 53.5095 287.677 53.0086C288.378 52.4951 289.217 52.2384 290.194 52.2384C292.661 52.2384 294.051 53.5283 294.364 56.1082ZM290.194 54.1169C289.731 54.1169 289.342 54.2359 289.029 54.4738C288.729 54.6993 288.516 55.0186 288.391 55.4319C288.316 55.6448 288.265 55.9203 288.24 56.2584C288.215 56.3211 288.24 56.3524 288.316 56.3524H292.129C292.192 56.3524 292.223 56.3211 292.223 56.2584C292.198 55.9454 292.16 55.7074 292.11 55.5446C291.997 55.0938 291.772 54.7431 291.434 54.4926C291.108 54.2422 290.695 54.1169 290.194 54.1169ZM300.902 52.276C301.303 52.276 301.653 52.3574 301.954 52.5202C302.054 52.5703 302.092 52.6642 302.067 52.802L301.747 54.4926C301.735 54.6429 301.647 54.6867 301.484 54.6241C301.296 54.5615 301.077 54.5302 300.827 54.5302C300.664 54.5302 300.539 54.5365 300.451 54.549C299.925 54.574 299.487 54.7619 299.136 55.1125C298.785 55.4507 298.61 55.8953 298.61 56.4463V61.7625C298.61 61.8251 298.585 61.8815 298.535 61.9316C298.497 61.9692 298.447 61.9879 298.385 61.9879H296.656C296.594 61.9879 296.537 61.9692 296.487 61.9316C296.45 61.8815 296.431 61.8251 296.431 61.7625V52.6141C296.431 52.5515 296.45 52.5014 296.487 52.4638C296.537 52.4137 296.594 52.3887 296.656 52.3887H298.385C298.447 52.3887 298.497 52.4137 298.535 52.4638C298.585 52.5014 298.61 52.5515 298.61 52.6141V53.4594C298.61 53.5095 298.616 53.5408 298.629 53.5534C298.654 53.5534 298.679 53.5346 298.704 53.497C299.23 52.683 299.963 52.276 300.902 52.276ZM304.734 51.0737C304.345 51.0737 304.026 50.9485 303.776 50.698C303.525 50.4475 303.4 50.1282 303.4 49.74C303.4 49.3517 303.525 49.0324 303.776 48.7819C304.026 48.5314 304.345 48.4062 304.734 48.4062C305.122 48.4062 305.441 48.5314 305.692 48.7819C305.942 49.0324 306.067 49.3517 306.067 49.74C306.067 50.1282 305.942 50.4475 305.692 50.698C305.441 50.9485 305.122 51.0737 304.734 51.0737ZM303.832 61.9879C303.769 61.9879 303.713 61.9692 303.663 61.9316C303.625 61.8815 303.607 61.8251 303.607 61.7625V52.5953C303.607 52.5327 303.625 52.4826 303.663 52.445C303.713 52.3949 303.769 52.3699 303.832 52.3699H305.56C305.623 52.3699 305.673 52.3949 305.711 52.445C305.761 52.4826 305.786 52.5327 305.786 52.5953V61.7625C305.786 61.8251 305.761 61.8815 305.711 61.9316C305.673 61.9692 305.623 61.9879 305.56 61.9879H303.832ZM316.378 56.1082C316.428 56.4212 316.453 56.7719 316.453 57.1601L316.435 57.7425C316.435 57.8928 316.36 57.9679 316.209 57.9679H310.329C310.267 57.9679 310.236 57.9992 310.236 58.0618C310.273 58.4751 310.329 58.7569 310.405 58.9072C310.705 59.8089 311.438 60.266 312.602 60.2785C313.454 60.2785 314.13 59.9278 314.631 59.2265C314.681 59.1514 314.744 59.1138 314.819 59.1138C314.869 59.1138 314.913 59.1326 314.951 59.1702L316.115 60.1282C316.228 60.2159 316.247 60.3161 316.172 60.4288C315.783 60.9798 315.264 61.4056 314.613 61.7062C313.974 62.0067 313.26 62.157 312.471 62.157C311.494 62.157 310.661 61.9379 309.973 61.4995C309.296 61.0612 308.802 60.4476 308.489 59.6586C308.2 58.9823 308.056 58.043 308.056 56.8408C308.056 56.1144 308.132 55.5258 308.282 55.075C308.532 54.1983 309.002 53.5095 309.691 53.0086C310.392 52.4951 311.231 52.2384 312.208 52.2384C314.675 52.2384 316.065 53.5283 316.378 56.1082ZM312.208 54.1169C311.745 54.1169 311.356 54.2359 311.043 54.4738C310.743 54.6993 310.53 55.0186 310.405 55.4319C310.329 55.6448 310.279 55.9203 310.254 56.2584C310.229 56.3211 310.254 56.3524 310.329 56.3524H314.143C314.205 56.3524 314.237 56.3211 314.237 56.2584C314.212 55.9454 314.174 55.7074 314.124 55.5446C314.011 55.0938 313.786 54.7431 313.448 54.4926C313.122 54.2422 312.709 54.1169 312.208 54.1169ZM323.047 52.2384C324.062 52.2384 324.87 52.539 325.471 53.1401C326.084 53.7412 326.391 54.5615 326.391 55.601V61.7625C326.391 61.8251 326.366 61.8815 326.316 61.9316C326.278 61.9692 326.228 61.9879 326.166 61.9879H324.438C324.375 61.9879 324.319 61.9692 324.268 61.9316C324.231 61.8815 324.212 61.8251 324.212 61.7625V56.0518C324.212 55.4757 324.049 55.0124 323.724 54.6617C323.398 54.2985 322.966 54.1169 322.427 54.1169C321.889 54.1169 321.451 54.2922 321.113 54.6429C320.787 54.9936 320.624 55.4569 320.624 56.033V61.7625C320.624 61.8251 320.599 61.8815 320.549 61.9316C320.511 61.9692 320.461 61.9879 320.399 61.9879H318.67C318.608 61.9879 318.551 61.9692 318.501 61.9316C318.464 61.8815 318.445 61.8251 318.445 61.7625V52.6141C318.445 52.5515 318.464 52.5014 318.501 52.4638C318.551 52.4137 318.608 52.3887 318.67 52.3887H320.399C320.461 52.3887 320.511 52.4137 320.549 52.4638C320.599 52.5014 320.624 52.5515 320.624 52.6141V53.2152C320.624 53.2528 320.637 53.2778 320.662 53.2904C320.687 53.3029 320.706 53.2904 320.718 53.2528C321.232 52.5765 322.008 52.2384 323.047 52.2384ZM332.591 62.1382C331.627 62.1382 330.794 61.894 330.093 61.4056C329.391 60.9047 328.903 60.2347 328.627 59.3956C328.427 58.832 328.327 58.0806 328.327 57.1413C328.327 56.2397 328.427 55.5008 328.627 54.9247C328.89 54.0981 329.373 53.4469 330.074 52.971C330.788 52.4826 331.627 52.2384 332.591 52.2384C333.568 52.2384 334.419 52.4826 335.146 52.971C335.872 53.4594 336.354 54.0731 336.592 54.812C336.655 55.0124 336.699 55.2127 336.724 55.4131V55.4507C336.724 55.5759 336.655 55.651 336.517 55.6761L334.827 55.9203H334.789C334.676 55.9203 334.601 55.8577 334.564 55.7325C334.564 55.6698 334.557 55.6197 334.545 55.5822C334.52 55.482 334.495 55.3943 334.47 55.3192C334.357 54.9685 334.131 54.6805 333.793 54.4551C333.455 54.2296 333.054 54.1169 332.591 54.1169C332.115 54.1169 331.708 54.2422 331.37 54.4926C331.044 54.7306 330.825 55.0624 330.713 55.4882C330.587 55.889 330.525 56.4463 330.525 57.1601C330.525 57.8489 330.581 58.4062 330.694 58.832C330.819 59.2703 331.044 59.621 331.37 59.884C331.696 60.1345 332.103 60.2597 332.591 60.2597C333.067 60.2597 333.474 60.1407 333.812 59.9028C334.163 59.6523 334.388 59.3204 334.488 58.9072C334.501 58.8821 334.507 58.8508 334.507 58.8132C334.52 58.8007 334.526 58.7819 334.526 58.7569C334.564 58.6066 334.651 58.544 334.789 58.569L336.48 58.832C336.542 58.8445 336.592 58.8759 336.63 58.9259C336.68 58.9635 336.699 59.0199 336.686 59.095C336.649 59.2954 336.617 59.4394 336.592 59.5271C336.354 60.3286 335.872 60.9673 335.146 61.4432C334.419 61.9065 333.568 62.1382 332.591 62.1382ZM346.574 56.1082C346.624 56.4212 346.649 56.7719 346.649 57.1601L346.631 57.7425C346.631 57.8928 346.555 57.9679 346.405 57.9679H340.525C340.463 57.9679 340.431 57.9992 340.431 58.0618C340.469 58.4751 340.525 58.7569 340.6 58.9072C340.901 59.8089 341.634 60.266 342.798 60.2785C343.65 60.2785 344.326 59.9278 344.827 59.2265C344.877 59.1514 344.94 59.1138 345.015 59.1138C345.065 59.1138 345.109 59.1326 345.147 59.1702L346.311 60.1282C346.424 60.2159 346.443 60.3161 346.368 60.4288C345.979 60.9798 345.46 61.4056 344.808 61.7062C344.17 62.0067 343.456 62.157 342.667 62.157C341.69 62.157 340.857 61.9379 340.168 61.4995C339.492 61.0612 338.997 60.4476 338.684 59.6586C338.396 58.9823 338.252 58.043 338.252 56.8408C338.252 56.1144 338.327 55.5258 338.478 55.075C338.728 54.1983 339.198 53.5095 339.887 53.0086C340.588 52.4951 341.427 52.2384 342.404 52.2384C344.871 52.2384 346.261 53.5283 346.574 56.1082ZM342.404 54.1169C341.94 54.1169 341.552 54.2359 341.239 54.4738C340.939 54.6993 340.726 55.0186 340.6 55.4319C340.525 55.6448 340.475 55.9203 340.45 56.2584C340.425 56.3211 340.45 56.3524 340.525 56.3524H344.339C344.401 56.3524 344.433 56.3211 344.433 56.2584C344.408 55.9454 344.37 55.7074 344.32 55.5446C344.207 55.0938 343.982 54.7431 343.644 54.4926C343.318 54.2422 342.905 54.1169 342.404 54.1169ZM350.897 57.9679C350.834 57.9679 350.778 57.9491 350.728 57.9115C350.69 57.8614 350.671 57.8051 350.671 57.7425V56.9723C350.671 56.3712 350.822 55.889 351.122 55.5258C351.423 55.1501 351.861 54.7556 352.437 54.3423C352.938 53.9792 353.314 53.6536 353.564 53.3655C353.815 53.0649 353.94 52.6955 353.94 52.2572C353.94 51.7688 353.771 51.3805 353.433 51.0925C353.095 50.7919 352.65 50.6416 352.099 50.6416C351.523 50.6416 351.06 50.7982 350.709 51.1113C350.358 51.4244 350.183 51.8251 350.183 52.3135V52.708C350.183 52.8458 350.108 52.9147 349.958 52.9147L348.229 52.8395C348.167 52.8395 348.11 52.8145 348.06 52.7644C348.023 52.7143 348.004 52.6579 348.004 52.5953V52.3135C348.004 51.5997 348.179 50.9673 348.53 50.4162C348.881 49.8527 349.369 49.4206 349.995 49.12C350.621 48.807 351.341 48.6504 352.155 48.6504C353.37 48.6504 354.341 48.976 355.067 49.6272C355.794 50.2659 356.157 51.1175 356.157 52.182C356.157 52.7331 356.057 53.209 355.856 53.6097C355.668 54.0105 355.443 54.3361 355.18 54.5866C354.929 54.837 354.585 55.1188 354.147 55.4319C353.708 55.745 353.383 56.0205 353.17 56.2584C352.957 56.4839 352.85 56.7656 352.85 57.1038V57.7425C352.85 57.8051 352.825 57.8614 352.775 57.9115C352.738 57.9491 352.688 57.9679 352.625 57.9679H350.897ZM351.705 62.0067C351.316 62.0067 350.997 61.8815 350.747 61.631C350.496 61.3806 350.371 61.0612 350.371 60.673C350.371 60.2847 350.496 59.9717 350.747 59.7337C350.997 59.4832 351.316 59.358 351.705 59.358C352.093 59.358 352.406 59.4832 352.644 59.7337C352.894 59.9717 353.02 60.2847 353.02 60.673C353.02 61.0612 352.894 61.3806 352.644 61.631C352.393 61.8815 352.08 62.0067 351.705 62.0067Z" fill="white"/>
</svg>
