<svg width="383" height="121" viewBox="0 0 383 121" fill="none" xmlns="http://www.w3.org/2000/svg">
<rect width="379.462" height="108.015" rx="48.8417" transform="matrix(-1 0 0 1 379.801 0.450317)" fill="#F25C05"/>
<path d="M368.622 93.0807C367.328 90.5911 364.399 89.4329 361.752 90.3639L356.59 92.1793C356.311 92.2775 356.025 92.3535 355.734 92.4067L332.277 96.694C332.109 96.7246 331.94 96.74 331.769 96.74C328.601 96.74 327.84 101.159 330.826 102.218L369.514 115.95C374.336 117.661 378.759 112.579 376.399 108.039L368.622 93.0807Z" fill="#F25C05"/>
<path d="M50.251 40.2644C49.3117 40.2644 48.4851 40.0828 47.7713 39.7196C47.0575 39.3439 46.5064 38.818 46.1182 38.1417C45.73 37.4654 45.5359 36.689 45.5359 35.8123V31.2663C45.5359 30.3771 45.73 29.6006 46.1182 28.9369C46.5064 28.2606 47.0575 27.7409 47.7713 27.3777C48.4851 27.002 49.3117 26.8142 50.251 26.8142C51.1777 26.8142 51.9917 26.9958 52.693 27.3589C53.4069 27.7221 53.9579 28.2168 54.3462 28.843C54.7344 29.4692 54.9285 30.1767 54.9285 30.9657V31.116C54.9285 31.1786 54.9034 31.235 54.8534 31.2851C54.8158 31.3226 54.7657 31.3414 54.7031 31.3414H52.9936C52.931 31.3414 52.8746 31.3226 52.8245 31.2851C52.787 31.235 52.7682 31.1786 52.7682 31.116V31.0221C52.7682 30.3458 52.5365 29.7885 52.0731 29.3502C51.6223 28.9119 51.0149 28.6927 50.251 28.6927C49.487 28.6927 48.8734 28.9244 48.41 29.3877C47.9466 29.8386 47.715 30.4397 47.715 31.1911V35.8875C47.715 36.6389 47.9592 37.2463 48.4476 37.7096C48.936 38.1605 49.5684 38.3859 50.3449 38.3859C51.0963 38.3859 51.6849 38.1918 52.1107 37.8035C52.549 37.4028 52.7682 36.858 52.7682 36.1692V35.0045C52.7682 34.9419 52.7369 34.9106 52.6743 34.9106H50.3637C50.3011 34.9106 50.2447 34.8918 50.1946 34.8543C50.157 34.8042 50.1383 34.7478 50.1383 34.6852V33.2951C50.1383 33.2325 50.157 33.1824 50.1946 33.1448C50.2447 33.0947 50.3011 33.0697 50.3637 33.0697H54.7031C54.7657 33.0697 54.8158 33.0947 54.8534 33.1448C54.9034 33.1824 54.9285 33.2325 54.9285 33.2951V35.6996C54.9285 37.1398 54.5027 38.2607 53.6511 39.0622C52.812 39.8637 51.6786 40.2644 50.251 40.2644ZM61.2273 40.2644C60.2379 40.2644 59.3863 40.0139 58.6725 39.513C57.9712 39.0121 57.4765 38.317 57.1884 37.4278C56.9755 36.7516 56.8691 36.0377 56.8691 35.2863C56.8691 34.4848 56.9693 33.771 57.1697 33.1448C57.4577 32.2682 57.9586 31.5856 58.6725 31.0972C59.3863 30.6088 60.2442 30.3646 61.2461 30.3646C62.1979 30.3646 63.0181 30.6088 63.7069 31.0972C64.4083 31.5856 64.9029 32.2619 65.191 33.126C65.4164 33.7271 65.5291 34.441 65.5291 35.2675C65.5291 36.0565 65.4227 36.7704 65.2098 37.4091C64.9217 38.2982 64.427 38.9995 63.7257 39.513C63.0244 40.0139 62.1916 40.2644 61.2273 40.2644ZM61.2273 38.3859C61.6907 38.3859 62.0851 38.2544 62.4108 37.9914C62.7489 37.7284 62.9931 37.359 63.1434 36.8831C63.2686 36.4698 63.3312 35.9438 63.3312 35.3051C63.3312 34.6288 63.2686 34.1029 63.1434 33.7271C63.0056 33.2513 62.7677 32.8881 62.4295 32.6376C62.0914 32.3746 61.6781 32.2431 61.1897 32.2431C60.7263 32.2431 60.3256 32.3746 59.9875 32.6376C59.6493 32.8881 59.4051 33.2513 59.2548 33.7271C59.1296 34.1655 59.067 34.6915 59.067 35.3051C59.067 35.9188 59.1296 36.4447 59.2548 36.8831C59.3926 37.359 59.6305 37.7284 59.9687 37.9914C60.3193 38.2544 60.7389 38.3859 61.2273 38.3859ZM72.4782 32.0553C72.4782 32.1179 72.4531 32.1742 72.403 32.2243C72.3655 32.2619 72.3154 32.2807 72.2528 32.2807H70.3367C70.274 32.2807 70.2427 32.312 70.2427 32.3746V36.9019C70.2427 37.3777 70.3429 37.7221 70.5433 37.935C70.7562 38.1479 71.0881 38.2544 71.5389 38.2544H72.1025C72.1651 38.2544 72.2152 38.2794 72.2528 38.3295C72.3029 38.3671 72.3279 38.4172 72.3279 38.4798V39.8887C72.3279 40.0265 72.2528 40.1079 72.1025 40.1329L71.1256 40.1517C70.1363 40.1517 69.3974 39.9826 68.909 39.6445C68.4206 39.3064 68.1701 38.6677 68.1576 37.7284V32.3746C68.1576 32.312 68.1263 32.2807 68.0636 32.2807H66.9929C66.9303 32.2807 66.8739 32.2619 66.8238 32.2243C66.7863 32.1742 66.7675 32.1179 66.7675 32.0553V30.7403C66.7675 30.6777 66.7863 30.6276 66.8238 30.59C66.8739 30.5399 66.9303 30.5149 66.9929 30.5149H68.0636C68.1263 30.5149 68.1576 30.4836 68.1576 30.4209V28.2231C68.1576 28.1604 68.1764 28.1104 68.2139 28.0728C68.264 28.0227 68.3204 27.9976 68.383 27.9976H70.0173C70.0799 27.9976 70.13 28.0227 70.1676 28.0728C70.2177 28.1104 70.2427 28.1604 70.2427 28.2231V30.4209C70.2427 30.4836 70.274 30.5149 70.3367 30.5149H72.2528C72.3154 30.5149 72.3655 30.5399 72.403 30.59C72.4531 30.6276 72.4782 30.6777 72.4782 30.7403V32.0553ZM79.4141 29.1999C79.0258 29.1999 78.7065 29.0747 78.456 28.8242C78.2055 28.5737 78.0803 28.2544 78.0803 27.8661C78.0803 27.4779 78.2055 27.1586 78.456 26.9081C78.7065 26.6576 79.0258 26.5324 79.4141 26.5324C79.8023 26.5324 80.1216 26.6576 80.3721 26.9081C80.6226 27.1586 80.7478 27.4779 80.7478 27.8661C80.7478 28.2544 80.6226 28.5737 80.3721 28.8242C80.1216 29.0747 79.8023 29.1999 79.4141 29.1999ZM78.5124 40.1141C78.4497 40.1141 78.3934 40.0954 78.3433 40.0578C78.3057 40.0077 78.2869 39.9513 78.2869 39.8887V30.7215C78.2869 30.6589 78.3057 30.6088 78.3433 30.5712C78.3934 30.5211 78.4497 30.4961 78.5124 30.4961H80.2406C80.3032 30.4961 80.3533 30.5211 80.3909 30.5712C80.441 30.6088 80.466 30.6589 80.466 30.7215V39.8887C80.466 39.9513 80.441 40.0077 80.3909 40.0578C80.3533 40.0954 80.3032 40.1141 80.2406 40.1141H78.5124ZM88.0531 32.0553C88.0531 32.1179 88.028 32.1742 87.9779 32.2243C87.9404 32.2619 87.8903 32.2807 87.8277 32.2807H85.9116C85.8489 32.2807 85.8176 32.312 85.8176 32.3746V36.9019C85.8176 37.3777 85.9178 37.7221 86.1182 37.935C86.3311 38.1479 86.663 38.2544 87.1138 38.2544H87.6774C87.74 38.2544 87.7901 38.2794 87.8277 38.3295C87.8777 38.3671 87.9028 38.4172 87.9028 38.4798V39.8887C87.9028 40.0265 87.8277 40.1079 87.6774 40.1329L86.7005 40.1517C85.7112 40.1517 84.9723 39.9826 84.4839 39.6445C83.9955 39.3064 83.745 38.6677 83.7325 37.7284V32.3746C83.7325 32.312 83.7012 32.2807 83.6385 32.2807H82.5678C82.5052 32.2807 82.4488 32.2619 82.3987 32.2243C82.3611 32.1742 82.3424 32.1179 82.3424 32.0553V30.7403C82.3424 30.6777 82.3611 30.6276 82.3987 30.59C82.4488 30.5399 82.5052 30.5149 82.5678 30.5149H83.6385C83.7012 30.5149 83.7325 30.4836 83.7325 30.4209V28.2231C83.7325 28.1604 83.7513 28.1104 83.7888 28.0728C83.8389 28.0227 83.8953 27.9976 83.9579 27.9976H85.5922C85.6548 27.9976 85.7049 28.0227 85.7425 28.0728C85.7926 28.1104 85.8176 28.1604 85.8176 28.2231V30.4209C85.8176 30.4836 85.8489 30.5149 85.9116 30.5149H87.8277C87.8903 30.5149 87.9404 30.5399 87.9779 30.59C88.028 30.6276 88.0531 30.6777 88.0531 30.7403V32.0553ZM91.3222 40.1517C90.9339 40.1517 90.6146 40.0265 90.3641 39.776C90.1136 39.5255 89.9884 39.2062 89.9884 38.818C89.9884 38.4297 90.1136 38.1104 90.3641 37.8599C90.6146 37.6094 90.9339 37.4842 91.3222 37.4842C91.7104 37.4842 92.0235 37.6094 92.2614 37.8599C92.5119 38.1104 92.6371 38.4297 92.6371 38.818C92.6371 39.2062 92.5119 39.5255 92.2614 39.776C92.0109 40.0265 91.6979 40.1517 91.3222 40.1517ZM107.734 26.9645C107.796 26.9645 107.846 26.9895 107.884 27.0396C107.934 27.0772 107.959 27.1273 107.959 27.1899V28.6363C107.959 28.699 107.934 28.7553 107.884 28.8054C107.846 28.843 107.796 28.8618 107.734 28.8618H104.277C104.214 28.8618 104.183 28.8931 104.183 28.9557V39.8887C104.183 39.9513 104.158 40.0077 104.108 40.0578C104.07 40.0954 104.02 40.1141 103.958 40.1141H102.229C102.167 40.1141 102.111 40.0954 102.06 40.0578C102.023 40.0077 102.004 39.9513 102.004 39.8887V28.9557C102.004 28.8931 101.973 28.8618 101.91 28.8618H98.5852C98.5225 28.8618 98.4662 28.843 98.4161 28.8054C98.3785 28.7553 98.3597 28.699 98.3597 28.6363V27.1899C98.3597 27.1273 98.3785 27.0772 98.4161 27.0396C98.4662 26.9895 98.5225 26.9645 98.5852 26.9645H107.734ZM114.367 30.3646C115.381 30.3646 116.189 30.6651 116.79 31.2663C117.404 31.8674 117.71 32.6877 117.71 33.7271V39.8887C117.71 39.9513 117.685 40.0077 117.635 40.0578C117.598 40.0954 117.548 40.1141 117.485 40.1141H115.757C115.694 40.1141 115.638 40.0954 115.588 40.0578C115.55 40.0077 115.531 39.9513 115.531 39.8887V34.178C115.531 33.6019 115.369 33.1385 115.043 32.7879C114.717 32.4247 114.285 32.2431 113.747 32.2431C113.208 32.2431 112.77 32.4184 112.432 32.7691C112.106 33.1198 111.943 33.5831 111.943 34.1592V39.8887C111.943 39.9513 111.918 40.0077 111.868 40.0578C111.831 40.0954 111.781 40.1141 111.718 40.1141H109.99C109.927 40.1141 109.871 40.0954 109.821 40.0578C109.783 40.0077 109.764 39.9513 109.764 39.8887V27.1899C109.764 27.1273 109.783 27.0772 109.821 27.0396C109.871 26.9895 109.927 26.9645 109.99 26.9645H111.718C111.781 26.9645 111.831 26.9895 111.868 27.0396C111.918 27.0772 111.943 27.1273 111.943 27.1899V31.3414C111.943 31.379 111.956 31.404 111.981 31.4166C112.006 31.4291 112.025 31.4166 112.037 31.379C112.551 30.7027 113.327 30.3646 114.367 30.3646ZM123.646 30.3646C124.435 30.3646 125.13 30.5023 125.731 30.7779C126.332 31.0534 126.795 31.4353 127.121 31.9238C127.446 32.3997 127.609 32.9444 127.609 33.5581V39.8887C127.609 39.9513 127.584 40.0077 127.534 40.0578C127.497 40.0954 127.446 40.1141 127.384 40.1141H125.656C125.593 40.1141 125.537 40.0954 125.487 40.0578C125.449 40.0077 125.43 39.9513 125.43 39.8887V39.2876C125.43 39.25 125.418 39.2312 125.393 39.2312C125.368 39.2187 125.343 39.225 125.317 39.25C124.704 39.9263 123.815 40.2644 122.65 40.2644C121.711 40.2644 120.934 40.0265 120.321 39.5506C119.719 39.0747 119.419 38.3671 119.419 37.4278C119.419 36.451 119.757 35.6933 120.433 35.1548C121.122 34.6038 122.086 34.3283 123.326 34.3283H125.336C125.399 34.3283 125.43 34.297 125.43 34.2343V33.7835C125.43 33.2951 125.286 32.9194 124.998 32.6564C124.71 32.3809 124.278 32.2431 123.702 32.2431C123.226 32.2431 122.838 32.3308 122.537 32.5061C122.249 32.6689 122.068 32.9006 121.992 33.2012C121.955 33.3514 121.867 33.4141 121.729 33.389L119.907 33.1636C119.845 33.1511 119.788 33.1323 119.738 33.1072C119.701 33.0697 119.688 33.0258 119.701 32.9757C119.801 32.2118 120.208 31.5856 120.922 31.0972C121.648 30.6088 122.556 30.3646 123.646 30.3646ZM123.195 38.5362C123.808 38.5362 124.334 38.3734 124.773 38.0478C125.211 37.7221 125.43 37.3089 125.43 36.8079V35.925C125.43 35.8624 125.399 35.8311 125.336 35.8311H123.758C123.095 35.8311 122.569 35.9563 122.18 36.2068C121.805 36.4573 121.617 36.8142 121.617 37.2776C121.617 37.6783 121.761 37.9914 122.049 38.2168C122.349 38.4297 122.731 38.5362 123.195 38.5362ZM134.741 32.0553C134.741 32.1179 134.716 32.1742 134.666 32.2243C134.628 32.2619 134.578 32.2807 134.516 32.2807H132.6C132.537 32.2807 132.506 32.312 132.506 32.3746V36.9019C132.506 37.3777 132.606 37.7221 132.806 37.935C133.019 38.1479 133.351 38.2544 133.802 38.2544H134.365C134.428 38.2544 134.478 38.2794 134.516 38.3295C134.566 38.3671 134.591 38.4172 134.591 38.4798V39.8887C134.591 40.0265 134.516 40.1079 134.365 40.1329L133.389 40.1517C132.399 40.1517 131.66 39.9826 131.172 39.6445C130.683 39.3064 130.433 38.6677 130.42 37.7284V32.3746C130.42 32.312 130.389 32.2807 130.327 32.2807H129.256C129.193 32.2807 129.137 32.2619 129.087 32.2243C129.049 32.1742 129.03 32.1179 129.03 32.0553V30.7403C129.03 30.6777 129.049 30.6276 129.087 30.59C129.137 30.5399 129.193 30.5149 129.256 30.5149H130.327C130.389 30.5149 130.42 30.4836 130.42 30.4209V28.2231C130.42 28.1604 130.439 28.1104 130.477 28.0728C130.527 28.0227 130.583 27.9976 130.646 27.9976H132.28C132.343 27.9976 132.393 28.0227 132.43 28.0728C132.481 28.1104 132.506 28.1604 132.506 28.2231V30.4209C132.506 30.4836 132.537 30.5149 132.6 30.5149H134.516C134.578 30.5149 134.628 30.5399 134.666 30.59C134.716 30.6276 134.741 30.6777 134.741 30.7403V32.0553ZM138.63 26.9645C138.718 26.9645 138.774 26.9895 138.799 27.0396C138.824 27.0897 138.824 27.1523 138.799 27.2274L137.315 30.8906C137.278 31.0033 137.19 31.0596 137.052 31.0596H135.775C135.7 31.0596 135.643 31.0409 135.606 31.0033C135.581 30.9532 135.574 30.8906 135.587 30.8154L136.639 27.1523C136.676 27.0271 136.764 26.9645 136.902 26.9645H138.63ZM142.355 40.2268C141.566 40.2268 140.871 40.1141 140.27 39.8887C139.681 39.6508 139.224 39.3314 138.899 38.9307C138.573 38.5174 138.41 38.0603 138.41 37.5593V37.3903C138.41 37.3277 138.429 37.2776 138.467 37.24C138.517 37.1899 138.573 37.1648 138.636 37.1648H140.289C140.351 37.1648 140.402 37.1899 140.439 37.24C140.489 37.2776 140.514 37.3277 140.514 37.3903V37.4278C140.514 37.7409 140.683 38.0164 141.022 38.2544C141.372 38.4798 141.81 38.5925 142.336 38.5925C142.837 38.5925 143.244 38.4923 143.558 38.292C143.871 38.0791 144.027 37.8161 144.027 37.503C144.027 37.2149 143.896 37.002 143.633 36.8643C143.382 36.714 142.969 36.5575 142.393 36.3947L141.679 36.1692C141.04 35.9814 140.502 35.781 140.063 35.5681C139.625 35.3552 139.256 35.0672 138.955 34.704C138.655 34.3283 138.504 33.8524 138.504 33.2763C138.504 32.3997 138.849 31.7046 139.537 31.1911C140.226 30.6651 141.134 30.4022 142.261 30.4022C143.025 30.4022 143.695 30.5274 144.271 30.7779C144.847 31.0158 145.292 31.3539 145.605 31.7923C145.918 32.2181 146.075 32.7065 146.075 33.2575C146.075 33.3201 146.05 33.3765 146 33.4266C145.962 33.4642 145.912 33.4829 145.849 33.4829H144.253C144.19 33.4829 144.134 33.4642 144.083 33.4266C144.046 33.3765 144.027 33.3201 144.027 33.2575C144.027 32.9319 143.864 32.6626 143.539 32.4497C143.226 32.2243 142.794 32.1116 142.243 32.1116C141.754 32.1116 141.353 32.2055 141.04 32.3934C140.74 32.5687 140.589 32.8192 140.589 33.1448C140.589 33.4454 140.733 33.6771 141.022 33.8399C141.322 33.9901 141.817 34.1592 142.506 34.3471L142.919 34.4598C143.583 34.6601 144.14 34.8668 144.591 35.0797C145.042 35.2801 145.424 35.5681 145.737 35.9438C146.05 36.307 146.206 36.7829 146.206 37.3715C146.206 38.2607 145.856 38.962 145.154 39.4754C144.453 39.9764 143.52 40.2268 142.355 40.2268ZM156.413 30.3646C157.428 30.3646 158.236 30.6651 158.837 31.2663C159.45 31.8674 159.757 32.6877 159.757 33.7271V39.8887C159.757 39.9513 159.732 40.0077 159.682 40.0578C159.644 40.0954 159.594 40.1141 159.532 40.1141H157.803C157.741 40.1141 157.685 40.0954 157.634 40.0578C157.597 40.0077 157.578 39.9513 157.578 39.8887V34.178C157.578 33.6019 157.415 33.1385 157.09 32.7879C156.764 32.4247 156.332 32.2431 155.793 32.2431C155.255 32.2431 154.817 32.4184 154.479 32.7691C154.153 33.1198 153.99 33.5831 153.99 34.1592V39.8887C153.99 39.9513 153.965 40.0077 153.915 40.0578C153.877 40.0954 153.827 40.1141 153.765 40.1141H152.036C151.974 40.1141 151.917 40.0954 151.867 40.0578C151.83 40.0077 151.811 39.9513 151.811 39.8887V27.1899C151.811 27.1273 151.83 27.0772 151.867 27.0396C151.917 26.9895 151.974 26.9645 152.036 26.9645H153.765C153.827 26.9645 153.877 26.9895 153.915 27.0396C153.965 27.0772 153.99 27.1273 153.99 27.1899V31.3414C153.99 31.379 154.003 31.404 154.028 31.4166C154.053 31.4291 154.071 31.4166 154.084 31.379C154.597 30.7027 155.374 30.3646 156.413 30.3646ZM170.052 34.2343C170.102 34.5474 170.127 34.8981 170.127 35.2863L170.109 35.8687C170.109 36.0189 170.033 36.0941 169.883 36.0941H164.003C163.941 36.0941 163.909 36.1254 163.909 36.188C163.947 36.6013 164.003 36.8831 164.079 37.0334C164.379 37.935 165.112 38.3922 166.276 38.4047C167.128 38.4047 167.804 38.054 168.305 37.3527C168.355 37.2776 168.418 37.24 168.493 37.24C168.543 37.24 168.587 37.2588 168.625 37.2963L169.789 38.2544C169.902 38.3421 169.921 38.4422 169.846 38.555C169.457 39.106 168.938 39.5318 168.286 39.8324C167.648 40.1329 166.934 40.2832 166.145 40.2832C165.168 40.2832 164.335 40.064 163.646 39.6257C162.97 39.1874 162.475 38.5737 162.162 37.7848C161.874 37.1085 161.73 36.1692 161.73 34.967C161.73 34.2406 161.805 33.652 161.956 33.2012C162.206 32.3245 162.676 31.6357 163.365 31.1348C164.066 30.6213 164.905 30.3646 165.882 30.3646C168.349 30.3646 169.739 31.6545 170.052 34.2343ZM165.882 32.2431C165.419 32.2431 165.03 32.3621 164.717 32.6C164.417 32.8255 164.204 33.1448 164.079 33.5581C164.003 33.771 163.953 34.0465 163.928 34.3846C163.903 34.4472 163.928 34.4786 164.003 34.4786H167.817C167.879 34.4786 167.911 34.4472 167.911 34.3846C167.886 34.0715 167.848 33.8336 167.798 33.6708C167.685 33.2199 167.46 32.8693 167.122 32.6188C166.796 32.3683 166.383 32.2431 165.882 32.2431ZM172.344 40.1141C172.282 40.1141 172.225 40.0954 172.175 40.0578C172.138 40.0077 172.119 39.9513 172.119 39.8887V27.1899C172.119 27.1273 172.138 27.0772 172.175 27.0396C172.225 26.9895 172.282 26.9645 172.344 26.9645H174.073C174.135 26.9645 174.185 26.9895 174.223 27.0396C174.273 27.0772 174.298 27.1273 174.298 27.1899V39.8887C174.298 39.9513 174.273 40.0077 174.223 40.0578C174.185 40.0954 174.135 40.1141 174.073 40.1141H172.344ZM184.747 32.9945C184.973 33.6332 185.086 34.4159 185.086 35.3427C185.086 36.2318 184.979 36.9958 184.766 37.6345C184.491 38.461 184.046 39.106 183.432 39.5694C182.831 40.0327 182.067 40.2644 181.141 40.2644C180.251 40.2644 179.538 39.9451 178.999 39.3064C178.974 39.2813 178.949 39.2751 178.924 39.2876C178.899 39.3001 178.886 39.3252 178.886 39.3627V43.4391C178.886 43.5017 178.861 43.5518 178.811 43.5894C178.774 43.6395 178.724 43.6646 178.661 43.6646H176.933C176.87 43.6646 176.814 43.6395 176.764 43.5894C176.726 43.5518 176.707 43.5017 176.707 43.4391V30.7403C176.707 30.6777 176.726 30.6276 176.764 30.59C176.814 30.5399 176.87 30.5149 176.933 30.5149H178.661C178.724 30.5149 178.774 30.5399 178.811 30.59C178.861 30.6276 178.886 30.6777 178.886 30.7403V31.3038C178.886 31.3414 178.899 31.3665 178.924 31.379C178.949 31.3915 178.974 31.379 178.999 31.3414C179.55 30.6902 180.27 30.3646 181.159 30.3646C182.049 30.3646 182.8 30.5963 183.414 31.0596C184.027 31.523 184.472 32.168 184.747 32.9945ZM182.305 37.5969C182.681 37.0208 182.869 36.2569 182.869 35.3051C182.869 34.3909 182.719 33.6708 182.418 33.1448C182.067 32.5312 181.535 32.2243 180.821 32.2243C180.17 32.2243 179.682 32.5249 179.356 33.126C179.068 33.6144 178.924 34.3408 178.924 35.3051C178.924 36.2945 179.081 37.0459 179.394 37.5593C179.719 38.1104 180.189 38.3859 180.803 38.3859C181.466 38.3859 181.967 38.1229 182.305 37.5969ZM192.195 30.4961C192.258 30.4961 192.308 30.5211 192.346 30.5712C192.396 30.6088 192.421 30.6589 192.421 30.7215V32.2055C192.421 32.2682 192.396 32.3245 192.346 32.3746C192.308 32.4122 192.258 32.431 192.195 32.431H190.336C190.273 32.431 190.242 32.4623 190.242 32.5249V39.8887C190.242 39.9513 190.217 40.0077 190.167 40.0578C190.129 40.0954 190.079 40.1141 190.016 40.1141H188.288C188.225 40.1141 188.169 40.0954 188.119 40.0578C188.081 40.0077 188.063 39.9513 188.063 39.8887V32.5249C188.063 32.4623 188.031 32.431 187.969 32.431H186.804C186.741 32.431 186.685 32.4122 186.635 32.3746C186.597 32.3245 186.579 32.2682 186.579 32.2055V30.7215C186.579 30.6589 186.597 30.6088 186.635 30.5712C186.685 30.5211 186.741 30.4961 186.804 30.4961H187.969C188.031 30.4961 188.063 30.4648 188.063 30.4022V30.064C188.063 29.25 188.169 28.6238 188.382 28.1855C188.595 27.7346 188.945 27.4153 189.434 27.2274C189.922 27.0396 190.611 26.9519 191.5 26.9645H192.158C192.22 26.9645 192.27 26.9895 192.308 27.0396C192.358 27.0772 192.383 27.1273 192.383 27.1899V28.5048C192.383 28.5675 192.358 28.6238 192.308 28.6739C192.27 28.7115 192.22 28.7303 192.158 28.7303H191.669C191.131 28.7303 190.755 28.8367 190.542 29.0496C190.342 29.2625 190.242 29.6507 190.242 30.2143V30.4022C190.242 30.4648 190.273 30.4961 190.336 30.4961H192.195ZM199.934 30.7403C199.934 30.6777 199.953 30.6276 199.991 30.59C200.041 30.5399 200.097 30.5149 200.16 30.5149H201.869C201.932 30.5149 201.982 30.5399 202.02 30.59C202.07 30.6276 202.095 30.6777 202.095 30.7403V39.8887C202.095 39.9513 202.07 40.0077 202.02 40.0578C201.982 40.0954 201.932 40.1141 201.869 40.1141H200.16C200.097 40.1141 200.041 40.0954 199.991 40.0578C199.953 40.0077 199.934 39.9513 199.934 39.8887V39.2876C199.934 39.25 199.922 39.225 199.897 39.2124C199.872 39.1999 199.847 39.2124 199.822 39.25C199.308 39.9138 198.538 40.2456 197.511 40.2456C196.559 40.2456 195.758 39.9701 195.107 39.4191C194.468 38.868 194.149 38.0853 194.149 37.0709V30.7403C194.149 30.6777 194.167 30.6276 194.205 30.59C194.255 30.5399 194.311 30.5149 194.374 30.5149H196.102C196.165 30.5149 196.215 30.5399 196.253 30.59C196.303 30.6276 196.328 30.6777 196.328 30.7403V36.451C196.328 37.0396 196.478 37.5092 196.779 37.8599C197.092 38.2106 197.524 38.3859 198.075 38.3859C198.638 38.3859 199.089 38.2106 199.427 37.8599C199.765 37.5092 199.934 37.0396 199.934 36.451V30.7403ZM204.65 40.1141C204.587 40.1141 204.531 40.0954 204.481 40.0578C204.443 40.0077 204.424 39.9513 204.424 39.8887V27.1899C204.424 27.1273 204.443 27.0772 204.481 27.0396C204.531 26.9895 204.587 26.9645 204.65 26.9645H206.378C206.441 26.9645 206.491 26.9895 206.528 27.0396C206.578 27.0772 206.603 27.1273 206.603 27.1899V39.8887C206.603 39.9513 206.578 40.0077 206.528 40.0578C206.491 40.0954 206.441 40.1141 206.378 40.1141H204.65ZM217.77 32.0553C217.77 32.1179 217.745 32.1742 217.695 32.2243C217.658 32.2619 217.608 32.2807 217.545 32.2807H215.629C215.566 32.2807 215.535 32.312 215.535 32.3746V36.9019C215.535 37.3777 215.635 37.7221 215.836 37.935C216.048 38.1479 216.38 38.2544 216.831 38.2544H217.395C217.457 38.2544 217.507 38.2794 217.545 38.3295C217.595 38.3671 217.62 38.4172 217.62 38.4798V39.8887C217.62 40.0265 217.545 40.1079 217.395 40.1329L216.418 40.1517C215.429 40.1517 214.69 39.9826 214.201 39.6445C213.713 39.3064 213.462 38.6677 213.45 37.7284V32.3746C213.45 32.312 213.419 32.2807 213.356 32.2807H212.285C212.223 32.2807 212.166 32.2619 212.116 32.2243C212.079 32.1742 212.06 32.1179 212.06 32.0553V30.7403C212.06 30.6777 212.079 30.6276 212.116 30.59C212.166 30.5399 212.223 30.5149 212.285 30.5149H213.356C213.419 30.5149 213.45 30.4836 213.45 30.4209V28.2231C213.45 28.1604 213.469 28.1104 213.506 28.0728C213.556 28.0227 213.613 27.9976 213.675 27.9976H215.31C215.372 27.9976 215.422 28.0227 215.46 28.0728C215.51 28.1104 215.535 28.1604 215.535 28.2231V30.4209C215.535 30.4836 215.566 30.5149 215.629 30.5149H217.545C217.608 30.5149 217.658 30.5399 217.695 30.59C217.745 30.6276 217.77 30.6777 217.77 30.7403V32.0553ZM223.599 40.2644C222.609 40.2644 221.758 40.0139 221.044 39.513C220.343 39.0121 219.848 38.317 219.56 37.4278C219.347 36.7516 219.241 36.0377 219.241 35.2863C219.241 34.4848 219.341 33.771 219.541 33.1448C219.829 32.2682 220.33 31.5856 221.044 31.0972C221.758 30.6088 222.616 30.3646 223.618 30.3646C224.569 30.3646 225.39 30.6088 226.078 31.0972C226.78 31.5856 227.274 32.2619 227.562 33.126C227.788 33.7271 227.901 34.441 227.901 35.2675C227.901 36.0565 227.794 36.7704 227.581 37.4091C227.293 38.2982 226.798 38.9995 226.097 39.513C225.396 40.0139 224.563 40.2644 223.599 40.2644ZM223.599 38.3859C224.062 38.3859 224.457 38.2544 224.782 37.9914C225.12 37.7284 225.365 37.359 225.515 36.8831C225.64 36.4698 225.703 35.9438 225.703 35.3051C225.703 34.6288 225.64 34.1029 225.515 33.7271C225.377 33.2513 225.139 32.8881 224.801 32.6376C224.463 32.3746 224.05 32.2431 223.561 32.2431C223.098 32.2431 222.697 32.3746 222.359 32.6376C222.021 32.8881 221.777 33.2513 221.626 33.7271C221.501 34.1655 221.438 34.6915 221.438 35.3051C221.438 35.9188 221.501 36.4447 221.626 36.8831C221.764 37.359 222.002 37.7284 222.34 37.9914C222.691 38.2544 223.11 38.3859 223.599 38.3859ZM233.947 40.1141C233.884 40.1141 233.828 40.0954 233.778 40.0578C233.74 40.0077 233.721 39.9513 233.721 39.8887V27.1899C233.721 27.1273 233.74 27.0772 233.778 27.0396C233.828 26.9895 233.884 26.9645 233.947 26.9645H235.675C235.738 26.9645 235.788 26.9895 235.825 27.0396C235.875 27.0772 235.9 27.1273 235.9 27.1899V33.9714C235.9 34.0089 235.913 34.034 235.938 34.0465C235.963 34.059 235.988 34.0465 236.013 34.0089L239.056 30.6464C239.144 30.5587 239.238 30.5149 239.338 30.5149H241.329C241.455 30.5149 241.517 30.5587 241.517 30.6464C241.517 30.6839 241.498 30.734 241.461 30.7966L239.075 33.652C239.038 33.6896 239.031 33.7334 239.056 33.7835L241.874 39.8511C241.899 39.9012 241.912 39.9388 241.912 39.9639C241.912 40.064 241.843 40.1141 241.705 40.1141H239.883C239.758 40.1141 239.67 40.0578 239.62 39.9451L237.572 35.1736C237.56 35.1486 237.535 35.136 237.497 35.136C237.472 35.1235 237.453 35.1298 237.441 35.1548L235.938 36.8831C235.913 36.9332 235.9 36.977 235.9 37.0146V39.8887C235.9 39.9513 235.875 40.0077 235.825 40.0578C235.788 40.0954 235.738 40.1141 235.675 40.1141H233.947ZM248.138 30.3646C249.153 30.3646 249.96 30.6651 250.562 31.2663C251.175 31.8674 251.482 32.6877 251.482 33.7271V39.8887C251.482 39.9513 251.457 40.0077 251.407 40.0578C251.369 40.0954 251.319 40.1141 251.257 40.1141H249.528C249.466 40.1141 249.409 40.0954 249.359 40.0578C249.322 40.0077 249.303 39.9513 249.303 39.8887V34.178C249.303 33.6019 249.14 33.1385 248.815 32.7879C248.489 32.4247 248.057 32.2431 247.518 32.2431C246.98 32.2431 246.542 32.4184 246.203 32.7691C245.878 33.1198 245.715 33.5831 245.715 34.1592V39.8887C245.715 39.9513 245.69 40.0077 245.64 40.0578C245.602 40.0954 245.552 40.1141 245.49 40.1141H243.761C243.699 40.1141 243.642 40.0954 243.592 40.0578C243.555 40.0077 243.536 39.9513 243.536 39.8887V30.7403C243.536 30.6777 243.555 30.6276 243.592 30.59C243.642 30.5399 243.699 30.5149 243.761 30.5149H245.49C245.552 30.5149 245.602 30.5399 245.64 30.59C245.69 30.6276 245.715 30.6777 245.715 30.7403V31.3414C245.715 31.379 245.728 31.404 245.753 31.4166C245.778 31.4291 245.796 31.4166 245.809 31.379C246.322 30.7027 247.099 30.3646 248.138 30.3646ZM257.757 40.2644C256.768 40.2644 255.916 40.0139 255.202 39.513C254.501 39.0121 254.006 38.317 253.718 37.4278C253.505 36.7516 253.399 36.0377 253.399 35.2863C253.399 34.4848 253.499 33.771 253.699 33.1448C253.988 32.2682 254.488 31.5856 255.202 31.0972C255.916 30.6088 256.774 30.3646 257.776 30.3646C258.728 30.3646 259.548 30.6088 260.237 31.0972C260.938 31.5856 261.433 32.2619 261.721 33.126C261.946 33.7271 262.059 34.441 262.059 35.2675C262.059 36.0565 261.952 36.7704 261.74 37.4091C261.452 38.2982 260.957 38.9995 260.256 39.513C259.554 40.0139 258.721 40.2644 257.757 40.2644ZM257.757 38.3859C258.22 38.3859 258.615 38.2544 258.941 37.9914C259.279 37.7284 259.523 37.359 259.673 36.8831C259.798 36.4698 259.861 35.9438 259.861 35.3051C259.861 34.6288 259.798 34.1029 259.673 33.7271C259.535 33.2513 259.297 32.8881 258.959 32.6376C258.621 32.3746 258.208 32.2431 257.72 32.2431C257.256 32.2431 256.855 32.3746 256.517 32.6376C256.179 32.8881 255.935 33.2513 255.785 33.7271C255.659 34.1655 255.597 34.6915 255.597 35.3051C255.597 35.9188 255.659 36.4447 255.785 36.8831C255.922 37.359 256.16 37.7284 256.498 37.9914C256.849 38.2544 257.269 38.3859 257.757 38.3859ZM265.915 40.1141C265.777 40.1141 265.69 40.0515 265.652 39.9263L262.966 30.7591L262.947 30.6839C262.947 30.5587 263.016 30.4961 263.154 30.4961H264.938C265.076 30.4961 265.164 30.5587 265.201 30.6839L266.76 36.9582C266.773 36.9958 266.792 37.0146 266.817 37.0146C266.842 37.0146 266.861 36.9958 266.873 36.9582L268.507 30.6839C268.545 30.5587 268.633 30.4961 268.77 30.4961H270.33C270.467 30.4961 270.555 30.5587 270.593 30.6839L272.264 36.9582C272.277 36.9958 272.296 37.0146 272.321 37.0146C272.346 37.0146 272.365 36.9958 272.377 36.9582L274.049 30.6839C274.087 30.5587 274.174 30.4961 274.312 30.4961L276.078 30.5337C276.153 30.5337 276.203 30.5587 276.228 30.6088C276.266 30.6464 276.278 30.7027 276.266 30.7779L273.561 39.9263C273.523 40.0515 273.442 40.1141 273.316 40.1141H271.513C271.375 40.1141 271.288 40.0515 271.25 39.9263L269.597 34.1968C269.584 34.1592 269.566 34.1404 269.541 34.1404C269.516 34.1404 269.497 34.1592 269.484 34.1968L267.963 39.9263C267.925 40.0515 267.837 40.1141 267.7 40.1141H265.915ZM278.533 40.1517C278.144 40.1517 277.825 40.0265 277.575 39.776C277.324 39.5255 277.199 39.2062 277.199 38.818C277.199 38.4297 277.324 38.1104 277.575 37.8599C277.825 37.6094 278.144 37.4842 278.533 37.4842C278.921 37.4842 279.234 37.6094 279.472 37.8599C279.722 38.1104 279.848 38.4297 279.848 38.818C279.848 39.2062 279.722 39.5255 279.472 39.776C279.222 40.0265 278.908 40.1517 278.533 40.1517ZM290.699 40.2644C289.759 40.2644 288.933 40.0828 288.219 39.7196C287.505 39.3439 286.954 38.818 286.566 38.1417C286.178 37.4654 285.984 36.689 285.984 35.8123V31.2663C285.984 30.3771 286.178 29.6006 286.566 28.9369C286.954 28.2606 287.505 27.7409 288.219 27.3777C288.933 27.002 289.759 26.8142 290.699 26.8142C291.625 26.8142 292.439 26.9958 293.141 27.3589C293.855 27.7221 294.406 28.2168 294.794 28.843C295.182 29.4692 295.376 30.1767 295.376 30.9657V31.116C295.376 31.1786 295.351 31.235 295.301 31.2851C295.263 31.3226 295.213 31.3414 295.151 31.3414H293.441C293.379 31.3414 293.322 31.3226 293.272 31.2851C293.235 31.235 293.216 31.1786 293.216 31.116V31.0221C293.216 30.3458 292.984 29.7885 292.521 29.3502C292.07 28.9119 291.463 28.6927 290.699 28.6927C289.935 28.6927 289.321 28.9244 288.858 29.3877C288.394 29.8386 288.163 30.4397 288.163 31.1911V35.8875C288.163 36.6389 288.407 37.2463 288.895 37.7096C289.384 38.1605 290.016 38.3859 290.793 38.3859C291.544 38.3859 292.133 38.1918 292.558 37.8035C292.997 37.4028 293.216 36.858 293.216 36.1692V35.0045C293.216 34.9419 293.185 34.9106 293.122 34.9106H290.811C290.749 34.9106 290.692 34.8918 290.642 34.8543C290.605 34.8042 290.586 34.7478 290.586 34.6852V33.2951C290.586 33.2325 290.605 33.1824 290.642 33.1448C290.692 33.0947 290.749 33.0697 290.811 33.0697H295.151C295.213 33.0697 295.263 33.0947 295.301 33.1448C295.351 33.1824 295.376 33.2325 295.376 33.2951V35.6996C295.376 37.1398 294.95 38.2607 294.099 39.0622C293.26 39.8637 292.126 40.2644 290.699 40.2644ZM298.857 29.1999C298.469 29.1999 298.149 29.0747 297.899 28.8242C297.648 28.5737 297.523 28.2544 297.523 27.8661C297.523 27.4779 297.648 27.1586 297.899 26.9081C298.149 26.6576 298.469 26.5324 298.857 26.5324C299.245 26.5324 299.564 26.6576 299.815 26.9081C300.065 27.1586 300.191 27.4779 300.191 27.8661C300.191 28.2544 300.065 28.5737 299.815 28.8242C299.564 29.0747 299.245 29.1999 298.857 29.1999ZM297.955 40.1141C297.892 40.1141 297.836 40.0954 297.786 40.0578C297.748 40.0077 297.73 39.9513 297.73 39.8887V30.7215C297.73 30.6589 297.748 30.6088 297.786 30.5712C297.836 30.5211 297.892 30.4961 297.955 30.4961H299.683C299.746 30.4961 299.796 30.5211 299.834 30.5712C299.884 30.6088 299.909 30.6589 299.909 30.7215V39.8887C299.909 39.9513 299.884 40.0077 299.834 40.0578C299.796 40.0954 299.746 40.1141 299.683 40.1141H297.955ZM304.997 40.1141C304.872 40.1141 304.791 40.0515 304.753 39.9263L301.729 30.7591C301.716 30.734 301.71 30.7027 301.71 30.6651C301.71 30.5524 301.779 30.4961 301.917 30.4961H303.833C303.97 30.4961 304.058 30.5587 304.096 30.6839L305.918 36.9582C305.93 36.9958 305.949 37.0146 305.974 37.0146C305.999 37.0146 306.018 36.9958 306.031 36.9582L307.853 30.6839C307.89 30.5587 307.978 30.4961 308.116 30.4961L310.032 30.5337C310.107 30.5337 310.163 30.5587 310.201 30.6088C310.238 30.6464 310.245 30.709 310.22 30.7966L307.214 39.9263C307.176 40.0515 307.095 40.1141 306.97 40.1141H304.997ZM319.454 34.2343C319.504 34.5474 319.529 34.8981 319.529 35.2863L319.51 35.8687C319.51 36.0189 319.435 36.0941 319.285 36.0941H313.405C313.342 36.0941 313.311 36.1254 313.311 36.188C313.349 36.6013 313.405 36.8831 313.48 37.0334C313.781 37.935 314.513 38.3922 315.678 38.4047C316.53 38.4047 317.206 38.054 317.707 37.3527C317.757 37.2776 317.819 37.24 317.895 37.24C317.945 37.24 317.989 37.2588 318.026 37.2963L319.191 38.2544C319.303 38.3421 319.322 38.4422 319.247 38.555C318.859 39.106 318.339 39.5318 317.688 39.8324C317.049 40.1329 316.335 40.2832 315.546 40.2832C314.57 40.2832 313.737 40.064 313.048 39.6257C312.372 39.1874 311.877 38.5737 311.564 37.7848C311.276 37.1085 311.132 36.1692 311.132 34.967C311.132 34.2406 311.207 33.652 311.357 33.2012C311.608 32.3245 312.077 31.6357 312.766 31.1348C313.468 30.6213 314.307 30.3646 315.283 30.3646C317.751 30.3646 319.141 31.6545 319.454 34.2343ZM315.283 32.2431C314.82 32.2431 314.432 32.3621 314.119 32.6C313.818 32.8255 313.605 33.1448 313.48 33.5581C313.405 33.771 313.355 34.0465 313.33 34.3846C313.305 34.4472 313.33 34.4786 313.405 34.4786H317.218C317.281 34.4786 317.312 34.4472 317.312 34.3846C317.287 34.0715 317.25 33.8336 317.2 33.6708C317.087 33.2199 316.861 32.8693 316.523 32.6188C316.198 32.3683 315.784 32.2431 315.283 32.2431ZM55.9241 53.3646C56.8884 53.3646 57.6398 53.6589 58.1783 54.2475C58.7294 54.8236 59.0049 55.6313 59.0049 56.6708V62.8887C59.0049 62.9513 58.9798 63.0077 58.9298 63.0578C58.8922 63.0954 58.8421 63.1141 58.7795 63.1141H57.07C57.0074 63.1141 56.951 63.0954 56.9009 63.0578C56.8634 63.0077 56.8446 62.9513 56.8446 62.8887V57.1216C56.8446 56.5456 56.688 56.0884 56.375 55.7503C56.0744 55.4122 55.6674 55.2431 55.1539 55.2431C54.6405 55.2431 54.2209 55.4122 53.8953 55.7503C53.5697 56.0884 53.4069 56.5393 53.4069 57.1029V62.8887C53.4069 62.9513 53.3818 63.0077 53.3317 63.0578C53.2942 63.0954 53.2441 63.1141 53.1815 63.1141H51.472C51.4094 63.1141 51.353 63.0954 51.3029 63.0578C51.2654 63.0077 51.2466 62.9513 51.2466 62.8887V57.1216C51.2466 56.5456 51.09 56.0884 50.777 55.7503C50.4639 55.4122 50.0506 55.2431 49.5371 55.2431C49.0612 55.2431 48.6667 55.3809 48.3537 55.6564C48.0531 55.9319 47.8778 56.3076 47.8277 56.7835V62.8887C47.8277 62.9513 47.8026 63.0077 47.7525 63.0578C47.715 63.0954 47.6649 63.1141 47.6022 63.1141H45.874C45.8114 63.1141 45.755 63.0954 45.7049 63.0578C45.6674 63.0077 45.6486 62.9513 45.6486 62.8887V53.7403C45.6486 53.6777 45.6674 53.6276 45.7049 53.59C45.755 53.5399 45.8114 53.5149 45.874 53.5149H47.6022C47.6649 53.5149 47.715 53.5399 47.7525 53.59C47.8026 53.6276 47.8277 53.6777 47.8277 53.7403V54.3602C47.8277 54.3978 47.8402 54.4228 47.8652 54.4353C47.8903 54.4479 47.9153 54.4353 47.9404 54.3978C48.2159 54.0471 48.554 53.7904 48.9548 53.6276C49.3681 53.4522 49.8252 53.3646 50.3261 53.3646C50.9398 53.3646 51.4783 53.4898 51.9416 53.7403C52.405 53.9908 52.7619 54.3539 53.0124 54.8298C53.05 54.8799 53.0938 54.8799 53.1439 54.8298C53.4194 54.3289 53.8014 53.9595 54.2898 53.7215C54.7782 53.4836 55.323 53.3646 55.9241 53.3646ZM69.2465 57.2343C69.2966 57.5474 69.3217 57.8981 69.3217 58.2863L69.3029 58.8687C69.3029 59.0189 69.2277 59.0941 69.0775 59.0941H63.1977C63.1351 59.0941 63.1038 59.1254 63.1038 59.188C63.1413 59.6013 63.1977 59.8831 63.2728 60.0334C63.5734 60.935 64.306 61.3922 65.4707 61.4047C66.3223 61.4047 66.9986 61.054 67.4995 60.3527C67.5496 60.2776 67.6122 60.24 67.6874 60.24C67.7374 60.24 67.7813 60.2588 67.8189 60.2963L68.9835 61.2544C69.0963 61.3421 69.115 61.4422 69.0399 61.555C68.6517 62.106 68.1319 62.5318 67.4807 62.8324C66.842 63.1329 66.1282 63.2832 65.3392 63.2832C64.3624 63.2832 63.5296 63.064 62.8408 62.6257C62.1645 62.1874 61.6698 61.5737 61.3567 60.7848C61.0687 60.1085 60.9247 59.1692 60.9247 57.967C60.9247 57.2406 60.9998 56.652 61.1501 56.2012C61.4006 55.3245 61.8702 54.6357 62.559 54.1348C63.2603 53.6213 64.0994 53.3646 65.0762 53.3646C67.5433 53.3646 68.9334 54.6545 69.2465 57.2343ZM65.0762 55.2431C64.6128 55.2431 64.2246 55.3621 63.9115 55.6C63.611 55.8255 63.3981 56.1448 63.2728 56.5581C63.1977 56.771 63.1476 57.0465 63.1225 57.3846C63.0975 57.4472 63.1225 57.4786 63.1977 57.4786H67.0111C67.0737 57.4786 67.105 57.4472 67.105 57.3846C67.08 57.0715 67.0424 56.8336 66.9923 56.6708C66.8796 56.2199 66.6542 55.8693 66.316 55.6188C65.9904 55.3683 65.5771 55.2431 65.0762 55.2431ZM78.7371 53.3646C79.526 53.3646 80.2211 53.5023 80.8222 53.7779C81.4233 54.0534 81.8867 54.4353 82.2123 54.9238C82.5379 55.3997 82.7007 55.9444 82.7007 56.5581V62.8887C82.7007 62.9513 82.6757 63.0077 82.6256 63.0578C82.588 63.0954 82.5379 63.1141 82.4753 63.1141H80.7471C80.6845 63.1141 80.6281 63.0954 80.578 63.0578C80.5404 63.0077 80.5217 62.9513 80.5217 62.8887V62.2876C80.5217 62.25 80.5091 62.2312 80.4841 62.2312C80.459 62.2187 80.434 62.225 80.4089 62.25C79.7953 62.9263 78.9061 63.2644 77.7414 63.2644C76.8022 63.2644 76.0257 63.0265 75.4121 62.5506C74.8109 62.0747 74.5104 61.3671 74.5104 60.4278C74.5104 59.451 74.8485 58.6933 75.5248 58.1548C76.2136 57.6038 77.1779 57.3283 78.4177 57.3283H80.4277C80.4903 57.3283 80.5217 57.297 80.5217 57.2343V56.7835C80.5217 56.2951 80.3776 55.9194 80.0896 55.6564C79.8016 55.3809 79.3695 55.2431 78.7934 55.2431C78.3175 55.2431 77.9293 55.3308 77.6287 55.5061C77.3407 55.6689 77.1591 55.9006 77.084 56.2012C77.0464 56.3514 76.9587 56.4141 76.821 56.389L74.9988 56.1636C74.9362 56.1511 74.8798 56.1323 74.8297 56.1072C74.7921 56.0697 74.7796 56.0258 74.7921 55.9757C74.8923 55.2118 75.2994 54.5856 76.0132 54.0972C76.7396 53.6088 77.6475 53.3646 78.7371 53.3646ZM78.2862 61.5362C78.8999 61.5362 79.4258 61.3734 79.8642 61.0478C80.3025 60.7221 80.5217 60.3089 80.5217 59.8079V58.925C80.5217 58.8624 80.4903 58.8311 80.4277 58.8311H78.8498C78.186 58.8311 77.66 58.9563 77.2718 59.2068C76.8961 59.4573 76.7082 59.8142 76.7082 60.2776C76.7082 60.6783 76.8523 60.9914 77.1403 61.2168C77.4409 61.4297 77.8228 61.5362 78.2862 61.5362ZM90.9222 63.1141C90.7845 63.1141 90.6968 63.0515 90.6592 62.9263L87.9729 53.7591L87.9542 53.6839C87.9542 53.5587 88.023 53.4961 88.1608 53.4961H89.9454C90.0832 53.4961 90.1708 53.5587 90.2084 53.6839L91.7676 59.9582C91.7801 59.9958 91.7989 60.0146 91.8239 60.0146C91.849 60.0146 91.8678 59.9958 91.8803 59.9582L93.5146 53.6839C93.5522 53.5587 93.6398 53.4961 93.7776 53.4961H95.3368C95.4745 53.4961 95.5622 53.5587 95.5998 53.6839L97.2717 59.9582C97.2842 59.9958 97.303 60.0146 97.328 60.0146C97.3531 60.0146 97.3718 59.9958 97.3844 59.9582L99.0563 53.6839C99.0938 53.5587 99.1815 53.4961 99.3192 53.4961L101.085 53.5337C101.16 53.5337 101.21 53.5587 101.235 53.6088C101.273 53.6464 101.285 53.7027 101.273 53.7779L98.5678 62.9263C98.5303 63.0515 98.4489 63.1141 98.3236 63.1141H96.5202C96.3825 63.1141 96.2948 63.0515 96.2572 62.9263L94.6041 57.1968C94.5916 57.1592 94.5728 57.1404 94.5478 57.1404C94.5227 57.1404 94.504 57.1592 94.4914 57.1968L92.9698 62.9263C92.9323 63.0515 92.8446 63.1141 92.7068 63.1141H90.9222ZM110.523 57.2343C110.573 57.5474 110.598 57.8981 110.598 58.2863L110.579 58.8687C110.579 59.0189 110.504 59.0941 110.354 59.0941H104.474C104.411 59.0941 104.38 59.1254 104.38 59.188C104.418 59.6013 104.474 59.8831 104.549 60.0334C104.85 60.935 105.582 61.3922 106.747 61.4047C107.599 61.4047 108.275 61.054 108.776 60.3527C108.826 60.2776 108.888 60.24 108.964 60.24C109.014 60.24 109.057 60.2588 109.095 60.2963L110.26 61.2544C110.372 61.3421 110.391 61.4422 110.316 61.555C109.928 62.106 109.408 62.5318 108.757 62.8324C108.118 63.1329 107.404 63.2832 106.615 63.2832C105.639 63.2832 104.806 63.064 104.117 62.6257C103.441 62.1874 102.946 61.5737 102.633 60.7848C102.345 60.1085 102.201 59.1692 102.201 57.967C102.201 57.2406 102.276 56.652 102.426 56.2012C102.677 55.3245 103.146 54.6357 103.835 54.1348C104.537 53.6213 105.376 53.3646 106.352 53.3646C108.82 53.3646 110.21 54.6545 110.523 57.2343ZM106.352 55.2431C105.889 55.2431 105.501 55.3621 105.188 55.6C104.887 55.8255 104.674 56.1448 104.549 56.5581C104.474 56.771 104.424 57.0465 104.399 57.3846C104.374 57.4472 104.399 57.4786 104.474 57.4786H108.287C108.35 57.4786 108.381 57.4472 108.381 57.3846C108.356 57.0715 108.319 56.8336 108.269 56.6708C108.156 56.2199 107.93 55.8693 107.592 55.6188C107.267 55.3683 106.853 55.2431 106.352 55.2431ZM120.686 57.2343C120.736 57.5474 120.761 57.8981 120.761 58.2863L120.742 58.8687C120.742 59.0189 120.667 59.0941 120.517 59.0941H114.637C114.574 59.0941 114.543 59.1254 114.543 59.188C114.581 59.6013 114.637 59.8831 114.712 60.0334C115.013 60.935 115.745 61.3922 116.91 61.4047C117.762 61.4047 118.438 61.054 118.939 60.3527C118.989 60.2776 119.052 60.24 119.127 60.24C119.177 60.24 119.221 60.2588 119.258 60.2963L120.423 61.2544C120.536 61.3421 120.554 61.4422 120.479 61.555C120.091 62.106 119.571 62.5318 118.92 62.8324C118.281 63.1329 117.568 63.2832 116.779 63.2832C115.802 63.2832 114.969 63.064 114.28 62.6257C113.604 62.1874 113.109 61.5737 112.796 60.7848C112.508 60.1085 112.364 59.1692 112.364 57.967C112.364 57.2406 112.439 56.652 112.589 56.2012C112.84 55.3245 113.31 54.6357 113.998 54.1348C114.7 53.6213 115.539 53.3646 116.516 53.3646C118.983 53.3646 120.373 54.6545 120.686 57.2343ZM116.516 55.2431C116.052 55.2431 115.664 55.3621 115.351 55.6C115.05 55.8255 114.837 56.1448 114.712 56.5581C114.637 56.771 114.587 57.0465 114.562 57.3846C114.537 57.4472 114.562 57.4786 114.637 57.4786H118.45C118.513 57.4786 118.544 57.4472 118.544 57.3846C118.519 57.0715 118.482 56.8336 118.432 56.6708C118.319 56.2199 118.093 55.8693 117.755 55.6188C117.43 55.3683 117.016 55.2431 116.516 55.2431ZM122.978 63.1141C122.915 63.1141 122.859 63.0954 122.809 63.0578C122.771 63.0077 122.753 62.9513 122.753 62.8887V50.1899C122.753 50.1273 122.771 50.0772 122.809 50.0396C122.859 49.9895 122.915 49.9645 122.978 49.9645H124.706C124.769 49.9645 124.819 49.9895 124.856 50.0396C124.907 50.0772 124.932 50.1273 124.932 50.1899V56.9714C124.932 57.0089 124.944 57.034 124.969 57.0465C124.994 57.059 125.019 57.0465 125.044 57.0089L128.088 53.6464C128.175 53.5587 128.269 53.5149 128.369 53.5149H130.361C130.486 53.5149 130.548 53.5587 130.548 53.6464C130.548 53.6839 130.53 53.734 130.492 53.7966L128.106 56.652C128.069 56.6896 128.063 56.7334 128.088 56.7835L130.905 62.8511C130.93 62.9012 130.943 62.9388 130.943 62.9639C130.943 63.064 130.874 63.1141 130.736 63.1141H128.914C128.789 63.1141 128.701 63.0578 128.651 62.9451L126.604 58.1736C126.591 58.1486 126.566 58.136 126.528 58.136C126.503 58.1235 126.485 58.1298 126.472 58.1548L124.969 59.8831C124.944 59.9332 124.932 59.977 124.932 60.0146V62.8887C124.932 62.9513 124.907 63.0077 124.856 63.0578C124.819 63.0954 124.769 63.1141 124.706 63.1141H122.978ZM132.548 64.8236C132.398 64.8236 132.329 64.7422 132.342 64.5794L133.037 60.3715C133.049 60.2337 133.131 60.1648 133.281 60.1648H134.784C134.947 60.1648 135.009 60.2463 134.972 60.4091L133.863 64.6357C133.826 64.761 133.738 64.8236 133.6 64.8236H132.548ZM144.962 53.3646C145.751 53.3646 146.446 53.5023 147.048 53.7779C147.649 54.0534 148.112 54.4353 148.438 54.9238C148.763 55.3997 148.926 55.9444 148.926 56.5581V62.8887C148.926 62.9513 148.901 63.0077 148.851 63.0578C148.813 63.0954 148.763 63.1141 148.701 63.1141H146.972C146.91 63.1141 146.853 63.0954 146.803 63.0578C146.766 63.0077 146.747 62.9513 146.747 62.8887V62.2876C146.747 62.25 146.735 62.2312 146.709 62.2312C146.684 62.2187 146.659 62.225 146.634 62.25C146.021 62.9263 145.132 63.2644 143.967 63.2644C143.028 63.2644 142.251 63.0265 141.637 62.5506C141.036 62.0747 140.736 61.3671 140.736 60.4278C140.736 59.451 141.074 58.6933 141.75 58.1548C142.439 57.6038 143.403 57.3283 144.643 57.3283H146.653C146.716 57.3283 146.747 57.297 146.747 57.2343V56.7835C146.747 56.2951 146.603 55.9194 146.315 55.6564C146.027 55.3809 145.595 55.2431 145.019 55.2431C144.543 55.2431 144.155 55.3308 143.854 55.5061C143.566 55.6689 143.384 55.9006 143.309 56.2012C143.272 56.3514 143.184 56.4141 143.046 56.389L141.224 56.1636C141.162 56.1511 141.105 56.1323 141.055 56.1072C141.018 56.0697 141.005 56.0258 141.018 55.9757C141.118 55.2118 141.525 54.5856 142.239 54.0972C142.965 53.6088 143.873 53.3646 144.962 53.3646ZM144.512 61.5362C145.125 61.5362 145.651 61.3734 146.09 61.0478C146.528 60.7221 146.747 60.3089 146.747 59.8079V58.925C146.747 58.8624 146.716 58.8311 146.653 58.8311H145.075C144.411 58.8311 143.885 58.9563 143.497 59.2068C143.121 59.4573 142.934 59.8142 142.934 60.2776C142.934 60.6783 143.078 60.9914 143.366 61.2168C143.666 61.4297 144.048 61.5362 144.512 61.5362ZM155.716 53.3646C156.731 53.3646 157.538 53.6651 158.14 54.2663C158.753 54.8674 159.06 55.6877 159.06 56.7271V62.8887C159.06 62.9513 159.035 63.0077 158.985 63.0578C158.947 63.0954 158.897 63.1141 158.835 63.1141H157.106C157.044 63.1141 156.987 63.0954 156.937 63.0578C156.9 63.0077 156.881 62.9513 156.881 62.8887V57.178C156.881 56.6019 156.718 56.1385 156.393 55.7879C156.067 55.4247 155.635 55.2431 155.096 55.2431C154.558 55.2431 154.12 55.4184 153.781 55.7691C153.456 56.1198 153.293 56.5831 153.293 57.1592V62.8887C153.293 62.9513 153.268 63.0077 153.218 63.0578C153.18 63.0954 153.13 63.1141 153.068 63.1141H151.339C151.277 63.1141 151.22 63.0954 151.17 63.0578C151.133 63.0077 151.114 62.9513 151.114 62.8887V53.7403C151.114 53.6777 151.133 53.6276 151.17 53.59C151.22 53.5399 151.277 53.5149 151.339 53.5149H153.068C153.13 53.5149 153.18 53.5399 153.218 53.59C153.268 53.6276 153.293 53.6777 153.293 53.7403V54.3414C153.293 54.379 153.305 54.404 153.331 54.4166C153.356 54.4291 153.374 54.4166 153.387 54.379C153.9 53.7027 154.677 53.3646 155.716 53.3646ZM167.214 50.1899C167.214 50.1273 167.232 50.0772 167.27 50.0396C167.32 49.9895 167.376 49.9645 167.439 49.9645H169.167C169.23 49.9645 169.28 49.9895 169.318 50.0396C169.368 50.0772 169.393 50.1273 169.393 50.1899V62.8887C169.393 62.9513 169.368 63.0077 169.318 63.0578C169.28 63.0954 169.23 63.1141 169.167 63.1141H167.439C167.376 63.1141 167.32 63.0954 167.27 63.0578C167.232 63.0077 167.214 62.9513 167.214 62.8887V62.3252C167.214 62.2876 167.201 62.2625 167.176 62.25C167.151 62.2375 167.126 62.25 167.101 62.2876C166.55 62.9388 165.83 63.2644 164.941 63.2644C164.051 63.2644 163.3 63.0327 162.686 62.5694C162.073 62.106 161.628 61.461 161.353 60.6345C161.127 59.9332 161.014 59.1504 161.014 58.2863C161.014 57.3972 161.121 56.6332 161.334 55.9945C161.609 55.168 162.054 54.523 162.668 54.0596C163.281 53.5963 164.051 53.3646 164.978 53.3646C165.842 53.3646 166.55 53.6777 167.101 54.3038C167.126 54.3289 167.151 54.3414 167.176 54.3414C167.201 54.3289 167.214 54.3038 167.214 54.2663V50.1899ZM166.763 60.4842C167.051 59.9707 167.195 59.2444 167.195 58.3051C167.195 57.3283 167.038 56.5831 166.725 56.0697C166.387 55.5186 165.911 55.2431 165.297 55.2431C164.659 55.2431 164.158 55.5061 163.795 56.0321C163.419 56.5831 163.231 57.3471 163.231 58.3239C163.231 59.2005 163.381 59.9206 163.682 60.4842C164.033 61.0853 164.565 61.3859 165.279 61.3859C165.917 61.3859 166.412 61.0853 166.763 60.4842ZM175.945 63.1141C175.882 63.1141 175.826 63.0954 175.776 63.0578C175.738 63.0077 175.719 62.9513 175.719 62.8887V50.1899C175.719 50.1273 175.738 50.0772 175.776 50.0396C175.826 49.9895 175.882 49.9645 175.945 49.9645H177.673C177.736 49.9645 177.786 49.9895 177.823 50.0396C177.873 50.0772 177.898 50.1273 177.898 50.1899V62.8887C177.898 62.9513 177.873 63.0077 177.823 63.0578C177.786 63.0954 177.736 63.1141 177.673 63.1141H175.945ZM182.383 49.9645C182.47 49.9645 182.527 49.9895 182.552 50.0396C182.577 50.0897 182.577 50.1523 182.552 50.2274L181.068 53.8906C181.03 54.0033 180.943 54.0596 180.805 54.0596H179.527C179.452 54.0596 179.396 54.0409 179.358 54.0033C179.333 53.9532 179.327 53.8906 179.34 53.8154L180.392 50.1523C180.429 50.0271 180.517 49.9645 180.655 49.9645H182.383ZM184.048 63.1141C183.986 63.1141 183.929 63.0954 183.879 63.0578C183.842 63.0077 183.823 62.9513 183.823 62.8887V50.1899C183.823 50.1273 183.842 50.0772 183.879 50.0396C183.929 49.9895 183.986 49.9645 184.048 49.9645H185.777C185.839 49.9645 185.889 49.9895 185.927 50.0396C185.977 50.0772 186.002 50.1273 186.002 50.1899V62.8887C186.002 62.9513 185.977 63.0077 185.927 63.0578C185.889 63.0954 185.839 63.1141 185.777 63.1141H184.048ZM188.543 63.1141C188.48 63.1141 188.424 63.0954 188.374 63.0578C188.336 63.0077 188.318 62.9513 188.318 62.8887V50.1899C188.318 50.1273 188.336 50.0772 188.374 50.0396C188.424 49.9895 188.48 49.9645 188.543 49.9645H190.271C190.334 49.9645 190.384 49.9895 190.421 50.0396C190.472 50.0772 190.497 50.1273 190.497 50.1899V62.8887C190.497 62.9513 190.472 63.0077 190.421 63.0578C190.384 63.0954 190.334 63.1141 190.271 63.1141H188.543ZM202.453 53.7403C202.453 53.6777 202.471 53.6276 202.509 53.59C202.559 53.5399 202.615 53.5149 202.678 53.5149H204.406C204.469 53.5149 204.519 53.5399 204.556 53.59C204.607 53.6276 204.632 53.6777 204.632 53.7403V62.4754C204.632 64.0409 204.181 65.1555 203.279 65.8192C202.39 66.4955 201.219 66.8336 199.766 66.8336C199.378 66.8336 198.996 66.8148 198.62 66.7773C198.483 66.7647 198.414 66.6833 198.414 66.5331L198.47 64.9927C198.47 64.8549 198.558 64.786 198.733 64.786C199.096 64.8236 199.422 64.8424 199.71 64.8424C200.649 64.8424 201.338 64.6545 201.776 64.2788C202.227 63.9156 202.453 63.2957 202.453 62.4191V62.2688C202.453 62.2312 202.44 62.2124 202.415 62.2124C202.39 62.1999 202.365 62.2062 202.34 62.2312C201.826 62.7823 201.1 63.0578 200.161 63.0578C199.347 63.0578 198.602 62.8511 197.925 62.4379C197.249 62.0246 196.779 61.3922 196.516 60.5406C196.354 59.9519 196.272 59.1943 196.272 58.2675C196.272 57.2281 196.372 56.4328 196.573 55.8818C196.823 55.1179 197.255 54.5105 197.869 54.0596C198.483 53.5963 199.203 53.3646 200.029 53.3646C201.019 53.3646 201.789 53.6526 202.34 54.2287C202.365 54.2663 202.39 54.2788 202.415 54.2663C202.44 54.2538 202.453 54.2287 202.453 54.1911V53.7403ZM202.321 59.9206C202.371 59.7328 202.402 59.5324 202.415 59.3195C202.44 59.0941 202.453 58.7372 202.453 58.2488C202.453 57.7729 202.44 57.4347 202.415 57.2343C202.402 57.0214 202.365 56.8148 202.302 56.6144C202.202 56.2012 201.995 55.8693 201.682 55.6188C201.382 55.3683 200.994 55.2431 200.518 55.2431C200.067 55.2431 199.685 55.3683 199.372 55.6188C199.059 55.8693 198.833 56.2012 198.695 56.6144C198.545 56.9651 198.47 57.5161 198.47 58.2675C198.47 59.044 198.533 59.5888 198.658 59.9019C198.783 60.3026 199.009 60.6345 199.334 60.8975C199.672 61.1479 200.073 61.2732 200.536 61.2732C201.025 61.2732 201.419 61.1479 201.72 60.8975C202.02 60.647 202.221 60.3214 202.321 59.9206ZM214.979 57.2343C215.029 57.5474 215.054 57.8981 215.054 58.2863L215.035 58.8687C215.035 59.0189 214.96 59.0941 214.81 59.0941H208.93C208.868 59.0941 208.836 59.1254 208.836 59.188C208.874 59.6013 208.93 59.8831 209.005 60.0334C209.306 60.935 210.039 61.3922 211.203 61.4047C212.055 61.4047 212.731 61.054 213.232 60.3527C213.282 60.2776 213.345 60.24 213.42 60.24C213.47 60.24 213.514 60.2588 213.551 60.2963L214.716 61.2544C214.829 61.3421 214.848 61.4422 214.772 61.555C214.384 62.106 213.864 62.5318 213.213 62.8324C212.575 63.1329 211.861 63.2832 211.072 63.2832C210.095 63.2832 209.262 63.064 208.573 62.6257C207.897 62.1874 207.402 61.5737 207.089 60.7848C206.801 60.1085 206.657 59.1692 206.657 57.967C206.657 57.2406 206.732 56.652 206.883 56.2012C207.133 55.3245 207.603 54.6357 208.292 54.1348C208.993 53.6213 209.832 53.3646 210.809 53.3646C213.276 53.3646 214.666 54.6545 214.979 57.2343ZM210.809 55.2431C210.345 55.2431 209.957 55.3621 209.644 55.6C209.343 55.8255 209.131 56.1448 209.005 56.5581C208.93 56.771 208.88 57.0465 208.855 57.3846C208.83 57.4472 208.855 57.4786 208.93 57.4786H212.744C212.806 57.4786 212.838 57.4472 212.838 57.3846C212.813 57.0715 212.775 56.8336 212.725 56.6708C212.612 56.2199 212.387 55.8693 212.049 55.6188C211.723 55.3683 211.31 55.2431 210.809 55.2431ZM221.953 55.0553C221.953 55.1179 221.928 55.1742 221.878 55.2243C221.84 55.2619 221.79 55.2807 221.728 55.2807H219.812C219.749 55.2807 219.718 55.312 219.718 55.3746V59.9019C219.718 60.3777 219.818 60.7221 220.018 60.935C220.231 61.1479 220.563 61.2544 221.014 61.2544H221.577C221.64 61.2544 221.69 61.2794 221.728 61.3295C221.778 61.3671 221.803 61.4172 221.803 61.4798V62.8887C221.803 63.0265 221.728 63.1079 221.577 63.1329L220.601 63.1517C219.611 63.1517 218.872 62.9826 218.384 62.6445C217.895 62.3064 217.645 61.6677 217.632 60.7284V55.3746C217.632 55.312 217.601 55.2807 217.539 55.2807H216.468C216.405 55.2807 216.349 55.2619 216.299 55.2243C216.261 55.1742 216.242 55.1179 216.242 55.0553V53.7403C216.242 53.6777 216.261 53.6276 216.299 53.59C216.349 53.5399 216.405 53.5149 216.468 53.5149H217.539C217.601 53.5149 217.632 53.4836 217.632 53.4209V51.2231C217.632 51.1604 217.651 51.1104 217.689 51.0728C217.739 51.0227 217.795 50.9976 217.858 50.9976H219.492C219.555 50.9976 219.605 51.0227 219.643 51.0728C219.693 51.1104 219.718 51.1604 219.718 51.2231V53.4209C219.718 53.4836 219.749 53.5149 219.812 53.5149H221.728C221.79 53.5149 221.84 53.5399 221.878 53.59C221.928 53.6276 221.953 53.6777 221.953 53.7403V55.0553ZM235.746 55.9945C235.959 56.6958 236.065 57.4598 236.065 58.2863C236.065 59.1755 235.946 59.9582 235.708 60.6345C235.433 61.461 234.988 62.106 234.374 62.5694C233.761 63.0327 233.009 63.2644 232.12 63.2644C231.243 63.2644 230.523 62.9325 229.96 62.2688C229.935 62.2312 229.91 62.2187 229.885 62.2312C229.86 62.2438 229.847 62.2688 229.847 62.3064V62.8887C229.847 62.9513 229.822 63.0077 229.772 63.0578C229.734 63.0954 229.684 63.1141 229.622 63.1141H227.893C227.831 63.1141 227.774 63.0954 227.724 63.0578C227.687 63.0077 227.668 62.9513 227.668 62.8887V50.1899C227.668 50.1273 227.687 50.0772 227.724 50.0396C227.774 49.9895 227.831 49.9645 227.893 49.9645H229.622C229.684 49.9645 229.734 49.9895 229.772 50.0396C229.822 50.0772 229.847 50.1273 229.847 50.1899V54.2663C229.847 54.3038 229.86 54.3289 229.885 54.3414C229.91 54.3539 229.935 54.3477 229.96 54.3226C230.498 53.6839 231.212 53.3646 232.101 53.3646C233.028 53.3646 233.792 53.5963 234.393 54.0596C235.007 54.523 235.458 55.168 235.746 55.9945ZM233.379 60.4842C233.679 59.9582 233.83 59.2381 233.83 58.3239C233.83 57.3471 233.642 56.5831 233.266 56.0321C232.928 55.5061 232.427 55.2431 231.763 55.2431C231.149 55.2431 230.68 55.5186 230.354 56.0697C230.041 56.5831 229.885 57.3283 229.885 58.3051C229.885 59.2694 230.029 59.9958 230.317 60.4842C230.642 61.0853 231.131 61.3859 231.782 61.3859C232.133 61.3859 232.446 61.3108 232.721 61.1605C232.997 60.9977 233.216 60.7722 233.379 60.4842ZM241.806 53.3646C242.595 53.3646 243.29 53.5023 243.891 53.7779C244.492 54.0534 244.955 54.4353 245.281 54.9238C245.606 55.3997 245.769 55.9444 245.769 56.5581V62.8887C245.769 62.9513 245.744 63.0077 245.694 63.0578C245.657 63.0954 245.606 63.1141 245.544 63.1141H243.816C243.753 63.1141 243.697 63.0954 243.647 63.0578C243.609 63.0077 243.59 62.9513 243.59 62.8887V62.2876C243.59 62.25 243.578 62.2312 243.553 62.2312C243.528 62.2187 243.503 62.225 243.477 62.25C242.864 62.9263 241.975 63.2644 240.81 63.2644C239.871 63.2644 239.094 63.0265 238.481 62.5506C237.879 62.0747 237.579 61.3671 237.579 60.4278C237.579 59.451 237.917 58.6933 238.593 58.1548C239.282 57.6038 240.246 57.3283 241.486 57.3283H243.496C243.559 57.3283 243.59 57.297 243.59 57.2343V56.7835C243.59 56.2951 243.446 55.9194 243.158 55.6564C242.87 55.3809 242.438 55.2431 241.862 55.2431C241.386 55.2431 240.998 55.3308 240.697 55.5061C240.409 55.6689 240.228 55.9006 240.153 56.2012C240.115 56.3514 240.027 56.4141 239.89 56.389L238.067 56.1636C238.005 56.1511 237.948 56.1323 237.898 56.1072C237.861 56.0697 237.848 56.0258 237.861 55.9757C237.961 55.2118 238.368 54.5856 239.082 54.0972C239.808 53.6088 240.716 53.3646 241.806 53.3646ZM241.355 61.5362C241.968 61.5362 242.494 61.3734 242.933 61.0478C243.371 60.7221 243.59 60.3089 243.59 59.8079V58.925C243.59 58.8624 243.559 58.8311 243.496 58.8311H241.918C241.255 58.8311 240.729 58.9563 240.34 59.2068C239.965 59.4573 239.777 59.8142 239.777 60.2776C239.777 60.6783 239.921 60.9914 240.209 61.2168C240.509 61.4297 240.891 61.5362 241.355 61.5362ZM251.958 63.2644C250.994 63.2644 250.161 63.0202 249.46 62.5318C248.759 62.0309 248.27 61.3608 247.995 60.5218C247.794 59.9582 247.694 59.2068 247.694 58.2675C247.694 57.3658 247.794 56.627 247.995 56.0509C248.258 55.2243 248.74 54.5731 249.441 54.0972C250.155 53.6088 250.994 53.3646 251.958 53.3646C252.935 53.3646 253.787 53.6088 254.513 54.0972C255.239 54.5856 255.722 55.1993 255.96 55.9382C256.022 56.1385 256.066 56.3389 256.091 56.5393V56.5769C256.091 56.7021 256.022 56.7772 255.884 56.8023L254.194 57.0465H254.156C254.043 57.0465 253.968 56.9839 253.931 56.8586C253.931 56.796 253.925 56.7459 253.912 56.7084C253.887 56.6082 253.862 56.5205 253.837 56.4454C253.724 56.0947 253.499 55.8067 253.161 55.5812C252.822 55.3558 252.422 55.2431 251.958 55.2431C251.482 55.2431 251.075 55.3683 250.737 55.6188C250.412 55.8568 250.193 56.1886 250.08 56.6144C249.955 57.0152 249.892 57.5725 249.892 58.2863C249.892 58.9751 249.948 59.5324 250.061 59.9582C250.186 60.3965 250.412 60.7472 250.737 61.0102C251.063 61.2607 251.47 61.3859 251.958 61.3859C252.434 61.3859 252.841 61.2669 253.179 61.029C253.53 60.7785 253.755 60.4466 253.856 60.0334C253.868 60.0083 253.874 59.977 253.874 59.9394C253.887 59.9269 253.893 59.9081 253.893 59.8831C253.931 59.7328 254.018 59.6702 254.156 59.6952L255.847 59.9582C255.909 59.9707 255.96 60.002 255.997 60.0521C256.047 60.0897 256.066 60.1461 256.054 60.2212C256.016 60.4216 255.985 60.5656 255.96 60.6533C255.722 61.4548 255.239 62.0935 254.513 62.5694C253.787 63.0327 252.935 63.2644 251.958 63.2644ZM258.162 63.1141C258.1 63.1141 258.043 63.0954 257.993 63.0578C257.956 63.0077 257.937 62.9513 257.937 62.8887V50.1899C257.937 50.1273 257.956 50.0772 257.993 50.0396C258.043 49.9895 258.1 49.9645 258.162 49.9645H259.89C259.953 49.9645 260.003 49.9895 260.041 50.0396C260.091 50.0772 260.116 50.1273 260.116 50.1899V56.9714C260.116 57.0089 260.128 57.034 260.153 57.0465C260.178 57.059 260.203 57.0465 260.229 57.0089L263.272 53.6464C263.359 53.5587 263.453 53.5149 263.554 53.5149H265.545C265.67 53.5149 265.733 53.5587 265.733 53.6464C265.733 53.6839 265.714 53.734 265.676 53.7966L263.291 56.652C263.253 56.6896 263.247 56.7334 263.272 56.7835L266.09 62.8511C266.115 62.9012 266.127 62.9388 266.127 62.9639C266.127 63.064 266.058 63.1141 265.92 63.1141H264.098C263.973 63.1141 263.885 63.0578 263.835 62.9451L261.788 58.1736C261.775 58.1486 261.75 58.136 261.713 58.136C261.688 58.1235 261.669 58.1298 261.656 58.1548L260.153 59.8831C260.128 59.9332 260.116 59.977 260.116 60.0146V62.8887C260.116 62.9513 260.091 63.0077 260.041 63.0578C260.003 63.0954 259.953 63.1141 259.89 63.1141H258.162ZM276.603 55.0553C276.603 55.1179 276.578 55.1742 276.528 55.2243C276.49 55.2619 276.44 55.2807 276.377 55.2807H274.461C274.399 55.2807 274.367 55.312 274.367 55.3746V59.9019C274.367 60.3777 274.468 60.7221 274.668 60.935C274.881 61.1479 275.213 61.2544 275.664 61.2544H276.227C276.29 61.2544 276.34 61.2794 276.377 61.3295C276.427 61.3671 276.453 61.4172 276.453 61.4798V62.8887C276.453 63.0265 276.377 63.1079 276.227 63.1329L275.25 63.1517C274.261 63.1517 273.522 62.9826 273.034 62.6445C272.545 62.3064 272.295 61.6677 272.282 60.7284V55.3746C272.282 55.312 272.251 55.2807 272.188 55.2807H271.118C271.055 55.2807 270.999 55.2619 270.948 55.2243C270.911 55.1742 270.892 55.1179 270.892 55.0553V53.7403C270.892 53.6777 270.911 53.6276 270.948 53.59C270.999 53.5399 271.055 53.5149 271.118 53.5149H272.188C272.251 53.5149 272.282 53.4836 272.282 53.4209V51.2231C272.282 51.1604 272.301 51.1104 272.339 51.0728C272.389 51.0227 272.445 50.9976 272.508 50.9976H274.142C274.205 50.9976 274.255 51.0227 274.292 51.0728C274.342 51.1104 274.367 51.1604 274.367 51.2231V53.4209C274.367 53.4836 274.399 53.5149 274.461 53.5149H276.377C276.44 53.5149 276.49 53.5399 276.528 53.59C276.578 53.6276 276.603 53.6777 276.603 53.7403V55.0553ZM282.431 63.2644C281.442 63.2644 280.59 63.0139 279.876 62.513C279.175 62.0121 278.68 61.317 278.392 60.4278C278.179 59.7516 278.073 59.0377 278.073 58.2863C278.073 57.4848 278.173 56.771 278.373 56.1448C278.662 55.2682 279.162 54.5856 279.876 54.0972C280.59 53.6088 281.448 53.3646 282.45 53.3646C283.402 53.3646 284.222 53.6088 284.911 54.0972C285.612 54.5856 286.107 55.2619 286.395 56.126C286.62 56.7271 286.733 57.441 286.733 58.2675C286.733 59.0565 286.626 59.7704 286.414 60.4091C286.126 61.2982 285.631 61.9995 284.93 62.513C284.228 63.0139 283.395 63.2644 282.431 63.2644ZM282.431 61.3859C282.894 61.3859 283.289 61.2544 283.615 60.9914C283.953 60.7284 284.197 60.359 284.347 59.8831C284.472 59.4698 284.535 58.9438 284.535 58.3051C284.535 57.6288 284.472 57.1029 284.347 56.7271C284.209 56.2513 283.971 55.8881 283.633 55.6376C283.295 55.3746 282.882 55.2431 282.394 55.2431C281.93 55.2431 281.529 55.3746 281.191 55.6376C280.853 55.8881 280.609 56.2513 280.459 56.7271C280.333 57.1655 280.271 57.6915 280.271 58.3051C280.271 58.9188 280.333 59.4447 280.459 59.8831C280.596 60.359 280.834 60.7284 281.172 60.9914C281.523 61.2544 281.943 61.3859 282.431 61.3859ZM292.366 66.8524C292.328 66.8524 292.297 66.8274 292.272 66.7773C292.247 66.7397 292.234 66.6896 292.234 66.627V65.2744C292.234 65.2118 292.253 65.1555 292.291 65.1054C292.341 65.0678 292.397 65.049 292.46 65.049H292.479C292.992 65.0365 293.393 64.9801 293.681 64.88C293.969 64.7923 294.207 64.617 294.395 64.354C294.583 64.091 294.752 63.6965 294.902 63.1705C294.914 63.1454 294.914 63.1079 294.902 63.0578L291.802 53.7591C291.79 53.734 291.784 53.7027 291.784 53.6651C291.784 53.5524 291.846 53.4961 291.971 53.4961H293.812C293.95 53.4961 294.038 53.5587 294.075 53.6839L295.954 60.2963C295.966 60.3339 295.985 60.3527 296.01 60.3527C296.035 60.3527 296.054 60.3339 296.067 60.2963L297.945 53.6839C297.983 53.5587 298.07 53.4961 298.208 53.4961H299.993C300.068 53.4961 300.118 53.5211 300.143 53.5712C300.181 53.6088 300.187 53.6714 300.162 53.7591L296.856 63.6401C296.542 64.5293 296.236 65.193 295.935 65.6314C295.634 66.0697 295.221 66.3828 294.695 66.5706C294.182 66.7585 293.449 66.8524 292.497 66.8524H292.366ZM305.307 63.2644C304.318 63.2644 303.466 63.0139 302.753 62.513C302.051 62.0121 301.557 61.317 301.268 60.4278C301.056 59.7516 300.949 59.0377 300.949 58.2863C300.949 57.4848 301.049 56.771 301.25 56.1448C301.538 55.2682 302.039 54.5856 302.753 54.0972C303.466 53.6088 304.324 53.3646 305.326 53.3646C306.278 53.3646 307.098 53.6088 307.787 54.0972C308.488 54.5856 308.983 55.2619 309.271 56.126C309.496 56.7271 309.609 57.441 309.609 58.2675C309.609 59.0565 309.503 59.7704 309.29 60.4091C309.002 61.2982 308.507 61.9995 307.806 62.513C307.104 63.0139 306.272 63.2644 305.307 63.2644ZM305.307 61.3859C305.771 61.3859 306.165 61.2544 306.491 60.9914C306.829 60.7284 307.073 60.359 307.223 59.8831C307.349 59.4698 307.411 58.9438 307.411 58.3051C307.411 57.6288 307.349 57.1029 307.223 56.7271C307.086 56.2513 306.848 55.8881 306.51 55.6376C306.171 55.3746 305.758 55.2431 305.27 55.2431C304.806 55.2431 304.406 55.3746 304.067 55.6376C303.729 55.8881 303.485 56.2513 303.335 56.7271C303.21 57.1655 303.147 57.6915 303.147 58.3051C303.147 58.9188 303.21 59.4447 303.335 59.8831C303.473 60.359 303.711 60.7284 304.049 60.9914C304.399 61.2544 304.819 61.3859 305.307 61.3859ZM317.342 53.7403C317.342 53.6777 317.361 53.6276 317.399 53.59C317.449 53.5399 317.505 53.5149 317.568 53.5149H319.277C319.34 53.5149 319.39 53.5399 319.427 53.59C319.478 53.6276 319.503 53.6777 319.503 53.7403V62.8887C319.503 62.9513 319.478 63.0077 319.427 63.0578C319.39 63.0954 319.34 63.1141 319.277 63.1141H317.568C317.505 63.1141 317.449 63.0954 317.399 63.0578C317.361 63.0077 317.342 62.9513 317.342 62.8887V62.2876C317.342 62.25 317.33 62.225 317.305 62.2124C317.28 62.1999 317.255 62.2124 317.23 62.25C316.716 62.9138 315.946 63.2456 314.919 63.2456C313.967 63.2456 313.166 62.9701 312.515 62.4191C311.876 61.868 311.556 61.0853 311.556 60.0709V53.7403C311.556 53.6777 311.575 53.6276 311.613 53.59C311.663 53.5399 311.719 53.5149 311.782 53.5149H313.51C313.573 53.5149 313.623 53.5399 313.66 53.59C313.711 53.6276 313.736 53.6777 313.736 53.7403V59.451C313.736 60.0396 313.886 60.5092 314.186 60.8599C314.499 61.2106 314.932 61.3859 315.483 61.3859C316.046 61.3859 316.497 61.2106 316.835 60.8599C317.173 60.5092 317.342 60.0396 317.342 59.451V53.7403ZM47.9216 86.1141C47.7838 86.1141 47.6962 86.0515 47.6586 85.9263L44.9723 76.7591L44.9535 76.6839C44.9535 76.5587 45.0224 76.4961 45.1602 76.4961H46.9448C47.0825 76.4961 47.1702 76.5587 47.2078 76.6839L48.7669 82.9582C48.7795 82.9958 48.7982 83.0146 48.8233 83.0146C48.8483 83.0146 48.8671 82.9958 48.8796 82.9582L50.514 76.6839C50.5515 76.5587 50.6392 76.4961 50.777 76.4961H52.3361C52.4739 76.4961 52.5616 76.5587 52.5991 76.6839L54.271 82.9582C54.2835 82.9958 54.3023 83.0146 54.3274 83.0146C54.3524 83.0146 54.3712 82.9958 54.3837 82.9582L56.0556 76.6839C56.0932 76.5587 56.1808 76.4961 56.3186 76.4961L58.0844 76.5337C58.1596 76.5337 58.2097 76.5587 58.2347 76.6088C58.2723 76.6464 58.2848 76.7027 58.2723 76.7779L55.5672 85.9263C55.5296 86.0515 55.4482 86.1141 55.323 86.1141H53.5196C53.3818 86.1141 53.2942 86.0515 53.2566 85.9263L51.6035 80.1968C51.591 80.1592 51.5722 80.1404 51.5471 80.1404C51.5221 80.1404 51.5033 80.1592 51.4908 80.1968L49.9692 85.9263C49.9316 86.0515 49.8439 86.1141 49.7062 86.1141H47.9216ZM61.1791 75.1999C60.7909 75.1999 60.4716 75.0747 60.2211 74.8242C59.9706 74.5737 59.8454 74.2544 59.8454 73.8661C59.8454 73.4779 59.9706 73.1586 60.2211 72.9081C60.4716 72.6576 60.7909 72.5324 61.1791 72.5324C61.5674 72.5324 61.8867 72.6576 62.1372 72.9081C62.3877 73.1586 62.5129 73.4779 62.5129 73.8661C62.5129 74.2544 62.3877 74.5737 62.1372 74.8242C61.8867 75.0747 61.5674 75.1999 61.1791 75.1999ZM60.2774 86.1141C60.2148 86.1141 60.1585 86.0954 60.1084 86.0578C60.0708 86.0077 60.052 85.9513 60.052 85.8887V76.7215C60.052 76.6589 60.0708 76.6088 60.1084 76.5712C60.1585 76.5211 60.2148 76.4961 60.2774 76.4961H62.0057C62.0683 76.4961 62.1184 76.5211 62.156 76.5712C62.2061 76.6088 62.2311 76.6589 62.2311 76.7215V85.8887C62.2311 85.9513 62.2061 86.0077 62.156 86.0578C62.1184 86.0954 62.0683 86.1141 62.0057 86.1141H60.2774ZM69.8182 78.0553C69.8182 78.1179 69.7931 78.1742 69.743 78.2243C69.7055 78.2619 69.6554 78.2807 69.5927 78.2807H67.6766C67.614 78.2807 67.5827 78.312 67.5827 78.3746V82.9019C67.5827 83.3777 67.6829 83.7221 67.8833 83.935C68.0962 84.1479 68.4281 84.2544 68.8789 84.2544H69.4425C69.5051 84.2544 69.5552 84.2794 69.5927 84.3295C69.6428 84.3671 69.6679 84.4172 69.6679 84.4798V85.8887C69.6679 86.0265 69.5927 86.1079 69.4425 86.1329L68.4656 86.1517C67.4763 86.1517 66.7374 85.9826 66.249 85.6445C65.7605 85.3064 65.5101 84.6677 65.4976 83.7284V78.3746C65.4976 78.312 65.4662 78.2807 65.4036 78.2807H64.3329C64.2702 78.2807 64.2139 78.2619 64.1638 78.2243C64.1262 78.1742 64.1074 78.1179 64.1074 78.0553V76.7403C64.1074 76.6777 64.1262 76.6276 64.1638 76.59C64.2139 76.5399 64.2702 76.5149 64.3329 76.5149H65.4036C65.4662 76.5149 65.4976 76.4836 65.4976 76.4209V74.2231C65.4976 74.1604 65.5163 74.1104 65.5539 74.0728C65.604 74.0227 65.6604 73.9976 65.723 73.9976H67.3573C67.4199 73.9976 67.47 74.0227 67.5076 74.0728C67.5577 74.1104 67.5827 74.1604 67.5827 74.2231V76.4209C67.5827 76.4836 67.614 76.5149 67.6766 76.5149H69.5927C69.6554 76.5149 69.7055 76.5399 69.743 76.59C69.7931 76.6276 69.8182 76.6777 69.8182 76.7403V78.0553ZM76.3559 76.3646C77.3703 76.3646 78.178 76.6651 78.7792 77.2663C79.3928 77.8674 79.6997 78.6877 79.6997 79.7271V85.8887C79.6997 85.9513 79.6746 86.0077 79.6245 86.0578C79.5869 86.0954 79.5368 86.1141 79.4742 86.1141H77.746C77.6834 86.1141 77.627 86.0954 77.5769 86.0578C77.5393 86.0077 77.5206 85.9513 77.5206 85.8887V80.178C77.5206 79.6019 77.3578 79.1385 77.0321 78.7879C76.7065 78.4247 76.2745 78.2431 75.736 78.2431C75.1974 78.2431 74.7591 78.4184 74.421 78.7691C74.0954 79.1198 73.9326 79.5831 73.9326 80.1592V85.8887C73.9326 85.9513 73.9075 86.0077 73.8574 86.0578C73.8199 86.0954 73.7698 86.1141 73.7072 86.1141H71.9789C71.9163 86.1141 71.8599 86.0954 71.8098 86.0578C71.7723 86.0077 71.7535 85.9513 71.7535 85.8887V73.1899C71.7535 73.1273 71.7723 73.0772 71.8098 73.0396C71.8599 72.9895 71.9163 72.9645 71.9789 72.9645H73.7072C73.7698 72.9645 73.8199 72.9895 73.8574 73.0396C73.9075 73.0772 73.9326 73.1273 73.9326 73.1899V77.3414C73.9326 77.379 73.9451 77.404 73.9701 77.4166C73.9952 77.4291 74.014 77.4166 74.0265 77.379C74.54 76.7027 75.3164 76.3646 76.3559 76.3646ZM89.3955 76.3646C90.1845 76.3646 90.8795 76.5023 91.4807 76.7779C92.0818 77.0534 92.5452 77.4353 92.8708 77.9238C93.1964 78.3997 93.3592 78.9444 93.3592 79.5581V85.8887C93.3592 85.9513 93.3341 86.0077 93.284 86.0578C93.2465 86.0954 93.1964 86.1141 93.1338 86.1141H91.4055C91.3429 86.1141 91.2865 86.0954 91.2364 86.0578C91.1989 86.0077 91.1801 85.9513 91.1801 85.8887V85.2876C91.1801 85.25 91.1676 85.2312 91.1425 85.2312C91.1175 85.2187 91.0924 85.225 91.0674 85.25C90.4537 85.9263 89.5646 86.2644 88.3999 86.2644C87.4606 86.2644 86.6841 86.0265 86.0705 85.5506C85.4694 85.0747 85.1688 84.3671 85.1688 83.4278C85.1688 82.451 85.5069 81.6933 86.1832 81.1548C86.872 80.6038 87.8363 80.3283 89.0761 80.3283H91.0862C91.1488 80.3283 91.1801 80.297 91.1801 80.2343V79.7835C91.1801 79.2951 91.0361 78.9194 90.748 78.6564C90.46 78.3809 90.0279 78.2431 89.4518 78.2431C88.976 78.2431 88.5877 78.3308 88.2872 78.5061C87.9991 78.6689 87.8175 78.9006 87.7424 79.2012C87.7048 79.3514 87.6172 79.4141 87.4794 79.389L85.6572 79.1636C85.5946 79.1511 85.5382 79.1323 85.4882 79.1072C85.4506 79.0697 85.4381 79.0258 85.4506 78.9757C85.5508 78.2118 85.9578 77.5856 86.6716 77.0972C87.398 76.6088 88.3059 76.3646 89.3955 76.3646ZM88.9446 84.5362C89.5583 84.5362 90.0843 84.3734 90.5226 84.0478C90.9609 83.7221 91.1801 83.3089 91.1801 82.8079V81.925C91.1801 81.8624 91.1488 81.8311 91.0862 81.8311H89.5082C88.8445 81.8311 88.3185 81.9563 87.9302 82.2068C87.5545 82.4573 87.3667 82.8142 87.3667 83.2776C87.3667 83.6783 87.5107 83.9914 87.7987 84.2168C88.0993 84.4297 88.4813 84.5362 88.9446 84.5362ZM102.877 86.2268C102.088 86.2268 101.393 86.1141 100.792 85.8887C100.203 85.6508 99.746 85.3314 99.4204 84.9307C99.0948 84.5174 98.9319 84.0603 98.9319 83.5593V83.3903C98.9319 83.3277 98.9507 83.2776 98.9883 83.24C99.0384 83.1899 99.0948 83.1648 99.1574 83.1648H100.81C100.873 83.1648 100.923 83.1899 100.961 83.24C101.011 83.2776 101.036 83.3277 101.036 83.3903V83.4278C101.036 83.7409 101.205 84.0164 101.543 84.2544C101.894 84.4798 102.332 84.5925 102.858 84.5925C103.359 84.5925 103.766 84.4923 104.079 84.292C104.392 84.0791 104.549 83.8161 104.549 83.503C104.549 83.2149 104.417 83.002 104.154 82.8643C103.904 82.714 103.491 82.5575 102.914 82.3947L102.201 82.1692C101.562 81.9814 101.023 81.781 100.585 81.5681C100.147 81.3552 99.7773 81.0672 99.4767 80.704C99.1762 80.3283 99.0259 79.8524 99.0259 79.2763C99.0259 78.3997 99.3703 77.7046 100.059 77.1911C100.748 76.6651 101.656 76.4022 102.783 76.4022C103.547 76.4022 104.217 76.5274 104.793 76.7779C105.369 77.0158 105.814 77.3539 106.127 77.7923C106.44 78.2181 106.596 78.7065 106.596 79.2575C106.596 79.3201 106.571 79.3765 106.521 79.4266C106.484 79.4642 106.434 79.4829 106.371 79.4829H104.774C104.712 79.4829 104.655 79.4642 104.605 79.4266C104.568 79.3765 104.549 79.3201 104.549 79.2575C104.549 78.9319 104.386 78.6626 104.06 78.4497C103.747 78.2243 103.315 78.1116 102.764 78.1116C102.276 78.1116 101.875 78.2055 101.562 78.3934C101.261 78.5687 101.111 78.8192 101.111 79.1448C101.111 79.4454 101.255 79.6771 101.543 79.8399C101.844 79.9901 102.338 80.1592 103.027 80.3471L103.44 80.4598C104.104 80.6601 104.661 80.8668 105.112 81.0797C105.563 81.2801 105.945 81.5681 106.258 81.9438C106.571 82.307 106.728 82.7829 106.728 83.3715C106.728 84.2607 106.377 84.962 105.676 85.4754C104.975 85.9764 104.042 86.2268 102.877 86.2268ZM114.245 76.7403C114.245 76.6777 114.264 76.6276 114.301 76.59C114.351 76.5399 114.408 76.5149 114.47 76.5149H116.18C116.243 76.5149 116.293 76.5399 116.33 76.59C116.38 76.6276 116.405 76.6777 116.405 76.7403V85.8887C116.405 85.9513 116.38 86.0077 116.33 86.0578C116.293 86.0954 116.243 86.1141 116.18 86.1141H114.47C114.408 86.1141 114.351 86.0954 114.301 86.0578C114.264 86.0077 114.245 85.9513 114.245 85.8887V85.2876C114.245 85.25 114.232 85.225 114.207 85.2124C114.182 85.1999 114.157 85.2124 114.132 85.25C113.619 85.9138 112.849 86.2456 111.822 86.2456C110.87 86.2456 110.068 85.9701 109.417 85.4191C108.779 84.868 108.459 84.0853 108.459 83.0709V76.7403C108.459 76.6777 108.478 76.6276 108.516 76.59C108.566 76.5399 108.622 76.5149 108.685 76.5149H110.413C110.475 76.5149 110.526 76.5399 110.563 76.59C110.613 76.6276 110.638 76.6777 110.638 76.7403V82.451C110.638 83.0396 110.789 83.5092 111.089 83.8599C111.402 84.2106 111.834 84.3859 112.385 84.3859C112.949 84.3859 113.4 84.2106 113.738 83.8599C114.076 83.5092 114.245 83.0396 114.245 82.451V76.7403ZM119.975 75.1999C119.587 75.1999 119.267 75.0747 119.017 74.8242C118.766 74.5737 118.641 74.2544 118.641 73.8661C118.641 73.4779 118.766 73.1586 119.017 72.9081C119.267 72.6576 119.587 72.5324 119.975 72.5324C120.363 72.5324 120.682 72.6576 120.933 72.9081C121.183 73.1586 121.309 73.4779 121.309 73.8661C121.309 74.2544 121.183 74.5737 120.933 74.8242C120.682 75.0747 120.363 75.1999 119.975 75.1999ZM119.073 86.1141C119.011 86.1141 118.954 86.0954 118.904 86.0578C118.866 86.0077 118.848 85.9513 118.848 85.8887V76.7215C118.848 76.6589 118.866 76.6088 118.904 76.5712C118.954 76.5211 119.011 76.4961 119.073 76.4961H120.801C120.864 76.4961 120.914 76.5211 120.952 76.5712C121.002 76.6088 121.027 76.6589 121.027 76.7215V85.8887C121.027 85.9513 121.002 86.0077 120.952 86.0578C120.914 86.0954 120.864 86.1141 120.801 86.1141H119.073ZM128.614 78.0553C128.614 78.1179 128.589 78.1742 128.539 78.2243C128.501 78.2619 128.451 78.2807 128.388 78.2807H126.472C126.41 78.2807 126.378 78.312 126.378 78.3746V82.9019C126.378 83.3777 126.479 83.7221 126.679 83.935C126.892 84.1479 127.224 84.2544 127.675 84.2544H128.238C128.301 84.2544 128.351 84.2794 128.388 84.3295C128.439 84.3671 128.464 84.4172 128.464 84.4798V85.8887C128.464 86.0265 128.388 86.1079 128.238 86.1329L127.261 86.1517C126.272 86.1517 125.533 85.9826 125.045 85.6445C124.556 85.3064 124.306 84.6677 124.293 83.7284V78.3746C124.293 78.312 124.262 78.2807 124.199 78.2807H123.129C123.066 78.2807 123.01 78.2619 122.959 78.2243C122.922 78.1742 122.903 78.1179 122.903 78.0553V76.7403C122.903 76.6777 122.922 76.6276 122.959 76.59C123.01 76.5399 123.066 76.5149 123.129 76.5149H124.199C124.262 76.5149 124.293 76.4836 124.293 76.4209V74.2231C124.293 74.1604 124.312 74.1104 124.35 74.0728C124.4 74.0227 124.456 73.9976 124.519 73.9976H126.153C126.216 73.9976 126.266 74.0227 126.303 74.0728C126.353 74.1104 126.378 74.1604 126.378 74.2231V76.4209C126.378 76.4836 126.41 76.5149 126.472 76.5149H128.388C128.451 76.5149 128.501 76.5399 128.539 76.59C128.589 76.6276 128.614 76.6777 128.614 76.7403V78.0553ZM134.212 76.3646C135.001 76.3646 135.696 76.5023 136.297 76.7779C136.899 77.0534 137.362 77.4353 137.688 77.9238C138.013 78.3997 138.176 78.9444 138.176 79.5581V85.8887C138.176 85.9513 138.151 86.0077 138.101 86.0578C138.063 86.0954 138.013 86.1141 137.951 86.1141H136.222C136.16 86.1141 136.103 86.0954 136.053 86.0578C136.016 86.0077 135.997 85.9513 135.997 85.8887V85.2876C135.997 85.25 135.984 85.2312 135.959 85.2312C135.934 85.2187 135.909 85.225 135.884 85.25C135.271 85.9263 134.381 86.2644 133.217 86.2644C132.277 86.2644 131.501 86.0265 130.887 85.5506C130.286 85.0747 129.986 84.3671 129.986 83.4278C129.986 82.451 130.324 81.6933 131 81.1548C131.689 80.6038 132.653 80.3283 133.893 80.3283H135.903C135.966 80.3283 135.997 80.297 135.997 80.2343V79.7835C135.997 79.2951 135.853 78.9194 135.565 78.6564C135.277 78.3809 134.845 78.2431 134.269 78.2431C133.793 78.2431 133.405 78.3308 133.104 78.5061C132.816 78.6689 132.634 78.9006 132.559 79.2012C132.522 79.3514 132.434 79.4141 132.296 79.389L130.474 79.1636C130.411 79.1511 130.355 79.1323 130.305 79.1072C130.267 79.0697 130.255 79.0258 130.267 78.9757C130.368 78.2118 130.775 77.5856 131.488 77.0972C132.215 76.6088 133.123 76.3646 134.212 76.3646ZM133.761 84.5362C134.375 84.5362 134.901 84.3734 135.339 84.0478C135.778 83.7221 135.997 83.3089 135.997 82.8079V81.925C135.997 81.8624 135.966 81.8311 135.903 81.8311H134.325C133.661 81.8311 133.135 81.9563 132.747 82.2068C132.371 82.4573 132.183 82.8142 132.183 83.2776C132.183 83.6783 132.327 83.9914 132.616 84.2168C132.916 84.4297 133.298 84.5362 133.761 84.5362ZM148.46 78.9945C148.673 79.6958 148.78 80.4598 148.78 81.2863C148.78 82.1755 148.661 82.9582 148.423 83.6345C148.147 84.461 147.702 85.106 147.089 85.5694C146.475 86.0327 145.724 86.2644 144.835 86.2644C143.958 86.2644 143.238 85.9325 142.674 85.2688C142.649 85.2312 142.624 85.2187 142.599 85.2312C142.574 85.2438 142.562 85.2688 142.562 85.3064V85.8887C142.562 85.9513 142.537 86.0077 142.486 86.0578C142.449 86.0954 142.399 86.1141 142.336 86.1141H140.608C140.545 86.1141 140.489 86.0954 140.439 86.0578C140.401 86.0077 140.383 85.9513 140.383 85.8887V73.1899C140.383 73.1273 140.401 73.0772 140.439 73.0396C140.489 72.9895 140.545 72.9645 140.608 72.9645H142.336C142.399 72.9645 142.449 72.9895 142.486 73.0396C142.537 73.0772 142.562 73.1273 142.562 73.1899V77.2663C142.562 77.3038 142.574 77.3289 142.599 77.3414C142.624 77.3539 142.649 77.3477 142.674 77.3226C143.213 76.6839 143.927 76.3646 144.816 76.3646C145.743 76.3646 146.507 76.5963 147.108 77.0596C147.721 77.523 148.172 78.168 148.46 78.9945ZM146.093 83.4842C146.394 82.9582 146.544 82.2381 146.544 81.3239C146.544 80.3471 146.356 79.5831 145.981 79.0321C145.642 78.5061 145.141 78.2431 144.478 78.2431C143.864 78.2431 143.394 78.5186 143.069 79.0697C142.756 79.5831 142.599 80.3283 142.599 81.3051C142.599 82.2694 142.743 82.9958 143.031 83.4842C143.357 84.0853 143.845 84.3859 144.496 84.3859C144.847 84.3859 145.16 84.3108 145.436 84.1605C145.711 83.9977 145.93 83.7722 146.093 83.4842ZM151.082 86.1141C151.02 86.1141 150.964 86.0954 150.913 86.0578C150.876 86.0077 150.857 85.9513 150.857 85.8887V73.1899C150.857 73.1273 150.876 73.0772 150.913 73.0396C150.964 72.9895 151.02 72.9645 151.082 72.9645H152.811C152.873 72.9645 152.923 72.9895 152.961 73.0396C153.011 73.0772 153.036 73.1273 153.036 73.1899V85.8887C153.036 85.9513 153.011 86.0077 152.961 86.0578C152.923 86.0954 152.873 86.1141 152.811 86.1141H151.082ZM163.448 80.2343C163.498 80.5474 163.523 80.8981 163.523 81.2863L163.504 81.8687C163.504 82.0189 163.429 82.0941 163.279 82.0941H157.399C157.337 82.0941 157.305 82.1254 157.305 82.188C157.343 82.6013 157.399 82.8831 157.474 83.0334C157.775 83.935 158.508 84.3922 159.672 84.4047C160.524 84.4047 161.2 84.054 161.701 83.3527C161.751 83.2776 161.814 83.24 161.889 83.24C161.939 83.24 161.983 83.2588 162.02 83.2963L163.185 84.2544C163.298 84.3421 163.317 84.4422 163.241 84.555C162.853 85.106 162.333 85.5318 161.682 85.8324C161.044 86.1329 160.33 86.2832 159.541 86.2832C158.564 86.2832 157.731 86.064 157.042 85.6257C156.366 85.1874 155.871 84.5737 155.558 83.7848C155.27 83.1085 155.126 82.1692 155.126 80.967C155.126 80.2406 155.201 79.652 155.352 79.2012C155.602 78.3245 156.072 77.6357 156.76 77.1348C157.462 76.6213 158.301 76.3646 159.278 76.3646C161.745 76.3646 163.135 77.6545 163.448 80.2343ZM159.278 78.2431C158.814 78.2431 158.426 78.3621 158.113 78.6C157.812 78.8255 157.6 79.1448 157.474 79.5581C157.399 79.771 157.349 80.0465 157.324 80.3846C157.299 80.4472 157.324 80.4786 157.399 80.4786H161.213C161.275 80.4786 161.307 80.4472 161.307 80.3846C161.281 80.0715 161.244 79.8336 161.194 79.6708C161.081 79.2199 160.856 78.8693 160.518 78.6188C160.192 78.3683 159.779 78.2431 159.278 78.2431ZM173.277 86.2644C172.312 86.2644 171.48 86.0202 170.778 85.5318C170.077 85.0309 169.589 84.3608 169.313 83.5218C169.113 82.9582 169.012 82.2068 169.012 81.2675C169.012 80.3658 169.113 79.627 169.313 79.0509C169.576 78.2243 170.058 77.5731 170.759 77.0972C171.473 76.6088 172.312 76.3646 173.277 76.3646C174.254 76.3646 175.105 76.6088 175.831 77.0972C176.558 77.5856 177.04 78.1993 177.278 78.9382C177.341 79.1385 177.384 79.3389 177.409 79.5393V79.5769C177.409 79.7021 177.341 79.7772 177.203 79.8023L175.512 80.0465H175.475C175.362 80.0465 175.287 79.9839 175.249 79.8586C175.249 79.796 175.243 79.7459 175.23 79.7084C175.205 79.6082 175.18 79.5205 175.155 79.4454C175.042 79.0947 174.817 78.8067 174.479 78.5812C174.141 78.3558 173.74 78.2431 173.277 78.2431C172.801 78.2431 172.394 78.3683 172.056 78.6188C171.73 78.8568 171.511 79.1886 171.398 79.6144C171.273 80.0152 171.21 80.5725 171.21 81.2863C171.21 81.9751 171.267 82.5324 171.379 82.9582C171.505 83.3965 171.73 83.7472 172.056 84.0102C172.381 84.2607 172.788 84.3859 173.277 84.3859C173.753 84.3859 174.16 84.2669 174.498 84.029C174.848 83.7785 175.074 83.4466 175.174 83.0334C175.187 83.0083 175.193 82.977 175.193 82.9394C175.205 82.9269 175.212 82.9081 175.212 82.8831C175.249 82.7328 175.337 82.6702 175.475 82.6952L177.165 82.9582C177.228 82.9707 177.278 83.002 177.316 83.0521C177.366 83.0897 177.384 83.1461 177.372 83.2212C177.334 83.4216 177.303 83.5656 177.278 83.6533C177.04 84.4548 176.558 85.0935 175.831 85.5694C175.105 86.0327 174.254 86.2644 173.277 86.2644ZM182.918 76.3646C183.707 76.3646 184.402 76.5023 185.003 76.7779C185.605 77.0534 186.068 77.4353 186.393 77.9238C186.719 78.3997 186.882 78.9444 186.882 79.5581V85.8887C186.882 85.9513 186.857 86.0077 186.807 86.0578C186.769 86.0954 186.719 86.1141 186.656 86.1141H184.928C184.866 86.1141 184.809 86.0954 184.759 86.0578C184.722 86.0077 184.703 85.9513 184.703 85.8887V85.2876C184.703 85.25 184.69 85.2312 184.665 85.2312C184.64 85.2187 184.615 85.225 184.59 85.25C183.976 85.9263 183.087 86.2644 181.923 86.2644C180.983 86.2644 180.207 86.0265 179.593 85.5506C178.992 85.0747 178.692 84.3671 178.692 83.4278C178.692 82.451 179.03 81.6933 179.706 81.1548C180.395 80.6038 181.359 80.3283 182.599 80.3283H184.609C184.672 80.3283 184.703 80.297 184.703 80.2343V79.7835C184.703 79.2951 184.559 78.9194 184.271 78.6564C183.983 78.3809 183.551 78.2431 182.975 78.2431C182.499 78.2431 182.11 78.3308 181.81 78.5061C181.522 78.6689 181.34 78.9006 181.265 79.2012C181.228 79.3514 181.14 79.4141 181.002 79.389L179.18 79.1636C179.117 79.1511 179.061 79.1323 179.011 79.1072C178.973 79.0697 178.961 79.0258 178.973 78.9757C179.074 78.2118 179.481 77.5856 180.194 77.0972C180.921 76.6088 181.829 76.3646 182.918 76.3646ZM182.467 84.5362C183.081 84.5362 183.607 84.3734 184.045 84.0478C184.484 83.7221 184.703 83.3089 184.703 82.8079V81.925C184.703 81.8624 184.672 81.8311 184.609 81.8311H183.031C182.367 81.8311 181.841 81.9563 181.453 82.2068C181.077 82.4573 180.889 82.8142 180.889 83.2776C180.889 83.6783 181.033 83.9914 181.321 84.2168C181.622 84.4297 182.004 84.5362 182.467 84.5362ZM193.672 76.3646C194.686 76.3646 195.494 76.6651 196.095 77.2663C196.709 77.8674 197.016 78.6877 197.016 79.7271V85.8887C197.016 85.9513 196.991 86.0077 196.941 86.0578C196.903 86.0954 196.853 86.1141 196.79 86.1141H195.062C195 86.1141 194.943 86.0954 194.893 86.0578C194.856 86.0077 194.837 85.9513 194.837 85.8887V80.178C194.837 79.6019 194.674 79.1385 194.348 78.7879C194.023 78.4247 193.591 78.2431 193.052 78.2431C192.514 78.2431 192.075 78.4184 191.737 78.7691C191.412 79.1198 191.249 79.5831 191.249 80.1592V85.8887C191.249 85.9513 191.224 86.0077 191.174 86.0578C191.136 86.0954 191.086 86.1141 191.023 86.1141H189.295C189.232 86.1141 189.176 86.0954 189.126 86.0578C189.088 86.0077 189.07 85.9513 189.07 85.8887V76.7403C189.07 76.6777 189.088 76.6276 189.126 76.59C189.176 76.5399 189.232 76.5149 189.295 76.5149H191.023C191.086 76.5149 191.136 76.5399 191.174 76.59C191.224 76.6276 191.249 76.6777 191.249 76.7403V77.3414C191.249 77.379 191.261 77.404 191.286 77.4166C191.311 77.4291 191.33 77.4166 191.343 77.379C191.856 76.7027 192.633 76.3646 193.672 76.3646ZM205.169 73.1899C205.169 73.1273 205.188 73.0772 205.226 73.0396C205.276 72.9895 205.332 72.9645 205.395 72.9645H207.123C207.186 72.9645 207.236 72.9895 207.273 73.0396C207.323 73.0772 207.348 73.1273 207.348 73.1899V85.8887C207.348 85.9513 207.323 86.0077 207.273 86.0578C207.236 86.0954 207.186 86.1141 207.123 86.1141H205.395C205.332 86.1141 205.276 86.0954 205.226 86.0578C205.188 86.0077 205.169 85.9513 205.169 85.8887V85.3252C205.169 85.2876 205.157 85.2625 205.132 85.25C205.107 85.2375 205.082 85.25 205.057 85.2876C204.506 85.9388 203.786 86.2644 202.896 86.2644C202.007 86.2644 201.256 86.0327 200.642 85.5694C200.028 85.106 199.584 84.461 199.308 83.6345C199.083 82.9332 198.97 82.1504 198.97 81.2863C198.97 80.3972 199.077 79.6332 199.29 78.9945C199.565 78.168 200.01 77.523 200.623 77.0596C201.237 76.5963 202.007 76.3646 202.934 76.3646C203.798 76.3646 204.506 76.6777 205.057 77.3038C205.082 77.3289 205.107 77.3414 205.132 77.3414C205.157 77.3289 205.169 77.3038 205.169 77.2663V73.1899ZM204.719 83.4842C205.007 82.9707 205.151 82.2444 205.151 81.3051C205.151 80.3283 204.994 79.5831 204.681 79.0697C204.343 78.5186 203.867 78.2431 203.253 78.2431C202.615 78.2431 202.114 78.5061 201.75 79.0321C201.375 79.5831 201.187 80.3471 201.187 81.3239C201.187 82.2005 201.337 82.9206 201.638 83.4842C201.988 84.0853 202.521 84.3859 203.234 84.3859C203.873 84.3859 204.368 84.0853 204.719 83.4842ZM210.948 75.1999C210.559 75.1999 210.24 75.0747 209.99 74.8242C209.739 74.5737 209.614 74.2544 209.614 73.8661C209.614 73.4779 209.739 73.1586 209.99 72.9081C210.24 72.6576 210.559 72.5324 210.948 72.5324C211.336 72.5324 211.655 72.6576 211.906 72.9081C212.156 73.1586 212.281 73.4779 212.281 73.8661C212.281 74.2544 212.156 74.5737 211.906 74.8242C211.655 75.0747 211.336 75.1999 210.948 75.1999ZM210.046 86.1141C209.983 86.1141 209.927 86.0954 209.877 86.0578C209.839 86.0077 209.82 85.9513 209.82 85.8887V76.7215C209.82 76.6589 209.839 76.6088 209.877 76.5712C209.927 76.5211 209.983 76.4961 210.046 76.4961H211.774C211.837 76.4961 211.887 76.5211 211.924 76.5712C211.975 76.6088 212 76.6589 212 76.7215V85.8887C212 85.9513 211.975 86.0077 211.924 86.0578C211.887 86.0954 211.837 86.1141 211.774 86.1141H210.046ZM220.451 73.1899C220.451 73.1273 220.47 73.0772 220.507 73.0396C220.557 72.9895 220.614 72.9645 220.676 72.9645H222.404C222.467 72.9645 222.517 72.9895 222.555 73.0396C222.605 73.0772 222.63 73.1273 222.63 73.1899V85.8887C222.63 85.9513 222.605 86.0077 222.555 86.0578C222.517 86.0954 222.467 86.1141 222.404 86.1141H220.676C220.614 86.1141 220.557 86.0954 220.507 86.0578C220.47 86.0077 220.451 85.9513 220.451 85.8887V85.3252C220.451 85.2876 220.438 85.2625 220.413 85.25C220.388 85.2375 220.363 85.25 220.338 85.2876C219.787 85.9388 219.067 86.2644 218.178 86.2644C217.289 86.2644 216.537 86.0327 215.923 85.5694C215.31 85.106 214.865 84.461 214.59 83.6345C214.364 82.9332 214.252 82.1504 214.252 81.2863C214.252 80.3972 214.358 79.6332 214.571 78.9945C214.846 78.168 215.291 77.523 215.905 77.0596C216.518 76.5963 217.289 76.3646 218.215 76.3646C219.079 76.3646 219.787 76.6777 220.338 77.3038C220.363 77.3289 220.388 77.3414 220.413 77.3414C220.438 77.3289 220.451 77.3038 220.451 77.2663V73.1899ZM220 83.4842C220.288 82.9707 220.432 82.2444 220.432 81.3051C220.432 80.3283 220.275 79.5831 219.962 79.0697C219.624 78.5186 219.148 78.2431 218.535 78.2431C217.896 78.2431 217.395 78.5061 217.032 79.0321C216.656 79.5831 216.468 80.3471 216.468 81.3239C216.468 82.2005 216.619 82.9206 216.919 83.4842C217.27 84.0853 217.802 84.3859 218.516 84.3859C219.155 84.3859 219.649 84.0853 220 83.4842ZM228.652 76.3646C229.441 76.3646 230.136 76.5023 230.737 76.7779C231.339 77.0534 231.802 77.4353 232.128 77.9238C232.453 78.3997 232.616 78.9444 232.616 79.5581V85.8887C232.616 85.9513 232.591 86.0077 232.541 86.0578C232.503 86.0954 232.453 86.1141 232.391 86.1141H230.662C230.6 86.1141 230.543 86.0954 230.493 86.0578C230.456 86.0077 230.437 85.9513 230.437 85.8887V85.2876C230.437 85.25 230.424 85.2312 230.399 85.2312C230.374 85.2187 230.349 85.225 230.324 85.25C229.71 85.9263 228.821 86.2644 227.657 86.2644C226.717 86.2644 225.941 86.0265 225.327 85.5506C224.726 85.0747 224.426 84.3671 224.426 83.4278C224.426 82.451 224.764 81.6933 225.44 81.1548C226.129 80.6038 227.093 80.3283 228.333 80.3283H230.343C230.406 80.3283 230.437 80.297 230.437 80.2343V79.7835C230.437 79.2951 230.293 78.9194 230.005 78.6564C229.717 78.3809 229.285 78.2431 228.709 78.2431C228.233 78.2431 227.844 78.3308 227.544 78.5061C227.256 78.6689 227.074 78.9006 226.999 79.2012C226.962 79.3514 226.874 79.4141 226.736 79.389L224.914 79.1636C224.851 79.1511 224.795 79.1323 224.745 79.1072C224.707 79.0697 224.695 79.0258 224.707 78.9757C224.808 78.2118 225.215 77.5856 225.928 77.0972C226.655 76.6088 227.563 76.3646 228.652 76.3646ZM228.201 84.5362C228.815 84.5362 229.341 84.3734 229.779 84.0478C230.218 83.7221 230.437 83.3089 230.437 82.8079V81.925C230.437 81.8624 230.406 81.8311 230.343 81.8311H228.765C228.101 81.8311 227.575 81.9563 227.187 82.2068C226.811 82.4573 226.623 82.8142 226.623 83.2776C226.623 83.6783 226.767 83.9914 227.056 84.2168C227.356 84.4297 227.738 84.5362 228.201 84.5362ZM239.748 78.0553C239.748 78.1179 239.723 78.1742 239.673 78.2243C239.635 78.2619 239.585 78.2807 239.522 78.2807H237.606C237.544 78.2807 237.512 78.312 237.512 78.3746V82.9019C237.512 83.3777 237.612 83.7221 237.813 83.935C238.026 84.1479 238.358 84.2544 238.808 84.2544H239.372C239.435 84.2544 239.485 84.2794 239.522 84.3295C239.572 84.3671 239.597 84.4172 239.597 84.4798V85.8887C239.597 86.0265 239.522 86.1079 239.372 86.1329L238.395 86.1517C237.406 86.1517 236.667 85.9826 236.179 85.6445C235.69 85.3064 235.44 84.6677 235.427 83.7284V78.3746C235.427 78.312 235.396 78.2807 235.333 78.2807H234.262C234.2 78.2807 234.143 78.2619 234.093 78.2243C234.056 78.1742 234.037 78.1179 234.037 78.0553V76.7403C234.037 76.6777 234.056 76.6276 234.093 76.59C234.143 76.5399 234.2 76.5149 234.262 76.5149H235.333C235.396 76.5149 235.427 76.4836 235.427 76.4209V74.2231C235.427 74.1604 235.446 74.1104 235.483 74.0728C235.534 74.0227 235.59 73.9976 235.653 73.9976H237.287C237.349 73.9976 237.4 74.0227 237.437 74.0728C237.487 74.1104 237.512 74.1604 237.512 74.2231V76.4209C237.512 76.4836 237.544 76.5149 237.606 76.5149H239.522C239.585 76.5149 239.635 76.5399 239.673 76.59C239.723 76.6276 239.748 76.6777 239.748 76.7403V78.0553ZM249.596 80.2343C249.646 80.5474 249.671 80.8981 249.671 81.2863L249.652 81.8687C249.652 82.0189 249.577 82.0941 249.427 82.0941H243.547C243.485 82.0941 243.453 82.1254 243.453 82.188C243.491 82.6013 243.547 82.8831 243.622 83.0334C243.923 83.935 244.656 84.3922 245.82 84.4047C246.672 84.4047 247.348 84.054 247.849 83.3527C247.899 83.2776 247.962 83.24 248.037 83.24C248.087 83.24 248.131 83.2588 248.168 83.2963L249.333 84.2544C249.446 84.3421 249.465 84.4422 249.389 84.555C249.001 85.106 248.481 85.5318 247.83 85.8324C247.192 86.1329 246.478 86.2832 245.689 86.2832C244.712 86.2832 243.879 86.064 243.19 85.6257C242.514 85.1874 242.019 84.5737 241.706 83.7848C241.418 83.1085 241.274 82.1692 241.274 80.967C241.274 80.2406 241.349 79.652 241.5 79.2012C241.75 78.3245 242.22 77.6357 242.909 77.1348C243.61 76.6213 244.449 76.3646 245.426 76.3646C247.893 76.3646 249.283 77.6545 249.596 80.2343ZM245.426 78.2431C244.962 78.2431 244.574 78.3621 244.261 78.6C243.96 78.8255 243.748 79.1448 243.622 79.5581C243.547 79.771 243.497 80.0465 243.472 80.3846C243.447 80.4472 243.472 80.4786 243.547 80.4786H247.361C247.423 80.4786 247.455 80.4472 247.455 80.3846C247.429 80.0715 247.392 79.8336 247.342 79.6708C247.229 79.2199 247.004 78.8693 246.666 78.6188C246.34 78.3683 245.927 78.2431 245.426 78.2431ZM252.63 86.1517C252.241 86.1517 251.922 86.0265 251.672 85.776C251.421 85.5255 251.296 85.2062 251.296 84.818C251.296 84.4297 251.421 84.1104 251.672 83.8599C251.922 83.6094 252.241 83.4842 252.63 83.4842C253.018 83.4842 253.331 83.6094 253.569 83.8599C253.819 84.1104 253.945 84.4297 253.945 84.818C253.945 85.2062 253.819 85.5255 253.569 85.776C253.318 86.0265 253.005 86.1517 252.63 86.1517Z" fill="white"/>
</svg>
