<svg width="828" height="835" viewBox="0 0 828 835" fill="none" xmlns="http://www.w3.org/2000/svg">
<path opacity="0.05" d="M280.278 6.39948C278.371 72.7545 249.904 63.0162 185.445 81.4879C183.839 81.9387 182.244 82.5242 180.661 83.2445C146.161 98.8523 176.924 105.421 202.387 133.082C203.429 134.187 204.517 135.257 205.623 136.243C216.846 145.694 225.197 160.31 229.263 175.818C239.41 214.673 195.307 244.766 168.448 217.689C168.226 217.421 167.986 217.237 167.764 216.969C151.283 200.53 124.604 205.02 112.202 226.405C82.5684 277.403 49.2676 381.152 26.1295 376.917C20.8231 375.475 20.9479 362.934 18.6509 313.585C14.436 223.698 11.4033 210.659 4.85556 208.688C0.955216 203.578 -39.1131 257.86 -74.2727 282.676C-98.5981 299.839 -130.129 281.95 -129.753 250.766C-128.781 167.631 39.889 64.2557 -81.4673 99.8589C-160.194 126.044 -205.459 130.578 -207.203 68.735C-207.557 55.254 -201.748 42.1629 -191.622 34.0945C-151.307 1.95729 -84.3452 16.872 -32.775 4.46779C-4.08259 -2.41442 7.52619 -41.2542 -12.5723 -63.5811C-44.5507 -99.2481 -80.3639 -133.132 3.55287 -166.234C94.9329 -202.109 75.3492 -109.895 78.0464 -50.3179C78.2386 -45.7349 79.1399 -41.3092 80.6921 -37.1414C83.9718 -28.5037 90.4735 -15.6945 101.73 -12.2768C118.287 -7.19833 129.41 -27.2245 161.089 -44.934C162.35 -45.6349 163.553 -46.4364 164.802 -47.2721C210.854 -79.6397 280.149 -69.2097 280.337 6.50013L280.278 6.39948Z" stroke="url(#paint0_linear_313_13467)"/>
<path opacity="0.08" d="M-21.043 -77.0432C-49.2411 -113.093 -79.6155 -147.491 4.50371 -179.668C96.883 -214.622 82.5475 -124.861 88.959 -64.9769C89.4265 -60.3793 90.527 -55.9552 92.3076 -51.7387C96.1026 -42.903 103.079 -30.0808 114.534 -26.0917C131.768 -20.0747 143.374 -38.2335 175.038 -53.2122C176.281 -53.8287 177.524 -54.4451 178.785 -55.146C225.098 -82.6948 292.624 -69.3353 293.051 7.12996C291.419 74.0718 263.498 67.2283 200.735 88.6191C199.111 89.1543 197.575 89.8405 196.05 90.6615C162.462 107.61 191.565 114.883 214.895 143.235C215.842 144.407 216.807 145.495 217.866 146.515C228.14 156.513 235.517 171.406 238.809 187.189C247.063 226.345 203.194 256.841 175.582 232.028C175.342 231.845 175.12 231.577 174.88 231.393C157.946 216.357 131.162 221.353 118.11 242.422C86.5437 292.963 51.3325 393.304 25.9564 389.12C19.7009 387.652 18.6358 375.475 15.2816 327.752C9.35705 240.897 4.61378 227.67 -3.40902 224.766C-8.89598 218.876 -49.0053 269.754 -84.2777 292.075C-108.706 307.453 -139.96 289.006 -140.48 257.542C-141.552 174.104 19.2139 68.9552 -97.2488 101.149C-173.3 122.172 -216.165 124.749 -216.948 62.4946C-217.114 48.8775 -211.27 35.6179 -201.273 27.2135C-161.389 -6.4705 -95.3605 5.1141 -43.7007 -8.85813C-15.1539 -16.565 -3.26548 -54.4626 -21.0253 -77.1276L-21.043 -77.0432Z" stroke="url(#paint1_linear_313_13467)"/>
<path opacity="0.11" d="M-29.4828 -90.4563C-54.0061 -126.956 -78.9067 -162.037 5.4853 -193.052C98.7942 -227.323 90.0519 -139.764 99.9315 -79.5366C100.674 -74.9243 102.003 -70.4515 103.983 -66.2365C108.37 -57.1864 115.744 -44.3675 127.368 -39.8573C145.234 -32.8678 157.435 -49.312 188.97 -61.4074C190.225 -61.8891 191.556 -62.3546 192.752 -62.937C239.309 -85.5828 305.084 -69.3782 305.703 7.87688C304.345 75.4057 276.935 71.6258 215.932 95.8173C214.367 96.4532 212.842 97.2741 211.318 98.095C178.659 116.3 206.068 124.446 227.234 153.438C228.105 154.594 229.006 155.8 229.941 156.838C239.236 167.333 245.651 182.637 248.263 198.628C254.671 238.051 211.007 268.899 182.607 246.519C182.367 246.336 182.127 246.152 181.887 245.969C164.435 232.453 137.686 237.854 123.89 258.676C90.5907 308.758 53.27 405.692 25.6266 401.51C18.4043 400.1 16.1199 388.235 11.7556 342.106C3.87519 258.318 -2.3325 244.866 -11.8011 241.08C-18.8277 234.377 -59.0429 281.968 -94.4106 301.711C-118.912 315.353 -149.948 296.247 -151.259 264.571C-154.422 180.864 -1.05268 76.0772 -113.111 102.64C-186.144 119.898 -226.923 119.172 -226.774 56.4561C-226.677 42.7191 -220.844 29.3249 -211.022 20.6186C-171.464 -14.5457 -106.521 -6.32355 -54.6779 -21.9319C-26.2766 -30.4634 -14.1377 -67.4693 -29.5297 -90.4223L-29.4828 -90.4563Z" stroke="url(#paint2_linear_313_13467)"/>
<path opacity="0.14" d="M-37.8934 -103.817C-58.7536 -140.901 -78.1281 -176.345 6.52533 -206.334C100.823 -239.82 97.4158 -154.562 110.934 -94.0434C111.923 -89.4668 113.48 -84.9453 115.688 -80.6816C120.59 -71.4333 128.486 -58.6354 140.261 -53.5197C158.834 -45.5414 171.612 -60.1866 202.962 -69.4995C204.275 -69.8806 205.57 -70.1772 206.778 -70.6249C253.503 -88.3841 317.603 -69.3182 318.461 8.69291C317.378 76.809 290.479 76.0926 231.207 103.034C229.67 103.721 228.157 104.676 226.691 105.598C194.963 125.06 220.63 134.112 239.755 163.727C240.533 164.951 241.31 166.175 242.152 167.281C250.543 178.288 255.939 193.904 257.777 210.17C262.263 249.844 218.973 280.992 189.737 261.08C189.497 260.897 189.21 260.747 188.971 260.564C171.048 248.535 144.239 254.408 129.764 274.864C94.6087 324.505 55.3014 418.016 25.4199 413.885C17.2016 412.483 13.698 400.932 8.3819 356.495C-1.2843 275.722 -9.12638 262.098 -20.0231 257.346C-28.6655 249.812 -68.9106 294.133 -104.403 311.248C-129.006 323.104 -159.842 303.424 -161.897 271.501C-167.304 187.492 -21.1489 83.15 -128.786 103.998C-198.819 117.575 -237.524 113.412 -236.384 50.3345C-236.099 36.4613 -230.201 22.9486 -220.508 13.9064C-181.353 -22.7545 -117.389 -17.8282 -65.4381 -35.0891C-37.1822 -44.4452 -24.8221 -80.6098 -37.8464 -103.851L-37.8934 -103.817Z" stroke="url(#paint3_linear_313_13467)"/>
<path opacity="0.17" d="M-46.304 -117.178C-63.542 -155.032 -77.3499 -190.655 7.536 -219.668C102.804 -252.284 104.797 -169.446 121.906 -108.601C123.17 -104.01 124.956 -99.4399 127.393 -95.1275C132.886 -85.6648 141.163 -72.7857 153.125 -67.2332C172.329 -58.2824 185.837 -71.096 216.924 -77.6428C218.219 -77.9394 219.555 -78.0511 220.774 -78.364C267.621 -91.2027 330.093 -69.3095 331.161 9.40736C330.305 78.1449 303.929 80.6267 246.452 110.2C244.898 110.971 243.443 112.027 242.006 112.999C211.178 133.668 235.162 143.727 252.142 173.898C252.873 175.156 253.527 176.398 254.304 177.623C261.745 189.177 266.15 205.154 267.232 221.612C269.872 261.552 226.787 293.052 196.733 275.523C196.446 275.374 196.236 275.241 195.949 275.091C177.555 264.55 150.734 270.861 135.516 291.07C98.5036 340.27 57.2389 430.408 25.0901 426.278C15.9226 424.85 11.1822 413.696 4.90279 370.818C-6.56692 293.143 -16.008 279.177 -28.3682 273.628C-38.5972 265.315 -78.9306 306.266 -114.489 320.853C-139.213 331.007 -169.784 310.634 -172.676 278.533C-180.251 194.238 -41.462 90.3079 -144.648 105.492C-211.71 115.337 -248.407 107.855 -246.164 44.2639C-245.691 30.2545 -239.729 16.6235 -230.164 7.24517C-191.364 -30.9465 -128.38 -29.3159 -76.3215 -48.2291C-48.211 -58.4099 -35.6119 -93.8178 -46.304 -117.178Z" stroke="url(#paint4_linear_313_13467)"/>
<path opacity="0.19" d="M-54.7427 -130.59C-68.4462 -169.365 -76.6 -205.015 8.51923 -233.053C104.806 -264.835 112.076 -184.396 132.882 -123.159C134.421 -118.554 136.407 -113.985 139.072 -109.623C145.08 -99.9625 153.831 -87.0702 165.992 -80.9463C185.857 -70.9724 200.17 -81.9385 230.89 -85.7858C232.197 -85.9477 233.544 -85.9245 234.775 -86.1027C281.638 -94.0876 342.588 -69.3004 343.895 10.1735C343.314 79.4992 317.413 85.2132 261.654 117.403C260.158 118.274 258.762 119.431 257.307 120.488C227.427 142.328 249.634 153.464 264.516 184.157C265.152 185.483 265.713 186.793 266.367 188.035C272.858 200.136 276.29 216.391 276.645 233.09C277.485 273.264 234.635 305.167 203.715 290.055C203.428 289.906 203.171 289.807 202.913 289.708C184.096 280.619 157.139 287.386 141.27 307.28C102.401 356.04 59.1495 442.756 24.7621 438.677C14.6278 437.307 8.71496 426.432 1.4076 385.23C-11.848 310.569 -22.9236 296.431 -36.7589 289.949C-48.6039 280.806 -88.9676 318.487 -124.622 330.497C-149.449 338.865 -179.773 317.883 -183.455 285.569C-193.122 201.003 -61.8208 97.5022 -160.435 107.005C-224.497 113.169 -259.12 102.249 -255.916 38.2456C-255.179 24.116 -249.275 10.3843 -239.868 0.619496C-201.423 -39.1033 -139.494 -40.7847 -87.251 -61.3344C-59.2855 -72.34 -46.5057 -107.092 -54.7604 -130.505L-54.7427 -130.59Z" stroke="url(#paint5_linear_313_13467)"/>
<path opacity="0.22" d="M-63.1376 -143.938C-73.301 -183.856 -75.8069 -219.317 9.5503 -246.38C106.814 -277.296 119.439 -199.237 143.884 -137.704C145.699 -133.083 147.912 -128.466 150.777 -124.106C157.301 -114.246 166.51 -101.255 178.858 -94.6939C199.384 -83.6964 214.534 -92.7652 244.859 -93.9633C246.224 -94.0245 247.536 -93.8325 248.779 -93.876C295.678 -97.0916 355.092 -69.3243 356.638 10.9114C356.331 80.8292 330.887 89.8606 276.937 124.6C275.424 125.556 274.086 126.814 272.613 127.954C243.649 150.919 264.092 163.265 276.97 194.414C277.56 195.775 277.997 197.103 278.558 198.413C284.099 211.062 286.587 227.645 286.168 244.621C285.18 284.981 242.514 317.323 210.85 304.609C210.593 304.51 210.259 304.394 210.001 304.295C190.711 296.693 163.693 303.933 147.127 323.547C106.37 371.819 61.1578 455.168 24.5299 451.14C13.4458 449.744 6.29565 439.265 -2.02246 399.653C-17.0826 328.086 -29.7756 313.69 -45.0109 306.291C-58.4433 296.368 -98.898 330.681 -134.65 340.114C-159.581 346.697 -189.66 325.105 -194.21 292.559C-205.997 207.668 -82.1485 104.64 -176.271 108.444C-237.443 110.861 -269.889 96.5692 -265.723 32.1496C-264.798 17.8829 -258.859 3.98139 -249.55 -6.06977C-211.534 -47.3424 -150.598 -52.2355 -98.1971 -74.4732C-70.3751 -86.3042 -57.3493 -120.521 -63.2314 -143.87L-63.1376 -143.938Z" stroke="url(#paint6_linear_313_13467)"/>
<path opacity="0.25" d="M-71.5807 -157.254C-78.0919 -198.467 -75.0317 -233.535 10.5341 -259.675C108.851 -289.707 126.724 -214.095 154.868 -152.166C156.959 -147.53 159.401 -142.863 162.465 -138.504C169.581 -128.43 179.189 -115.441 191.735 -108.308C212.924 -96.2869 228.938 -103.408 258.915 -101.99C260.292 -101.917 261.616 -101.59 262.888 -101.583C309.718 -100.096 367.701 -69.2811 369.44 11.7501C369.407 82.26 344.448 94.6593 292.279 131.899C290.824 132.955 289.468 134.297 288.054 135.539C260.006 159.627 278.667 173.269 289.482 204.773C289.978 206.202 290.322 207.598 290.759 208.927C295.351 222.123 296.866 238.984 295.72 256.203C292.933 296.798 250.421 329.528 217.967 319.247C217.709 319.148 217.405 319.083 217.1 319.018C197.385 312.868 170.23 320.565 153.013 339.865C110.367 387.649 63.1948 467.631 24.3263 463.654C12.2453 462.265 3.90463 452.149 -5.42432 414.127C-22.2421 345.62 -36.5998 331 -53.3112 322.669C-68.3604 311.914 -108.877 342.91 -144.697 349.815C-169.732 354.613 -199.584 332.495 -204.907 299.65C-218.787 214.483 -102.42 111.878 -192.004 109.95C-250.226 108.72 -280.524 91.0055 -275.396 26.17C-274.284 11.766 -268.279 -2.2548 -259.145 -12.6086C-221.482 -55.4149 -161.54 -63.52 -109.01 -87.4962C-81.3025 -100.102 -67.9482 -133.987 -71.6453 -157.135L-71.5807 -157.254Z" stroke="url(#paint7_linear_313_13467)"/>
<path opacity="0.28" d="M-80.0111 -170.658C-82.7406 -213.403 -74.319 -247.858 11.5312 -273.057C110.825 -302.222 134.007 -228.956 165.837 -166.766C168.174 -162.166 170.845 -157.45 174.138 -153.042C181.769 -142.769 191.881 -129.716 204.569 -122.112C226.419 -109.067 243.339 -114.054 272.852 -110.222C274.24 -110.014 275.529 -109.518 276.859 -109.411C323.62 -103.219 380.171 -69.3578 382.149 12.4347C382.391 83.5364 357.929 99.4388 307.5 138.993C306.027 140.134 304.777 141.543 303.345 142.869C276.185 168.03 293.063 182.968 301.892 214.844C302.264 216.29 302.561 217.721 302.905 219.117C306.575 232.911 307.164 250.017 305.168 267.497C300.552 308.277 258.225 341.446 224.998 333.513C224.694 333.448 224.389 333.383 224.131 333.284C203.944 328.621 176.699 336.74 158.814 355.811C114.261 403.191 65.1459 479.72 24.0366 475.793C11.0348 474.429 1.4743 464.625 -8.88328 428.278C-27.5058 362.866 -43.5105 347.938 -61.6397 338.775C-78.2297 327.206 -118.884 354.866 -154.726 359.209C-179.912 362.255 -209.471 339.494 -215.632 306.468C-231.604 221.026 -122.798 118.829 -207.812 111.217C-263.19 106.273 -291.263 85.152 -285.173 19.9007C-283.797 5.37588 -277.803 -8.78052 -268.826 -19.5214C-231.546 -63.9117 -172.598 -75.2291 -119.957 -100.86C-92.3929 -114.291 -78.634 -147.827 -80.1165 -170.724L-80.0111 -170.658Z" stroke="url(#paint8_linear_313_13467)"/>
<path opacity="0.31" d="M-88.4121 -184.009C-87.2361 -228.305 -73.4996 -262.112 12.5592 -286.387C112.906 -314.668 141.338 -243.85 176.868 -181.264C179.527 -176.683 182.38 -171.884 185.901 -167.427C194.125 -156.938 204.618 -143.803 217.57 -135.745C240.082 -121.676 257.908 -124.53 286.955 -118.284C288.402 -117.975 289.655 -117.31 290.997 -117.068C337.724 -106.341 392.809 -69.263 395.026 13.2911C395.543 84.9849 371.578 104.391 322.918 146.31C321.503 147.552 320.235 149.046 318.862 150.472C292.56 176.657 307.62 193.06 314.509 225.272C314.835 226.753 314.991 228.286 315.288 229.717C318.008 244.059 317.624 261.443 314.854 279.199C308.485 320.181 266.266 353.772 232.248 348.273C231.944 348.208 231.668 348.193 231.363 348.128C210.751 344.918 183.398 353.544 164.832 372.251C118.391 419.143 67.3442 492.353 23.9353 488.377C9.93651 487.02 -0.814781 477.579 -12.1834 442.822C-32.5641 380.472 -50.2337 365.32 -69.7924 355.189C-87.9704 342.84 -128.715 367.131 -164.626 368.946C-189.916 370.206 -219.183 346.8 -226.182 313.594C-244.247 227.876 -143.077 126.07 -223.417 112.842C-275.902 104.149 -301.844 79.6887 -294.745 13.9874C-293.182 -0.674625 -287.152 -15.0007 -278.274 -26.028C-241.393 -71.9181 -183.421 -86.5328 -130.623 -113.852C-103.22 -128.025 -88.9452 -161.364 -88.3067 -183.942L-88.4121 -184.009Z" stroke="url(#paint9_linear_313_13467)"/>
<path opacity="0.34" d="M-96.8163 -197.364C-91.5176 -243.296 -72.7118 -276.419 13.5837 -299.719C114.907 -327.133 148.648 -258.663 187.912 -195.85C190.8 -191.22 193.946 -186.49 197.649 -181.95C206.435 -171.297 217.357 -158.114 230.478 -149.535C253.605 -134.408 272.396 -135.027 300.966 -126.501C302.425 -126.057 303.707 -125.342 305.043 -124.88C351.707 -109.668 405.324 -69.3733 407.78 13.9414C408.571 86.2266 385.162 109.237 338.184 153.371C336.752 154.697 335.572 156.341 334.198 157.768C308.802 184.941 321.997 202.844 326.917 235.343C327.149 236.892 327.181 238.443 327.384 239.942C329.155 254.831 327.873 272.509 324.3 290.492C316.178 331.675 274.068 365.689 239.259 362.623C238.955 362.558 238.632 362.578 238.357 362.563C217.29 360.755 189.829 369.889 170.595 388.365C122.265 434.768 69.3049 504.574 23.6082 500.684C8.65934 499.3 -3.25356 490.273 -15.6802 457.141C-37.7896 397.903 -57.1065 382.443 -78.1593 371.464C-97.9544 358.283 -138.79 379.205 -174.768 378.492C-200.209 378 -229.154 354 -237.02 320.563C-257.16 234.487 -163.676 133.107 -239.293 114.226C-288.979 101.853 -312.62 74.0017 -304.541 7.80063C-302.743 -7.0325 -296.696 -21.4437 -287.992 -32.7736C-251.494 -80.2476 -194.535 -97.9908 -141.608 -127.049C-114.32 -141.997 -99.4058 -175.157 -96.8455 -197.414L-96.8163 -197.364Z" stroke="url(#paint10_linear_313_13467)"/>
<path opacity="0.37" d="M-105.253 -210.77C-95.6314 -258.339 -71.926 -290.727 14.5777 -313.103C116.907 -339.599 155.899 -273.577 198.881 -210.453C202.045 -205.808 205.419 -201.029 209.321 -196.491C218.7 -185.622 230.003 -172.357 243.341 -163.29C267.13 -147.139 286.791 -145.455 314.932 -134.683C316.402 -134.104 317.696 -133.255 319.043 -132.658C365.661 -113.044 417.823 -69.3976 420.518 14.6785C421.584 87.5554 398.731 114.171 353.465 160.569C352.091 161.996 350.939 163.691 349.577 165.253C325.04 193.449 336.34 212.8 339.413 245.569C339.551 247.186 339.537 248.771 339.617 250.288C340.437 265.725 338.182 283.682 333.864 301.992C324.018 343.426 281.969 377.897 246.435 377.146C246.112 377.166 245.79 377.185 245.485 377.12C224.04 376.732 196.396 386.356 176.51 404.518C126.245 450.467 71.37 516.869 23.4319 513.029C7.5151 511.704 -5.61795 502.989 -19.0088 471.414C-42.9236 415.273 -63.8587 399.554 -86.3412 387.608C-107.724 373.647 -148.651 391.198 -184.697 387.957C-210.242 385.678 -238.942 361.068 -247.629 327.366C-269.862 241.015 -184.045 139.976 -254.986 115.478C-301.885 99.2885 -323.242 68.1301 -314.201 1.5133C-312.185 -13.4066 -306.102 -27.9875 -297.527 -39.6542C-261.411 -88.7126 -205.417 -109.619 -152.361 -140.416C-125.218 -156.19 -109.576 -189.02 -105.17 -210.973L-105.253 -210.77Z" stroke="url(#paint11_linear_313_13467)"/>
<path opacity="0.4" d="M-113.658 -224.127C-99.5322 -273.252 -71.1085 -304.987 15.6025 -326.438C118.984 -352.049 163.18 -288.443 209.909 -224.958C213.348 -220.297 216.951 -215.47 221.053 -210.932C230.947 -199.865 242.708 -186.502 256.233 -176.998C280.637 -159.789 301.198 -155.751 328.926 -142.817C330.408 -142.104 331.713 -141.119 333.072 -140.388C379.721 -116.356 430.349 -69.3738 433.237 15.4967C434.577 88.9647 412.339 119.286 368.65 167.832C367.305 169.309 366.165 171.139 364.785 172.785C341.078 201.954 350.465 222.839 351.721 255.926C351.766 257.612 351.628 259.215 351.614 260.8C351.437 276.819 348.332 295.036 343.21 313.572C331.657 355.173 289.671 390.1 253.316 391.733C252.994 391.752 252.672 391.772 252.349 391.791C230.45 392.806 202.745 402.903 182.144 420.869C129.96 466.278 73.1544 529.36 22.9752 525.572C6.10829 524.22 -8.18649 515.918 -22.6647 485.919C-48.2615 432.856 -70.938 416.898 -94.8677 404.069C-117.868 389.277 -158.885 403.458 -194.97 397.738C-220.619 393.673 -249.072 368.453 -258.597 334.57C-282.876 247.911 -204.835 147.149 -270.993 117.098C-315.104 97.0927 -334.1 62.6435 -324.144 -4.35411C-321.893 -19.4451 -315.869 -34.1273 -307.375 -46.1648C-271.689 -96.773 -216.66 -120.842 -163.477 -153.378C-136.495 -169.894 -120.015 -202.547 -113.81 -224.16L-113.658 -224.127Z" stroke="url(#paint12_linear_313_13467)"/>
<path opacity="0.42" d="M-122.067 -237.483C-103.303 -288.045 -70.3416 -319.21 16.6238 -339.771C121.01 -364.463 170.488 -303.256 220.905 -239.51C224.62 -234.835 228.469 -230.043 232.753 -225.423C243.24 -214.14 255.353 -200.746 269.124 -190.703C294.171 -172.385 315.557 -166.011 342.995 -150.932C344.488 -150.084 345.806 -148.965 347.176 -148.098C393.826 -119.698 442.951 -69.33 446.078 16.3012C447.693 90.3606 426.116 124.353 384.034 175.098C382.7 176.711 381.59 178.591 380.268 180.338C357.361 210.429 364.818 232.932 364.321 266.22C364.318 267.94 364.087 269.611 363.95 271.214C362.822 287.78 358.82 306.292 352.847 325.088C339.57 366.941 297.646 402.324 260.518 406.307C260.196 406.327 259.856 406.43 259.533 406.45C237.209 408.918 209.367 419.472 188.115 437.123C134.043 482.044 75.2758 541.755 22.8552 538.017C4.99104 536.673 -10.4479 528.701 -25.9551 500.377C-53.2812 450.428 -77.6814 434.146 -103.059 420.434C-127.648 404.861 -168.784 415.62 -204.908 407.422C-230.69 401.52 -258.839 375.79 -269.185 341.643C-295.557 254.71 -225.302 154.087 -286.637 118.67C-327.989 94.7974 -344.671 57.0911 -333.753 -10.3218C-331.285 -25.4995 -325.225 -40.3512 -316.906 -52.6914C-281.603 -104.884 -227.54 -132.117 -174.228 -166.392C-147.361 -183.683 -130.031 -216.023 -122.085 -237.398L-122.067 -237.483Z" stroke="url(#paint13_linear_313_13467)"/>
<path opacity="0.45" d="M-130.509 -250.89C-106.941 -302.723 -69.559 -333.519 17.6136 -353.154C123.005 -376.928 177.717 -318.087 231.899 -254.064C235.86 -249.424 239.968 -244.533 244.48 -239.864C255.53 -228.416 268.1 -214.924 282.012 -204.41C307.721 -185.068 329.865 -176.237 356.985 -159.065C358.49 -158.081 359.819 -156.827 361.247 -155.86C408.021 -123.11 455.519 -69.3374 458.886 17.0543C460.775 91.7046 439.872 129.504 399.356 182.263C398.081 183.976 396.953 185.94 395.66 187.738C373.536 218.836 379.051 242.821 376.783 276.395C376.687 278.183 376.332 279.872 376.13 281.593C374.052 298.708 369.105 317.548 362.329 336.57C347.375 378.64 305.484 414.429 267.612 420.813C267.243 420.866 266.95 420.936 266.58 420.989C243.848 424.826 215.852 435.922 193.931 453.343C137.894 497.758 77.2423 554.114 22.5804 550.427C3.71905 549.091 -12.8348 541.498 -29.4295 514.75C-58.4671 467.831 -84.5797 451.358 -111.358 436.729C-137.517 420.291 -178.761 427.764 -214.982 416.986C-240.868 409.297 -268.771 382.958 -279.955 348.63C-308.374 261.389 -245.889 160.823 -302.493 120.106C-341.115 92.3165 -355.425 51.4538 -343.574 -16.4244C-340.871 -31.7732 -334.822 -46.7603 -326.602 -59.3869C-291.729 -113.129 -238.603 -143.475 -185.146 -179.574C-158.394 -197.64 -140.184 -229.618 -130.603 -250.822L-130.509 -250.89Z" stroke="url(#paint14_linear_313_13467)"/>
<path opacity="0.48" d="M-138.922 -264.245C-110.462 -317.198 -68.7184 -347.726 18.632 -366.486C125.058 -389.292 184.993 -332.95 242.893 -268.617C247.083 -263.928 251.437 -259.072 256.178 -254.354C267.79 -242.742 280.771 -229.117 294.87 -218.166C321.195 -197.766 344.145 -186.512 370.946 -167.246C372.463 -166.128 373.803 -164.739 375.243 -163.637C422.112 -126.586 468.012 -69.3589 471.617 17.7931C473.782 93.0345 453.617 134.523 414.631 189.463C413.339 191.261 412.316 193.292 411.035 195.225C389.712 227.245 393.237 252.748 389.257 286.707C389.037 288.513 388.665 290.286 388.34 292.026C385.264 309.722 379.467 328.822 371.916 348.122C355.284 390.409 313.408 426.688 274.735 435.371C274.395 435.475 274.025 435.529 273.685 435.632C250.498 440.873 222.395 452.475 199.823 469.582C141.897 513.507 79.3137 566.542 22.3811 562.856C2.59864 561.544 -15.1757 554.263 -32.7994 529.191C-63.5664 485.387 -91.3268 468.607 -119.628 453.078C-147.376 435.86 -188.739 439.91 -224.999 426.653C-251.018 417.127 -278.599 390.194 -290.621 355.686C-321.086 268.137 -266.402 167.578 -318.199 121.577C-354.026 89.7513 -366.057 45.8001 -353.243 -22.493C-350.353 -37.9787 -344.239 -53.085 -336.147 -66.0483C-301.657 -121.375 -249.497 -154.885 -195.959 -192.689C-169.293 -211.48 -150.251 -243.061 -138.94 -264.161L-138.922 -264.245Z" stroke="url(#paint15_linear_313_13467)"/>
<path opacity="0.51" d="M-147.369 -277.652C-114.006 -331.589 -67.987 -362 19.617 -379.869C127.048 -401.756 192.264 -347.815 253.853 -283.221C258.319 -278.518 262.901 -273.613 267.842 -268.896C280.047 -257.069 293.409 -243.363 307.725 -231.923C334.693 -210.415 358.297 -196.771 384.902 -175.428C386.43 -174.176 387.782 -172.652 389.234 -171.415C436.227 -130.013 480.546 -69.4156 484.344 18.5305C486.812 94.4129 467.368 139.674 429.873 196.612C428.639 198.51 427.598 200.626 426.346 202.609C405.748 235.536 407.312 262.606 401.685 296.832C401.371 298.706 400.876 300.498 400.504 302.271C396.448 320.465 389.782 339.91 381.381 359.469C363.025 402.007 321.258 438.708 281.812 449.742C281.472 449.846 281.084 449.984 280.744 450.088C257.103 456.732 228.893 468.841 205.652 485.718C145.808 529.103 81.293 578.815 22.0898 575.131C1.31005 573.826 -17.5792 566.925 -36.2906 543.429C-68.693 502.671 -98.2419 485.685 -127.991 469.274C-157.327 451.275 -198.763 451.869 -235.108 436.167C-261.231 424.854 -288.536 397.361 -301.408 362.538C-333.92 274.682 -286.943 174.062 -334.043 122.93C-367.075 87.0672 -376.798 40.0779 -362.975 -28.6639C-359.82 -44.2703 -353.747 -59.5623 -345.83 -72.8282C-311.77 -129.705 -261.232 -167.621 -206.864 -205.956C-180.01 -224.884 -160.334 -256.64 -147.369 -277.652Z" stroke="url(#paint16_linear_313_13467)"/>
<path opacity="0.54" d="M-155.788 -291.007C-117.51 -345.794 -67.1806 -376.256 20.63 -393.2C129.094 -414.117 199.517 -362.593 264.871 -297.723C269.612 -293.005 274.442 -288.135 279.564 -283.336C292.331 -271.344 306.104 -257.506 320.607 -245.629C348.191 -223.062 372.554 -206.962 398.887 -183.559C400.427 -182.171 401.761 -180.563 403.253 -179.141C450.446 -133.371 493.061 -69.3855 497.022 19.3042C499.765 95.7773 481.164 144.794 445.095 203.847C443.873 205.88 442.861 208.047 441.668 210.131C421.824 244.014 421.37 272.551 414.076 307.128C413.669 309.071 413.08 310.93 412.584 312.722C407.578 331.463 400.044 351.253 390.809 370.988C370.776 413.743 329.025 450.935 288.805 464.319C288.418 464.457 288.078 464.561 287.691 464.699C263.613 472.661 235.278 485.362 211.386 501.924C149.577 544.804 83.1772 591.16 21.7325 587.526C0.00244752 586.195 -20.0019 579.674 -39.8008 557.754C-73.8857 520.077 -105.176 502.851 -136.355 485.472C-167.31 466.642 -208.788 463.83 -245.201 445.598C-271.456 432.448 -298.486 404.395 -312.197 369.392C-346.755 281.229 -307.421 180.429 -349.872 124.2C-380.09 84.216 -387.552 34.2225 -372.766 -34.9339C-369.423 -50.6772 -363.332 -66.0542 -355.496 -79.6909C-321.849 -138.202 -271.535 -177.889 -217.801 -219.272C-191.412 -239.58 -170.541 -270.2 -155.829 -291.192L-155.788 -291.007Z" stroke="url(#paint17_linear_313_13467)"/>
<path opacity="0.57" d="M-164.21 -304.36C-120.958 -359.896 -66.3943 -390.426 21.6404 -406.529C131.109 -426.527 206.814 -377.404 275.857 -312.274C280.874 -307.541 285.932 -302.622 291.253 -297.824C304.584 -285.668 318.738 -271.748 333.534 -259.367C361.732 -235.741 386.778 -217.201 412.915 -191.721C414.467 -190.199 415.859 -188.49 417.317 -186.899C464.68 -136.811 505.62 -69.3877 509.821 20.0618C512.838 97.1252 495.034 149.932 460.409 211.016C459.216 213.1 458.216 215.401 457.051 217.535C437.933 252.324 435.488 282.379 426.605 317.324C426.075 319.284 425.439 321.178 424.849 323.038C418.846 342.361 410.46 362.411 400.375 382.406C378.693 425.429 336.976 463.025 295.936 478.794C295.549 478.932 295.191 479.121 294.804 479.259C270.272 488.625 241.83 501.833 217.269 518.165C153.542 560.504 85.211 603.537 21.5249 599.955C-1.17323 598.682 -22.3512 592.439 -43.1792 572.196C-78.8996 537.567 -112.008 520.085 -144.606 501.873C-177.148 482.262 -218.746 476.027 -255.197 455.316C-281.556 440.379 -308.263 411.733 -322.842 376.499C-359.446 288.028 -327.709 187.015 -365.604 125.757C-392.885 81.6342 -398.179 28.7046 -382.46 -40.9165C-378.853 -56.7804 -372.803 -72.3429 -365.113 -86.2319C-331.896 -146.293 -282.473 -189.128 -228.64 -232.3C-202.367 -253.384 -180.623 -283.421 -164.269 -304.461L-164.21 -304.36Z" stroke="url(#paint18_linear_313_13467)"/>
<path opacity="0.6" d="M-172.664 -317.763C-124.502 -373.929 -65.592 -404.679 22.6491 -419.857C133.151 -438.886 214.062 -392.179 286.871 -326.774C292.164 -322.026 297.468 -317.143 303.001 -312.211C316.923 -299.84 331.459 -285.838 346.442 -273.02C375.237 -248.251 400.908 -227.371 427.002 -199.782C428.564 -198.125 429.969 -196.281 431.438 -194.555C479.001 -140.1 518.237 -69.2876 522.676 20.9217C525.922 98.6096 509.008 155.138 475.81 218.338C474.675 220.522 473.704 222.874 472.504 225.177C454.11 260.872 449.723 292.41 439.127 327.741C438.503 329.769 437.773 331.732 437.09 333.659C430.135 353.53 420.881 373.925 409.916 394.13C386.539 437.454 344.854 475.456 303.06 493.492C302.673 493.63 302.315 493.818 301.928 493.956C276.941 504.726 248.392 518.441 223.18 534.458C157.535 576.257 87.2722 615.967 21.3446 612.436C-2.30396 611.137 -24.597 605.274 -46.5597 586.641C-83.9449 555.009 -118.813 537.371 -152.888 518.226C-187.048 497.784 -228.659 488.193 -265.225 464.986C-291.669 448.177 -318.148 419.005 -333.565 383.592C-372.216 294.814 -347.953 193.57 -381.368 127.266C-405.712 79.0034 -408.821 23.0532 -392.186 -46.9482C-388.391 -62.949 -382.305 -78.681 -374.744 -92.9067C-341.957 -154.518 -293.472 -200.466 -239.541 -245.429C-213.4 -267.203 -190.765 -296.742 -172.693 -317.813L-172.664 -317.763Z" stroke="url(#paint19_linear_313_13467)"/>
<path opacity="0.63" d="M-181.092 -331.114C-128.068 -387.877 -64.8409 -418.898 23.6532 -433.184C135.189 -451.243 221.277 -407.005 297.851 -341.323C303.39 -336.611 308.953 -331.628 314.685 -326.698C329.217 -314.196 344.117 -300.028 359.316 -286.722C388.726 -260.896 415.033 -237.541 440.977 -207.909C442.552 -206.117 443.968 -204.138 445.448 -202.277C493.258 -143.488 530.742 -69.2533 535.422 21.7155C538.942 99.9938 522.948 160.295 491.053 225.628C489.929 227.947 488.988 230.349 487.817 232.703C470.102 269.338 463.742 302.309 451.51 338.041C450.838 340.104 449.985 342.084 449.208 344.08C441.273 364.448 431.151 385.187 419.411 405.67C394.385 449.26 352.734 487.668 310.12 508.088C309.762 508.277 309.328 508.449 308.97 508.637C283.53 520.811 254.844 534.983 228.993 550.819C161.429 592.078 89.2644 628.516 21.113 624.951C-3.53294 623.66 -26.9234 618.092 -49.9622 601.17C-88.9361 572.552 -125.64 554.742 -161.115 534.68C-196.817 513.423 -238.547 500.409 -275.198 474.757C-301.746 456.16 -327.931 426.345 -344.187 390.751C-384.885 301.667 -368.066 200.242 -397.048 128.926C-418.332 76.5062 -419.291 17.7042 -401.799 -52.7781C-397.74 -68.8994 -391.665 -84.7666 -384.232 -99.329C-351.906 -162.54 -304.252 -211.536 -250.252 -258.339C-224.227 -280.889 -200.737 -309.761 -180.928 -330.947L-181.092 -331.114Z" stroke="url(#paint20_linear_313_13467)"/>
<path opacity="0.66" d="M-189.525 -344.463C-131.656 -401.737 -64.0645 -433.063 24.6532 -446.508C137.222 -463.597 228.563 -421.811 308.903 -355.854C314.671 -351.092 320.48 -346.145 326.441 -341.166C341.536 -328.5 356.846 -314.199 372.233 -300.456C402.258 -273.571 429.141 -247.842 454.995 -216.067C456.581 -214.14 458.009 -212.026 459.548 -210.065C507.604 -146.941 543.337 -69.2842 548.209 22.478C552.004 101.346 536.93 165.419 506.356 232.801C505.262 235.171 504.332 237.708 503.22 240.162C486.182 277.738 477.868 312.057 464.057 348.292C463.263 350.373 462.316 352.421 461.492 354.451C452.559 375.401 441.568 396.485 428.995 417.143C402.321 461 360.704 499.813 317.317 522.585C316.912 522.807 316.554 522.995 316.149 523.218C290.225 536.745 261.461 551.474 234.96 566.996C165.448 607.664 91.3814 640.828 20.9886 637.315C-4.57848 636.048 -29.1426 630.759 -53.2868 615.498C-93.9255 589.877 -132.342 571.878 -169.341 550.917C-206.661 528.829 -248.434 512.408 -285.199 484.26C-311.85 463.876 -337.759 433.501 -354.912 397.627C-397.657 308.235 -388.208 206.646 -412.861 130.252C-431.102 73.7594 -430.028 11.9043 -411.573 -58.9921C-407.279 -75.2843 -401.263 -91.2527 -393.928 -106.101C-361.986 -170.897 -315.271 -223.007 -261.22 -271.565C-235.281 -294.84 -211.011 -323.061 -189.449 -344.447L-189.525 -344.463Z" stroke="url(#paint21_linear_313_13467)"/>
<path opacity="0.68" d="M-197.989 -357.865C-135.246 -415.599 -63.2725 -447.315 25.6216 -459.884C139.176 -475.97 235.688 -436.432 319.847 -370.453C325.891 -365.676 331.975 -360.715 338.088 -355.703C353.747 -342.872 369.467 -328.44 385.071 -314.209C415.692 -286.181 443.2 -258.112 468.935 -224.244C470.532 -222.182 471.971 -219.933 473.521 -217.837C521.806 -150.295 555.805 -69.2999 560.916 23.2214C564.986 102.68 550.851 170.44 521.609 240.006C520.526 242.511 519.625 245.098 518.543 247.603C502.183 286.118 491.897 321.871 476.45 358.507C475.561 360.656 474.567 362.738 473.573 364.82C463.689 386.318 451.801 407.696 438.377 428.614C410.007 472.772 368.423 511.991 324.264 537.113C323.888 537.386 323.454 537.558 323.049 537.78C296.718 552.677 267.847 567.914 240.63 583.239C169.154 623.4 93.2497 653.173 20.5686 649.744C-5.99578 648.485 -31.6103 643.457 -56.9068 629.892C-99.1926 607.184 -139.386 589.115 -177.833 567.271C-216.741 544.401 -258.586 524.523 -295.436 493.93C-322.173 471.673 -347.806 440.739 -365.798 404.685C-410.542 314.954 -408.433 213.251 -428.788 131.728C-443.892 71.0942 -440.848 6.30441 -421.413 -65.0903C-416.903 -81.4689 -410.85 -97.6066 -403.644 -112.792C-372.162 -179.187 -326.279 -234.345 -272.16 -284.743C-246.337 -308.793 -221.288 -336.363 -197.96 -357.814L-197.989 -357.865Z" stroke="url(#paint22_linear_313_13467)"/>
<path opacity="0.71" d="M-206.43 -371.213C-138.935 -429.391 -62.5036 -461.479 26.6141 -473.208C141.231 -488.273 242.967 -451.238 330.816 -384.999C337.135 -380.208 343.419 -375.248 349.761 -370.187C366.011 -357.141 382.084 -342.677 397.904 -327.959C429.14 -298.872 457.226 -268.429 482.869 -232.417C484.431 -230.186 485.976 -227.871 487.491 -225.606C536.052 -153.679 568.27 -69.312 573.591 23.9182C577.935 103.966 564.767 175.465 536.8 247.114C535.776 249.72 534.857 252.392 533.833 254.997C518.152 294.453 505.91 331.554 488.855 368.642C487.844 370.808 486.756 372.959 485.744 375.126C474.833 397.155 462.152 418.894 447.895 439.987C417.877 484.413 376.385 524.138 331.318 551.494C330.943 551.766 330.491 552.023 330.086 552.245C303.271 568.495 274.323 584.29 246.454 599.3C173.06 638.92 95.2246 665.369 20.2727 661.942C-7.24207 660.656 -34.001 655.957 -60.3737 644.104C-104.277 624.36 -146.307 606.119 -186.155 583.358C-226.652 559.707 -268.539 536.422 -305.503 503.333C-332.344 479.289 -357.683 447.711 -376.56 411.511C-423.211 321.371 -428.536 219.623 -444.638 133.004C-456.623 68.3139 -451.622 0.454453 -431.224 -71.3542C-426.479 -87.9037 -420.438 -104.177 -413.36 -119.699C-382.338 -187.694 -337.317 -245.949 -283.1 -298.137C-257.363 -322.913 -231.535 -349.832 -206.424 -371.432L-206.43 -371.213Z" stroke="url(#paint23_linear_313_13467)"/>
<path opacity="0.74" d="M-214.871 -384.561C-142.595 -443.132 -61.7233 -475.509 27.6064 -486.531C143.25 -500.407 250.247 -466.043 341.814 -399.495C348.409 -394.689 354.968 -389.714 361.416 -384.586C378.277 -371.41 394.713 -356.78 410.75 -341.574C442.6 -311.429 471.216 -278.577 496.816 -240.456C498.39 -238.09 499.946 -235.639 501.472 -233.239C550.309 -156.928 580.746 -69.1883 586.306 24.8011C590.925 105.439 578.772 180.643 552.061 254.459C551.095 257.165 550.13 259.872 549.164 262.578C534.114 303.008 519.983 341.339 501.285 379.048C500.179 381.283 499.044 383.467 497.862 385.686C486 408.263 472.451 430.346 457.343 451.7C425.658 496.477 384.218 536.523 338.378 566.23C337.955 566.537 337.58 566.81 337.128 567.066C309.859 584.72 280.774 600.971 252.267 615.801C176.914 654.696 97.187 678.006 19.9935 674.63C-8.4894 673.402 -36.4044 668.898 -63.8064 658.723C-109.357 641.892 -153.165 623.58 -194.46 599.935C-236.575 575.454 -278.457 548.727 -315.583 513.176C-342.462 487.226 -367.591 455.206 -387.289 418.743C-435.986 328.296 -448.594 226.535 -460.379 134.703C-469.244 65.9551 -462.257 -4.92375 -440.925 -77.1968C-435.992 -93.883 -429.962 -110.291 -422.984 -126.099C-392.498 -195.712 -348.234 -256.998 -293.995 -310.992C-268.344 -336.493 -241.783 -362.727 -214.842 -384.511L-214.871 -384.561Z" stroke="url(#paint24_linear_313_13467)"/>
<path opacity="0.77" d="M-223.348 -397.959C-146.338 -456.889 -61.019 -489.774 28.5633 -499.904C145.211 -512.86 257.461 -480.949 352.748 -414.091C359.618 -409.27 366.377 -404.296 373.083 -399.07C390.507 -385.729 407.353 -370.967 423.577 -355.323C455.978 -324.001 485.236 -288.893 510.792 -248.663C512.378 -246.162 513.945 -243.576 515.483 -241.042C564.596 -160.345 593.251 -69.2331 599.051 25.5156C603.945 106.744 592.806 185.652 567.323 261.585C566.415 264.392 565.432 267.183 564.524 269.99C550.153 311.36 534.067 351.04 513.714 389.235C512.485 391.488 511.256 393.741 510.027 395.994C497.185 419.068 482.797 441.546 466.856 463.076C433.58 508.22 392.115 548.571 345.456 580.663C345.033 580.97 344.61 581.277 344.188 581.584C316.406 600.541 287.273 617.4 258.114 631.915C180.872 670.319 99.185 690.255 19.7499 686.93C-9.73049 685.71 -38.7253 681.417 -67.2213 673.037C-114.449 659.07 -160.004 640.738 -202.777 616.16C-246.48 590.897 -288.482 560.747 -325.645 522.715C-352.628 494.977 -377.463 462.314 -398.046 425.705C-448.838 334.985 -468.635 233.144 -476.225 136.115C-481.894 63.3269 -473.026 -10.6381 -450.702 -83.2747C-445.552 -100.047 -439.487 -116.625 -432.637 -132.77C-402.581 -203.932 -359.121 -268.216 -304.872 -324.151C-279.308 -350.377 -252.014 -375.926 -223.319 -397.909L-223.348 -397.959Z" stroke="url(#paint25_linear_313_13467)"/>
<path opacity="0.8" d="M352.498 595.268C611.631 407.092 690.902 29.2159 529.553 -248.742C368.205 -526.7 27.3365 -599.483 -231.797 -411.307C-490.931 -223.131 -570.201 154.746 -408.852 432.704C-247.504 710.662 93.3642 783.444 352.498 595.268Z" stroke="url(#paint26_linear_313_13467)"/>
<defs>
<linearGradient id="paint0_linear_313_13467" x1="-66.5722" y1="-122.342" x2="204.467" y2="250.912" gradientUnits="userSpaceOnUse">
<stop stop-color="#FFB900"/>
<stop offset="1" stop-color="#996F00"/>
</linearGradient>
<linearGradient id="paint1_linear_313_13467" x1="-72.5789" y1="-131.514" x2="210.971" y2="258.97" gradientUnits="userSpaceOnUse">
<stop stop-color="#FFB900"/>
<stop offset="1" stop-color="#996F00"/>
</linearGradient>
<linearGradient id="paint2_linear_313_13467" x1="-78.7407" y1="-140.698" x2="217.479" y2="267.233" gradientUnits="userSpaceOnUse">
<stop stop-color="#FFB900"/>
<stop offset="1" stop-color="#996F00"/>
</linearGradient>
<linearGradient id="paint3_linear_313_13467" x1="-84.7845" y1="-149.882" x2="224.142" y2="275.547" gradientUnits="userSpaceOnUse">
<stop stop-color="#FFB900"/>
<stop offset="1" stop-color="#996F00"/>
</linearGradient>
<linearGradient id="paint4_linear_313_13467" x1="-90.9304" y1="-159.155" x2="230.82" y2="283.936" gradientUnits="userSpaceOnUse">
<stop stop-color="#FFB900"/>
<stop offset="1" stop-color="#996F00"/>
</linearGradient>
<linearGradient id="paint5_linear_313_13467" x1="-97.1594" y1="-168.583" x2="237.806" y2="292.705" gradientUnits="userSpaceOnUse">
<stop stop-color="#FFB900"/>
<stop offset="1" stop-color="#996F00"/>
</linearGradient>
<linearGradient id="paint6_linear_313_13467" x1="-103.354" y1="-178.115" x2="246.837" y2="304.14" gradientUnits="userSpaceOnUse">
<stop stop-color="#FFB900"/>
<stop offset="1" stop-color="#996F00"/>
</linearGradient>
<linearGradient id="paint7_linear_313_13467" x1="-109.596" y1="-187.756" x2="255.94" y2="315.63" gradientUnits="userSpaceOnUse">
<stop stop-color="#FFB900"/>
<stop offset="1" stop-color="#996F00"/>
</linearGradient>
<linearGradient id="paint8_linear_313_13467" x1="-115.893" y1="-197.676" x2="264.957" y2="326.796" gradientUnits="userSpaceOnUse">
<stop stop-color="#FFB900"/>
<stop offset="1" stop-color="#996F00"/>
</linearGradient>
<linearGradient id="paint9_linear_313_13467" x1="-122.163" y1="-207.702" x2="274.34" y2="338.326" gradientUnits="userSpaceOnUse">
<stop stop-color="#FFB900"/>
<stop offset="1" stop-color="#996F00"/>
</linearGradient>
<linearGradient id="paint10_linear_313_13467" x1="-128.567" y1="-217.871" x2="283.434" y2="349.497" gradientUnits="userSpaceOnUse">
<stop stop-color="#FFB900"/>
<stop offset="1" stop-color="#996F00"/>
</linearGradient>
<linearGradient id="paint11_linear_313_13467" x1="-134.943" y1="-228.304" x2="292.844" y2="360.802" gradientUnits="userSpaceOnUse">
<stop stop-color="#FFB900"/>
<stop offset="1" stop-color="#996F00"/>
</linearGradient>
<linearGradient id="paint12_linear_313_13467" x1="-141.513" y1="-238.706" x2="302.052" y2="372.128" gradientUnits="userSpaceOnUse">
<stop stop-color="#FFB900"/>
<stop offset="1" stop-color="#996F00"/>
</linearGradient>
<linearGradient id="paint13_linear_313_13467" x1="-147.928" y1="-249.405" x2="311.616" y2="383.432" gradientUnits="userSpaceOnUse">
<stop stop-color="#FFB900"/>
<stop offset="1" stop-color="#996F00"/>
</linearGradient>
<linearGradient id="paint14_linear_313_13467" x1="-154.395" y1="-260.294" x2="321.163" y2="394.595" gradientUnits="userSpaceOnUse">
<stop stop-color="#FFB900"/>
<stop offset="1" stop-color="#996F00"/>
</linearGradient>
<linearGradient id="paint15_linear_313_13467" x1="-160.826" y1="-271.288" x2="330.874" y2="405.828" gradientUnits="userSpaceOnUse">
<stop stop-color="#FFB900"/>
<stop offset="1" stop-color="#996F00"/>
</linearGradient>
<linearGradient id="paint16_linear_313_13467" x1="-167.303" y1="-282.559" x2="340.571" y2="416.83" gradientUnits="userSpaceOnUse">
<stop stop-color="#FFB900"/>
<stop offset="1" stop-color="#996F00"/>
</linearGradient>
<linearGradient id="paint17_linear_313_13467" x1="-173.735" y1="-294.007" x2="350.471" y2="427.871" gradientUnits="userSpaceOnUse">
<stop stop-color="#FFB900"/>
<stop offset="1" stop-color="#996F00"/>
</linearGradient>
<linearGradient id="paint18_linear_313_13467" x1="-180.122" y1="-305.695" x2="360.544" y2="438.849" gradientUnits="userSpaceOnUse">
<stop stop-color="#FFB900"/>
<stop offset="1" stop-color="#996F00"/>
</linearGradient>
<linearGradient id="paint19_linear_313_13467" x1="-186.551" y1="-317.702" x2="370.894" y2="449.948" gradientUnits="userSpaceOnUse">
<stop stop-color="#FFB900"/>
<stop offset="1" stop-color="#996F00"/>
</linearGradient>
<linearGradient id="paint20_linear_313_13467" x1="-192.955" y1="-330.001" x2="381.338" y2="460.85" gradientUnits="userSpaceOnUse">
<stop stop-color="#FFB900"/>
<stop offset="1" stop-color="#996F00"/>
</linearGradient>
<linearGradient id="paint21_linear_313_13467" x1="-199.273" y1="-342.667" x2="392.053" y2="471.639" gradientUnits="userSpaceOnUse">
<stop stop-color="#FFB900"/>
<stop offset="1" stop-color="#996F00"/>
</linearGradient>
<linearGradient id="paint22_linear_313_13467" x1="-205.766" y1="-355.622" x2="402.771" y2="482.384" gradientUnits="userSpaceOnUse">
<stop stop-color="#FFB900"/>
<stop offset="1" stop-color="#996F00"/>
</linearGradient>
<linearGradient id="paint23_linear_313_13467" x1="-212.153" y1="-368.999" x2="413.831" y2="493.032" gradientUnits="userSpaceOnUse">
<stop stop-color="#FFB900"/>
<stop offset="1" stop-color="#996F00"/>
</linearGradient>
<linearGradient id="paint24_linear_313_13467" x1="-218.671" y1="-382.663" x2="425.151" y2="503.932" gradientUnits="userSpaceOnUse">
<stop stop-color="#FFB900"/>
<stop offset="1" stop-color="#996F00"/>
</linearGradient>
<linearGradient id="paint25_linear_313_13467" x1="-225.186" y1="-396.837" x2="436.686" y2="514.615" gradientUnits="userSpaceOnUse">
<stop stop-color="#FFB900"/>
<stop offset="1" stop-color="#996F00"/>
</linearGradient>
<linearGradient id="paint26_linear_313_13467" x1="-231.797" y1="-411.307" x2="448.517" y2="525.541" gradientUnits="userSpaceOnUse">
<stop stop-color="#FFB900"/>
<stop offset="1" stop-color="#996F00"/>
</linearGradient>
</defs>
</svg>
